<?xml version="1.0" standalone="no"?>
<!DOCTYPE svg PUBLIC "-//W3C//DTD SVG 1.1//EN" "http://www.w3.org/Graphics/SVG/1.1/DTD/svg11.dtd" >
<svg xmlns="http://www.w3.org/2000/svg" xmlns:xlink="http://www.w3.org/1999/xlink" version="1.1">
<metadata>
Created by FontForge 20161003 at Thu Dec 22 10:46:56 2016
 By www-data
Copyright (c) 2003 - 2012 Linotype GmbH, www.linotype.com. All rights reserved. This font software may not be reproduced, modified, disclosed or transferred without the express written approval of Linotype GmbH. Avenir is a trademark of Linotype GmbH registered in the U.S. Patent and Trademark Office and may be registered in certain other jurisdictions. This typeface is original artwork of Adrian Frutiger and Akira Kobayashi. The design may be protected in certain jurisdictions.
</metadata>
<defs>
<font id="AvenirNextCyrW00Medium" horiz-adv-x="250" >
  <font-face 
    font-family="AvenirNextCyrW00Medium"
    font-weight="450"
    font-stretch="normal"
    units-per-em="1000"
    panose-1="2 11 6 3 2 2 2 2 2 4"
    ascent="800"
    descent="-200"
    x-height="474"
    cap-height="708"
    bbox="-210 -250 1054 951"
    underline-thickness="50"
    underline-position="-225"
    unicode-range="U+000D-FB04"
  />
<missing-glyph horiz-adv-x="512" 
d="M222 117v67h56v-67h-56zM225 234l-2 17q0 56 13 81q7 13 18 27.5t28 31.5q16 15 26 26.5t15 21t7 18t2 17.5q0 36 -22.5 60.5t-53.5 24.5t-53.5 -22t-28.5 -73l-50 8q7 72 44 104.5t91 32.5t89 -35.5t35 -95.5q0 -32 -12.5 -58.5t-50.5 -61.5q-37 -33 -43 -52
q-6 -20 -6 -72h-46zM462 50v617h-412v-617h412zM512 718v-718h-512v718h512z" />
    <glyph glyph-name="napostrophe" unicode="&#x22;n" horiz-adv-x="602" 
d="M186 474q2 -18 3 -40.5t1 -37.5h3q9 19 24.5 35.5t35.5 29t44 19.5t50 7q46 0 79 -15.5t55 -41.5t32.5 -61t10.5 -75v-294h-94v263q0 29 -4.5 55t-16.5 46t-33 32t-54 12q-56 0 -91.5 -42.5t-35.5 -113.5v-252h-94v372q0 19 -1 49t-3 53h89zM67 518h-79l64 190h93z" />
    <glyph glyph-name="uniFB00" unicode="ff" horiz-adv-x="599" 
d="M593 397h-110v-397h-94v397h-195v-397h-94v397h-94v77h94v99q0 42 9.5 77.5t31 61.5t55 41t81.5 15q34 0 59 -7l-11 -81q-11 3 -22 5t-25 2q-27 0 -43.5 -9.5t-25.5 -25.5t-12 -36.5t-3 -42.5v-99h195v99q0 42 9.5 77.5t31 61.5t55 41t81.5 15q34 0 59 -7l-11 -81
q-11 3 -22 5t-25 2q-27 0 -43.5 -9.5t-25.5 -25.5t-12 -36.5t-3 -42.5v-99h110v-77z" />
    <glyph glyph-name="uniFB01" unicode="fi" horiz-adv-x="574" 
d="M304 397h-110v-397h-94v397h-94v77h94v99q0 42 9.5 77.5t31 61.5t55 41t81.5 15q34 0 59 -7l-11 -81q-11 3 -22 5t-25 2q-27 0 -43.5 -9.5t-25.5 -25.5t-12 -36.5t-3 -42.5v-99h110v-77zM491 0h-94v474h94v-474zM507 645q0 -26 -18.5 -43t-44.5 -17t-44 17.5t-18 42.5
q0 26 18 43.5t44 17.5t44.5 -17.5t18.5 -43.5z" />
    <glyph glyph-name="uniFB02" unicode="fl" horiz-adv-x="574" 
d="M491 0h-94v756h94v-756zM304 397h-110v-397h-94v397h-94v77h94v99q0 42 9.5 77.5t31 61.5t55 41t81.5 15q34 0 59 -7l-11 -81q-11 3 -22 5t-25 2q-27 0 -43.5 -9.5t-25.5 -25.5t-12 -36.5t-3 -42.5v-99h110v-77z" />
    <glyph glyph-name="uniFB03" unicode="ffi" horiz-adv-x="863" 
d="M593 397h-110v-397h-94v397h-195v-397h-94v397h-94v77h94v99q0 42 9.5 77.5t31 61.5t55 41t81.5 15q34 0 59 -7l-11 -81q-11 3 -22 5t-25 2q-27 0 -43.5 -9.5t-25.5 -25.5t-12 -36.5t-3 -42.5v-99h195v99q0 42 9.5 77.5t31 61.5t55 41t81.5 15q34 0 59 -7l-11 -81
q-11 3 -22 5t-25 2q-27 0 -43.5 -9.5t-25.5 -25.5t-12 -36.5t-3 -42.5v-99h110v-77zM780 0h-94v474h94v-474zM796 645q0 -26 -18.5 -43t-44.5 -17t-44 17.5t-18 42.5q0 26 18 43.5t44 17.5t44.5 -17.5t18.5 -43.5z" />
    <glyph glyph-name="uniFB04" unicode="ffl" horiz-adv-x="863" 
d="M780 0h-94v756h94v-756zM593 397h-110v-397h-94v397h-195v-397h-94v397h-94v77h94v99q0 42 9.5 77.5t31 61.5t55 41t81.5 15q34 0 59 -7l-11 -81q-11 3 -22 5t-25 2q-27 0 -43.5 -9.5t-25.5 -25.5t-12 -36.5t-3 -42.5v-99h195v99q0 42 9.5 77.5t31 61.5t55 41t81.5 15
q34 0 59 -7l-11 -81q-11 3 -22 5t-25 2q-27 0 -43.5 -9.5t-25.5 -25.5t-12 -36.5t-3 -42.5v-99h110v-77z" />
    <glyph glyph-name=".notdef" horiz-adv-x="512" 
d="M222 117v67h56v-67h-56zM225 234l-2 17q0 56 13 81q7 13 18 27.5t28 31.5q16 15 26 26.5t15 21t7 18t2 17.5q0 36 -22.5 60.5t-53.5 24.5t-53.5 -22t-28.5 -73l-50 8q7 72 44 104.5t91 32.5t89 -35.5t35 -95.5q0 -32 -12.5 -58.5t-50.5 -61.5q-37 -33 -43 -52
q-6 -20 -6 -72h-46zM462 50v617h-412v-617h412zM512 718v-718h-512v718h512z" />
    <glyph glyph-name="glyph1" horiz-adv-x="500" 
 />
    <glyph glyph-name="glyph1" horiz-adv-x="500" 
 />
    <glyph glyph-name="uni000D" unicode="&#xd;" 
 />
    <glyph glyph-name="space" unicode=" " 
 />
    <glyph glyph-name="exclam" unicode="!" horiz-adv-x="334" 
d="M216 207h-99v501h99v-501zM234 60q0 -26 -19 -46t-48 -20q-28 0 -47.5 19.5t-19.5 45.5q0 27 19 46.5t48 19.5t48 -19t19 -46z" />
    <glyph glyph-name="quotedbl" unicode="&#x22;" horiz-adv-x="423" 
d="M90 708h82v-250h-82v250zM251 708h82v-250h-82v250z" />
    <glyph glyph-name="numbersign" unicode="#" horiz-adv-x="574" 
d="M137 211h-96v73h106l19 141h-98v73h109l29 210h75l-30 -210h118l29 210h75l-30 -210h90v-73h-100l-20 -141h93v-73h-102l-30 -211h-75l30 211h-118l-30 -211h-74zM221 284h118l19 141h-117z" />
    <glyph glyph-name="dollar" unicode="$" horiz-adv-x="595" 
d="M264 323q-39 11 -75.5 26.5t-64 39t-44.5 56.5t-17 80q0 44 16.5 79t44 59.5t64 39t76.5 16.5v70h51v-69q52 -1 105.5 -19.5t91.5 -56.5l-68 -63q-23 29 -58.5 44t-70.5 16v-238q38 -13 75.5 -29t67 -40.5t47.5 -59.5t18 -84q0 -47 -16.5 -84t-45 -63t-66.5 -39.5
t-80 -14.5v-72h-51v72q-67 2 -124 27.5t-99 71.5l73 62q13 -19 32 -34t39 -25.5t40.5 -16t38.5 -5.5v254zM315 69q22 1 42 9t35.5 22.5t25 36.5t9.5 52q0 48 -32 76t-80 44v-240zM264 641q-44 -3 -75 -31.5t-31 -78.5q0 -48 29.5 -73.5t76.5 -39.5v223z" />
    <glyph glyph-name="percent" unicode="%" horiz-adv-x="870" 
d="M475 165q0 37 14 69t38 56t56 38t69 14t69 -14t56 -38t38 -56t14 -69t-14 -69t-38 -56t-56 -38t-69 -14t-69 14t-56 38t-38 56t-14 69zM746 165q0 19 -7.5 36.5t-20 30t-30 20t-36.5 7.5q-20 0 -37 -7.5t-29.5 -20t-20 -30t-7.5 -36.5q0 -20 7.5 -37t20 -29.5t29.5 -20
t37 -7.5q19 0 36.5 7.5t30 20t20 29.5t7.5 37zM41 543q0 37 14 69t38 56t56 38t69 14t69 -14t56 -38t38 -56t14 -69t-14 -69t-38 -56t-56 -38t-69 -14t-69 14t-56 38t-38 56t-14 69zM312 543q0 19 -7.5 36.5t-20 30t-30 20t-36.5 7.5q-20 0 -37 -7.5t-29.5 -20t-20 -30
t-7.5 -36.5q0 -20 7.5 -37t20 -29.5t29.5 -20t37 -7.5q19 0 36.5 7.5t30 20t20 29.5t7.5 37zM253 -32l-68 33l434 739l67 -33z" />
    <glyph glyph-name="ampersand" unicode="&#x26;" horiz-adv-x="723" 
d="M550 167l162 -167h-131l-88 93q-40 -50 -90.5 -78t-124.5 -28q-46 0 -88 13t-73.5 38.5t-50 63t-18.5 86.5q0 40 13.5 71.5t35.5 56.5t51 44t59 33q-34 35 -57.5 74.5t-23.5 87.5q0 43 15.5 75t42 53.5t60.5 32t71 10.5t70 -10.5t58 -31.5t40 -52t15 -72q0 -35 -12.5 -63
t-33.5 -51t-48.5 -41t-57.5 -32l141 -145l89 150h110zM407 558q0 38 -25.5 64t-65.5 26q-41 0 -68 -26t-27 -68q0 -17 6.5 -34t16.5 -33.5t22.5 -30.5t24.5 -25q22 10 43 22t37 28t26 35t10 42zM262 332q-52 -22 -83 -55t-31 -87q0 -28 11 -51t29.5 -39t42.5 -24.5t49 -8.5
q51 0 86 22.5t64 66.5z" />
    <glyph glyph-name="quotesingle" unicode="'" horiz-adv-x="262" 
d="M90 708h82v-250h-82v250z" />
    <glyph glyph-name="parenleft" unicode="(" horiz-adv-x="315" 
d="M119 288q0 -110 35 -214.5t94 -186.5l-68 -44q-66 89 -106 204t-40 241t40 241t106 204l68 -44q-59 -82 -94 -186.5t-35 -214.5z" />
    <glyph glyph-name="parenright" unicode=")" horiz-adv-x="315" 
d="M196 288q0 110 -35 214.5t-94 186.5l68 44q66 -89 106 -204t40 -241t-40 -241t-106 -204l-68 44q59 82 94 186.5t35 214.5z" />
    <glyph glyph-name="asterisk" unicode="*" horiz-adv-x="454" 
d="M389 620l27 -76l-127 -41l81 -109l-64 -48l-84 113l-84 -113l-64 48l81 109l-127 41l27 76l127 -41v129h80v-129z" />
    <glyph glyph-name="plus" unicode="+" horiz-adv-x="666" 
d="M374 344h222v-82h-222v-222h-82v222h-222v82h222v222h82v-222z" />
    <glyph glyph-name="comma" unicode="," horiz-adv-x="260" 
d="M114 -133h-80l69 250h94z" />
    <glyph glyph-name="hyphen" unicode="-" horiz-adv-x="320" 
d="M276 204h-232v80h232v-80z" />
    <glyph glyph-name="period" unicode="." horiz-adv-x="260" 
d="M197 60q0 -26 -19 -46t-48 -20q-28 0 -47.5 19.5t-19.5 45.5q0 27 19 46.5t48 19.5t48 -19t19 -46z" />
    <glyph glyph-name="slash" unicode="/" horiz-adv-x="380" 
d="M69 -33l-71 24l307 751l71 -26z" />
    <glyph glyph-name="zero" unicode="0" horiz-adv-x="595" 
d="M298 726q63 0 108.5 -29t75 -79.5t43.5 -118.5t14 -145q0 -78 -14 -145.5t-43.5 -118t-75 -79.5t-108.5 -29t-109 29t-75.5 79.5t-43.5 118t-14 145.5q0 77 14 145t43.5 118.5t75.5 79.5t109 29zM298 645q-44 0 -72 -28.5t-43.5 -72t-21.5 -94.5t-6 -96t6 -96t21.5 -94
t43.5 -71.5t72 -28.5q43 0 70.5 28.5t43.5 71.5t22 94t6 96t-6 96t-22 94.5t-43.5 72t-70.5 28.5z" />
    <glyph glyph-name="one" unicode="1" horiz-adv-x="595" 
d="M379 0h-97v590l-134 -112l-57 67l201 163h87v-708z" />
    <glyph glyph-name="two" unicode="2" horiz-adv-x="595" 
d="M522 0h-462v93l282 280q32 33 55 69t23 81q0 28 -10 50.5t-27 38.5t-40 24.5t-49 8.5q-54 0 -89 -34.5t-44 -88.5l-95 16q6 40 25.5 74.5t49.5 60t69.5 39.5t84.5 14q44 0 84.5 -13t71.5 -38t49.5 -63t18.5 -87q0 -34 -9 -63t-24.5 -55t-36.5 -49.5t-44 -46.5l-230 -224
h347v-87z" />
    <glyph glyph-name="three" unicode="3" horiz-adv-x="595" 
d="M213 410h31q30 0 58.5 5.5t50.5 19t35.5 36.5t13.5 57q0 27 -10 48.5t-27.5 36.5t-40 23.5t-47.5 8.5q-45 0 -76.5 -23t-47.5 -64l-88 31q26 64 83.5 100.5t132.5 36.5q44 0 83.5 -12.5t69.5 -36.5t47.5 -60t17.5 -83q0 -30 -9.5 -56t-26 -47t-39.5 -36t-50 -22v-2
q31 -6 57.5 -21t45.5 -37.5t30 -51.5t11 -63q0 -53 -20 -93.5t-53 -67.5t-76 -41t-88 -14q-84 0 -148 38t-93 118l90 30q16 -46 54.5 -75t94.5 -29q27 0 52.5 8.5t45.5 25.5t32 42t12 59q0 37 -16 62t-41.5 40.5t-57.5 22t-63 6.5h-30v80z" />
    <glyph glyph-name="four" unicode="4" horiz-adv-x="595" 
d="M451 242h102v-83h-102v-159h-94v159h-326v88l301 461h119v-466zM357 597h-2l-224 -355h226v355z" />
    <glyph glyph-name="five" unicode="5" horiz-adv-x="595" 
d="M490 622h-292l-6 -186q20 7 44.5 10t46.5 3q51 0 94.5 -15.5t75 -44.5t49.5 -70.5t18 -92.5q0 -56 -19 -101t-52 -76.5t-78 -49t-98 -17.5q-83 0 -140 38.5t-86 103.5l88 35q17 -43 53.5 -69t84.5 -26q31 0 58 11t47 31t31.5 48t11.5 62q0 40 -13.5 69.5t-36.5 48.5
t-53 28t-63 9q-40 0 -82 -11t-75 -28l10 376h382v-86z" />
    <glyph glyph-name="six" unicode="6" horiz-adv-x="595" 
d="M231 423l1 -2q15 9 40 14t48 5q46 0 86.5 -16.5t70.5 -46t47 -70.5t17 -89q0 -53 -18.5 -96.5t-51.5 -74.5t-77.5 -48t-96.5 -17q-53 0 -98 17.5t-77.5 48.5t-51 74t-18.5 93q0 58 19 105t50 96l185 292h115zM150 214q0 -31 10.5 -58.5t30 -47.5t46.5 -32t60 -12t59.5 11
t46 31.5t30 48t10.5 60.5q0 32 -10.5 59t-29 47t-45.5 31t-60 11t-60.5 -11t-47 -31t-30 -47t-10.5 -60z" />
    <glyph glyph-name="seven" unicode="7" horiz-adv-x="595" 
d="M515 620l-284 -620h-111l295 622h-351v86h451v-88z" />
    <glyph glyph-name="eight" unicode="8" horiz-adv-x="595" 
d="M401 373q28 -7 52.5 -23.5t42.5 -39.5t28.5 -53t10.5 -64q0 -50 -19 -89t-51.5 -66t-75.5 -41.5t-91 -14.5t-91.5 14.5t-76 41.5t-51.5 66t-19 89q0 35 10.5 65t29 53t43 38.5t51.5 23.5v2q-48 17 -78.5 58t-30.5 100q0 44 17 79.5t46 61t67.5 39t82.5 13.5
q43 0 82 -13.5t67.5 -38t45.5 -60t17 -79.5q0 -58 -30.5 -101t-78.5 -59v-2zM182 530q0 -24 8.5 -45t24 -36.5t37 -24.5t46.5 -9q24 0 45 9t37 24.5t25 36.5t9 45q0 25 -9.5 46.5t-25 37t-36.5 24t-45 8.5q-25 0 -46.5 -8.5t-37 -24t-24 -37t-8.5 -46.5zM159 198
q0 -30 10 -55t28.5 -42.5t44 -27.5t56.5 -10q30 0 55.5 10t43.5 27.5t28.5 42.5t10.5 55q0 29 -10.5 53.5t-28.5 42.5t-43.5 28t-55.5 10t-55.5 -10t-44 -28t-29 -42.5t-10.5 -53.5z" />
    <glyph glyph-name="nine" unicode="9" horiz-adv-x="595" 
d="M365 286l-1 1q-15 -9 -41 -14q-12 -2 -24.5 -3.5t-23.5 -1.5q-47 0 -87 16.5t-70 46t-47 70.5t-17 89q0 53 18.5 96.5t51.5 74.5t78 48t97 17t97 -17.5t77.5 -48.5t51 -74t18.5 -93q0 -58 -19 -105t-49 -96l-185 -292h-115zM446 494q0 31 -10.5 58.5t-30 48t-46.5 32.5
t-60 12t-60 -11.5t-46.5 -31.5t-30 -48t-10.5 -61q0 -32 10.5 -59t29.5 -47t46 -31t60 -11t60.5 11t47 31t30 47t10.5 60z" />
    <glyph glyph-name="colon" unicode=":" horiz-adv-x="300" 
d="M217 415q0 -27 -19 -46.5t-48 -19.5q-28 0 -47.5 19t-19.5 46q0 26 19 46t48 20t48 -19.5t19 -45.5zM217 60q0 -26 -19 -46t-48 -20q-28 0 -47.5 19.5t-19.5 45.5q0 27 19 46.5t48 19.5t48 -19t19 -46z" />
    <glyph glyph-name="semicolon" unicode=";" horiz-adv-x="300" 
d="M217 415q0 -27 -19 -46.5t-48 -19.5q-28 0 -47.5 19t-19.5 46q0 26 19 46t48 20t48 -19.5t19 -45.5zM123 -133h-80l69 250h94z" />
    <glyph glyph-name="less" unicode="&#x3c;" horiz-adv-x="666" 
d="M589 479l-385 -176l383 -176v-85l-508 231v60l510 231v-85z" />
    <glyph glyph-name="equal" unicode="=" horiz-adv-x="666" 
d="M596 426v-81h-526v81h526zM596 261v-81h-526v81h526z" />
    <glyph glyph-name="greater" unicode="&#x3e;" horiz-adv-x="666" 
d="M79 564l508 -231v-60l-508 -231v85l383 176l-383 176v85z" />
    <glyph glyph-name="question" unicode="?" horiz-adv-x="500" 
d="M301 201h-94v48q0 26 5 47t14.5 38t23 32.5t30.5 31.5l37 35q22 19 36.5 41.5t14.5 57.5q0 48 -30.5 76.5t-78.5 28.5q-50 0 -80 -32t-35 -78l-96 11q6 43 25 77.5t47.5 58.5t65.5 36.5t79 12.5t78.5 -12t64.5 -35.5t44 -58t16 -79.5q0 -32 -7 -56t-19.5 -43.5
t-30.5 -36.5t-39 -35q-20 -17 -34 -30.5t-22 -27.5t-11.5 -31t-3.5 -42v-35zM326 60q0 -26 -19 -46t-48 -20q-28 0 -47.5 19.5t-19.5 45.5q0 27 19 46.5t48 19.5t48 -19t19 -46z" />
    <glyph glyph-name="at" unicode="@" horiz-adv-x="800" 
d="M412 478q-27 0 -47.5 -14.5t-34.5 -37.5t-21 -51t-7 -55q0 -13 3 -28.5t11 -29t22 -22.5t36 -9q31 0 52 15.5t34.5 38t19.5 49t6 48.5q0 18 -3.5 35t-12 30.5t-22.5 22t-36 8.5zM728 102q-59 -62 -139.5 -91t-173.5 -29q-86 0 -156.5 27.5t-120.5 76.5t-77.5 117.5
t-27.5 149.5q0 80 30 148t82 118t121.5 78.5t148.5 28.5q68 0 132 -20t113.5 -60t79 -100t29.5 -141q0 -60 -16 -106t-43 -77t-62.5 -46.5t-74.5 -15.5q-42 0 -64.5 20.5t-22.5 49.5h-5q-6 -11 -17 -23.5t-27 -23t-35.5 -17t-43.5 -6.5q-68 0 -106 45.5t-38 117.5
q0 42 14 83t40 72.5t62.5 51t81.5 19.5q38 0 65 -16.5t36 -40.5h2l9 42h76l-39 -188q-3 -14 -6.5 -35t-3.5 -36q0 -17 7 -31t33 -14q22 0 40.5 12.5t31.5 34.5t20.5 53t7.5 67q0 63 -20.5 111t-57.5 80.5t-88 49t-111 16.5q-66 0 -120 -23t-93 -64t-60 -96.5t-21 -119.5
q0 -68 22.5 -123t62.5 -93.5t95.5 -59.5t122.5 -21q85 0 146.5 26.5t112.5 74.5z" />
    <glyph glyph-name="A" unicode="A" horiz-adv-x="711" 
d="M115 0h-110l307 708h90l304 -708h-112l-72 174h-336zM221 261h265l-132 332z" />
    <glyph glyph-name="B" unicode="B" horiz-adv-x="642" 
d="M86 708h244q40 0 80 -9t71.5 -30t51 -55t19.5 -85q0 -59 -34 -99t-90 -55v-2q34 -4 63 -17.5t50 -35.5t32.5 -52t11.5 -67q0 -51 -21 -89t-57 -62.5t-84.5 -37t-103.5 -12.5h-233v708zM185 409h129q28 0 53.5 6.5t44.5 20t30 34t11 49.5q0 57 -42 81.5t-113 24.5h-113
v-216zM185 84h124q31 0 62.5 5.5t57 19.5t41 37.5t15.5 59.5q0 63 -43 91t-124 28h-133v-241z" />
    <glyph glyph-name="C" unicode="C" horiz-adv-x="708" 
d="M693 110q-42 -57 -109 -92.5t-161 -35.5q-81 0 -149.5 27.5t-118 77t-77.5 118t-28 150.5q0 83 28.5 151.5t79 117t119.5 75.5t150 27q36 0 73 -7t71 -21t62 -34.5t48 -47.5l-78 -60q-26 36 -73.5 59.5t-102.5 23.5q-62 0 -111.5 -22.5t-84.5 -61.5t-54 -90.5t-19 -109.5
q0 -60 18.5 -112t53 -90.5t84 -60.5t110.5 -22q60 0 109 24t81 70z" />
    <glyph glyph-name="D" unicode="D" horiz-adv-x="761" 
d="M86 708h243q68 0 136 -20t123 -63t89 -110t34 -161q0 -91 -34 -157.5t-89 -110t-123 -65t-136 -21.5h-243v708zM185 87h124q64 0 118.5 18t94 52t61.5 84t22 113q0 66 -22 116t-61.5 83.5t-94 51t-118.5 17.5h-124v-535z" />
    <glyph glyph-name="E" unicode="E" horiz-adv-x="601" 
d="M185 88h370v-88h-469v708h454v-87h-355v-212h334v-85h-334v-236z" />
    <glyph glyph-name="F" unicode="F" horiz-adv-x="568" 
d="M185 0h-99v708h442v-87h-343v-220h321v-85h-321v-316z" />
    <glyph glyph-name="G" unicode="G" horiz-adv-x="778" 
d="M620 562q-32 35 -81.5 56t-110.5 21q-62 0 -112 -22.5t-85 -61.5t-54 -90.5t-19 -109.5q0 -59 19 -111t54 -90.5t86 -60.5t114 -22q50 0 92 9t73 26v197h-157v84h255v-343q-56 -30 -122 -46t-144 -16q-83 0 -152.5 27.5t-119.5 77t-78 118t-28 150.5q0 83 28.5 151.5
t79 117t119.5 75.5t150 27q85 0 151.5 -25t110.5 -67z" />
    <glyph glyph-name="H" unicode="H" horiz-adv-x="729" 
d="M86 708h99v-296h358v296h100v-708h-100v324h-358v-324h-99v708z" />
    <glyph glyph-name="I" unicode="I" horiz-adv-x="271" 
d="M185 0h-99v708h99v-708z" />
    <glyph glyph-name="J" unicode="J" horiz-adv-x="495" 
d="M107 158q8 -38 35 -63t67 -25q32 0 52.5 12t32.5 32.5t17 48t5 58.5v487h99v-491q0 -37 -8 -78t-30 -76t-61.5 -58t-101.5 -23q-81 0 -132 42t-67 108z" />
    <glyph glyph-name="K" unicode="K" horiz-adv-x="659" 
d="M185 396h2l316 312h137l-344 -324l365 -384h-142l-332 366h-2v-366h-99v708h99v-312z" />
    <glyph glyph-name="L" unicode="L" horiz-adv-x="511" 
d="M185 88h316v-88h-415v708h99v-620z" />
    <glyph glyph-name="M" unicode="M" horiz-adv-x="903" 
d="M452 164h2l209 544h154v-708h-99v592h-2l-235 -592h-63l-234 592h-2v-592h-96v708h154z" />
    <glyph glyph-name="N" unicode="N" horiz-adv-x="772" 
d="M585 142h2v566h99v-708h-125l-374 578h-2v-578h-99v708h129z" />
    <glyph glyph-name="O" unicode="O" horiz-adv-x="849" 
d="M800 355q0 -82 -28.5 -150.5t-78.5 -118t-119 -77t-150 -27.5t-149.5 27.5t-118.5 77t-78 118t-28 150.5q0 83 28 151.5t78 117t118.5 75.5t149.5 27t150 -27t119 -75.5t78.5 -117t28.5 -151.5zM693 355q0 58 -19 109.5t-54 90.5t-84.5 61.5t-111.5 22.5
q-61 0 -110.5 -22.5t-84 -61.5t-53.5 -90.5t-19 -109.5q0 -59 19 -111t54 -90.5t84 -60.5t110 -22t111 22t85 60.5t54 90.5t19 111z" />
    <glyph glyph-name="P" unicode="P" horiz-adv-x="595" 
d="M86 708h216q57 0 104 -11.5t80 -35.5t51 -61t18 -89q0 -53 -19.5 -91t-54 -62t-82 -35.5t-102.5 -11.5h-112v-311h-99v708zM185 395h105q36 0 66.5 6.5t52.5 20t34 35.5t12 54t-12.5 53.5t-34 35t-51.5 19t-65 5.5h-107v-229z" />
    <glyph glyph-name="Q" unicode="Q" horiz-adv-x="846" 
d="M834 0h-416q-81 0 -148.5 26t-116.5 73t-76 114t-27 150q0 80 28 146.5t77 114.5t116.5 75t147.5 27q79 0 146 -27t116 -75t76.5 -114.5t27.5 -146.5q0 -95 -40 -166t-106 -112v-2h195v-83zM157 363q0 -58 18.5 -108.5t52.5 -87.5t82 -58.5t108 -21.5q58 0 106.5 21.5
t82.5 58.5t53 87.5t19 108.5q0 57 -18 107t-52 87.5t-82 59.5t-108 22t-108 -22t-82.5 -59.5t-53 -87.5t-18.5 -107z" />
    <glyph glyph-name="R" unicode="R" horiz-adv-x="614" 
d="M185 0h-99v708h227q51 0 97 -10.5t80.5 -33.5t54.5 -60.5t20 -91.5q0 -78 -48 -126t-124 -61l198 -325h-120l-180 315h-106v-315zM185 398h114q35 0 65 6t52.5 19.5t35.5 35t13 53.5t-13 53.5t-34.5 34.5t-50.5 18.5t-61 5.5h-121v-226z" />
    <glyph glyph-name="S" unicode="S" horiz-adv-x="569" 
d="M438 577q-21 29 -57 47.5t-81 18.5q-24 0 -48.5 -6.5t-44.5 -21t-32.5 -36t-12.5 -51.5q0 -29 11.5 -48.5t31 -33t46 -23t56.5 -19.5q36 -11 73 -25t67 -37t49 -57.5t19 -87.5q0 -55 -20.5 -95.5t-54.5 -67t-78.5 -39.5t-91.5 -13q-67 0 -129.5 26t-103.5 77l77 65
q25 -37 67 -60t91 -23q25 0 50 7t45.5 22t33.5 37.5t13 54.5t-13.5 53.5t-36.5 36.5t-53.5 25.5t-64.5 21.5q-34 10 -67 24.5t-59 37t-42 55.5t-16 82q0 53 21.5 91t56 63t78 36.5t87.5 11.5q62 0 116 -22t87 -59z" />
    <glyph glyph-name="T" unicode="T" horiz-adv-x="569" 
d="M334 0h-99v621h-227v87h553v-87h-227v-621z" />
    <glyph glyph-name="U" unicode="U" horiz-adv-x="712" 
d="M356 -18q-70 0 -122 23.5t-86 62.5t-50.5 89.5t-16.5 104.5v446h99v-440q0 -36 9 -71.5t29.5 -63.5t54 -45t83.5 -17q49 0 83 17t54.5 45t29.5 63.5t9 71.5v440h99v-446q0 -54 -16.5 -104.5t-50.5 -89.5t-86 -62.5t-122 -23.5z" />
    <glyph glyph-name="V" unicode="V" horiz-adv-x="642" 
d="M321 128h3l213 580h107l-278 -708h-92l-276 708h110z" />
    <glyph glyph-name="W" unicode="W" horiz-adv-x="988" 
d="M273 144h2l166 564h109l165 -564h2l156 564h105l-208 -708h-103l-172 569h-2l-172 -569h-103l-208 708h107z" />
    <glyph glyph-name="X" unicode="X" horiz-adv-x="668" 
d="M334 444l168 264h116l-226 -335l257 -373h-125l-194 298l-190 -298h-122l253 375l-228 333h121z" />
    <glyph glyph-name="Y" unicode="Y" horiz-adv-x="624" 
d="M362 0h-100v306l-265 402h122l196 -320l197 320h115l-265 -402v-306z" />
    <glyph glyph-name="Z" unicode="Z" horiz-adv-x="592" 
d="M553 621l-400 -533h406v-88h-526v87l399 534h-391v87h512v-87z" />
    <glyph glyph-name="bracketleft" unicode="[" horiz-adv-x="315" 
d="M236 666h-93v-756h93v-66h-177v888h177v-66z" />
    <glyph glyph-name="backslash" unicode="\" horiz-adv-x="380" 
d="M4 716l70 26l308 -751l-71 -24z" />
    <glyph glyph-name="bracketright" unicode="]" horiz-adv-x="315" 
d="M79 -90h93v756h-93v66h177v-888h-177v66z" />
    <glyph glyph-name="asciicircum" unicode="^" horiz-adv-x="666" 
d="M300 708h66l226 -399h-91l-169 300l-167 -300h-91z" />
    <glyph glyph-name="underscore" unicode="_" horiz-adv-x="500" 
d="M0 -75h500v-63h-500v63z" />
    <glyph glyph-name="grave" unicode="`" 
d="M-34 708h113l100 -144h-77z" />
    <glyph glyph-name="a" unicode="a" horiz-adv-x="542" 
d="M376 307q0 53 -32 78.5t-85 25.5q-40 0 -75.5 -15.5t-59.5 -39.5l-50 60q35 33 85.5 52t108.5 19q51 0 88.5 -14.5t61.5 -39.5t36 -59t12 -73v-207q0 -24 1.5 -50.5t5.5 -43.5h-85q-8 34 -8 68h-3q-26 -38 -65.5 -59t-93.5 -21q-28 0 -58.5 7.5t-55.5 24.5t-41.5 45
t-16.5 69q0 54 29 85.5t76 48t106 21.5t119 5v13zM353 226q-35 0 -72.5 -3t-68 -12t-50.5 -27t-20 -48q0 -21 8.5 -35t22.5 -23t31 -12.5t35 -3.5q66 0 101.5 39.5t35.5 99.5v25h-23z" />
    <glyph glyph-name="b" unicode="b" horiz-adv-x="636" 
d="M174 75v-75h-91v756h94v-353h3q24 35 67 59.5t102 24.5q53 0 96.5 -19t75 -53t48.5 -79.5t17 -97.5t-17 -98t-48 -80t-75 -53.5t-99 -19.5q-51 0 -97 22.5t-74 65.5h-2zM489 238q0 33 -10 64t-30 55t-49.5 38t-68.5 14q-36 0 -65.5 -14t-50.5 -38t-32.5 -55t-11.5 -65
t11.5 -65t32.5 -54.5t50.5 -37.5t65.5 -14q39 0 68.5 14.5t49.5 38.5t30 55t10 64z" />
    <glyph glyph-name="c" unicode="c" horiz-adv-x="494" 
d="M413 354q-15 23 -45 38.5t-64 15.5q-37 0 -65.5 -14t-48.5 -37.5t-30.5 -54.5t-10.5 -65t10.5 -65t30.5 -54.5t49 -37.5t66 -14q36 0 65.5 14t48.5 38l63 -57q-30 -35 -75 -54.5t-102 -19.5q-55 0 -101.5 18t-80.5 50.5t-53.5 78.5t-19.5 103q0 56 19 102t53 79t80.5 51
t100.5 18q50 0 99.5 -20t78.5 -58z" />
    <glyph glyph-name="d" unicode="d" horiz-adv-x="635" 
d="M459 75q-27 -43 -73.5 -65.5t-97.5 -22.5q-55 0 -99 19.5t-75 53.5t-48 80t-17 98t17 97.5t48.5 79.5t75.5 53t97 19q58 0 101 -24.5t68 -59.5h2v353h94v-756h-91v75h-2zM147 238q0 -33 10 -64t30 -55t49 -38.5t68 -14.5q36 0 65.5 14t50.5 37.5t32.5 54.5t11.5 65
t-11.5 65t-32.5 55t-50.5 38t-65.5 14q-39 0 -68 -14t-49 -38t-30 -55t-10 -64z" />
    <glyph glyph-name="e" unicode="e" horiz-adv-x="573" 
d="M428 279q-1 28 -9.5 52.5t-25 42.5t-41 28.5t-57.5 10.5q-30 0 -56.5 -10.5t-46 -28.5t-32 -42.5t-14.5 -52.5h282zM523 241v-16t-1 -16h-376q1 -30 13.5 -56.5t33.5 -46t48.5 -30.5t58.5 -11q48 0 83 21t55 51l66 -53q-38 -50 -89.5 -73.5t-114.5 -23.5q-54 0 -100 18
t-79 50.5t-52 78.5t-19 102q0 55 18.5 101.5t51.5 79.5t78 51.5t97 18.5t94.5 -17t72 -49t45.5 -77.5t16 -102.5z" />
    <glyph glyph-name="f" unicode="f" horiz-adv-x="310" 
d="M304 397h-110v-397h-94v397h-94v77h94v99q0 42 9.5 77.5t31 61.5t55 41t81.5 15q34 0 59 -7l-11 -81q-11 3 -22 5t-25 2q-27 0 -43.5 -9.5t-25.5 -25.5t-12 -36.5t-3 -42.5v-99h110v-77z" />
    <glyph glyph-name="g" unicode="g" horiz-adv-x="632" 
d="M118 -81q31 -35 77.5 -56t95.5 -21q47 0 79 13.5t51.5 37t28 55.5t8.5 69v61h-2q-26 -40 -71 -61t-96 -21q-54 0 -98.5 19t-75.5 52t-48 77.5t-17 95.5t17 96t48 78.5t75 53t98 19.5q51 0 97.5 -22t73.5 -67h2v76h91v-450q0 -52 -13 -99.5t-44 -84t-81 -58.5t-124 -22
q-62 0 -124.5 22.5t-107.5 63.5zM147 242q0 -33 10.5 -63t31 -53t49.5 -37t66 -14q36 0 66 13t51 35.5t32.5 53t11.5 65.5q0 34 -11.5 64t-33 53t-51 36.5t-65.5 13.5q-37 0 -66 -13.5t-49.5 -36t-31 -53t-10.5 -64.5z" />
    <glyph glyph-name="h" unicode="h" horiz-adv-x="584" 
d="M179 402q17 35 58 60t92 25q46 0 79 -15.5t55 -41.5t32.5 -61t10.5 -75v-294h-94v262q0 29 -4.5 55t-16.5 46t-32.5 32t-53.5 12q-56 0 -92 -42.5t-36 -113.5v-251h-94v756h94v-354h2z" />
    <glyph glyph-name="i" unicode="i" horiz-adv-x="259" 
d="M176 0h-94v474h94v-474zM192 645q0 -26 -18.5 -43t-44.5 -17t-44 17.5t-18 42.5q0 26 18 43.5t44 17.5t44.5 -17.5t18.5 -43.5z" />
    <glyph glyph-name="j" unicode="j" horiz-adv-x="260" 
d="M-21 -154q20 -5 38 -5q21 0 34 8t20 21.5t9.5 32t2.5 39.5v532h94v-535q0 -36 -6.5 -68t-23.5 -57t-47 -39.5t-77 -14.5q-13 0 -28 2t-26 4zM193 645q0 -26 -18.5 -43t-44.5 -17t-44.5 17.5t-18.5 42.5q0 26 18.5 43.5t44.5 17.5t44.5 -17.5t18.5 -43.5z" />
    <glyph glyph-name="k" unicode="k" horiz-adv-x="527" 
d="M177 268h3l199 206h126l-222 -215l241 -259h-130l-214 246h-3v-246h-94v756h94v-488z" />
    <glyph glyph-name="l" unicode="l" horiz-adv-x="260" 
d="M177 0h-94v756h94v-756z" />
    <glyph glyph-name="m" unicode="m" horiz-adv-x="887" 
d="M173 396q18 38 57.5 64.5t93.5 26.5q48 0 86.5 -22t60.5 -73q24 46 67 70.5t94 24.5q46 0 79 -15.5t55 -41.5t32.5 -61t10.5 -75v-294h-94v263q0 29 -5 55t-17 46t-32 32t-51 12q-32 0 -55 -13.5t-37.5 -35t-21 -48.5t-6.5 -55v-256h-94v282q0 28 -5 51t-17 39.5t-31 26
t-47 9.5q-52 0 -86.5 -42.5t-34.5 -113.5v-252h-94v372q0 19 -1 49t-3 53h89q2 -18 3 -40.5t1 -37.5h3v0z" />
    <glyph glyph-name="n" unicode="n" horiz-adv-x="582" 
d="M166 474q2 -18 3 -40.5t1 -37.5h3q9 19 24.5 35.5t35.5 29t44 19.5t50 7q46 0 79 -15.5t55 -41.5t32.5 -61t10.5 -75v-294h-94v263q0 29 -4.5 55t-16.5 46t-33 32t-54 12q-56 0 -91.5 -42.5t-35.5 -113.5v-252h-94v372q0 19 -1 49t-3 53h89z" />
    <glyph glyph-name="o" unicode="o" horiz-adv-x="610" 
d="M561 238q0 -55 -19.5 -101t-54 -79.5t-81.5 -52t-101 -18.5t-101 18.5t-81 52t-53.5 79.5t-19.5 101t19.5 100.5t53.5 78.5t81 51.5t101 18.5t101 -18.5t81.5 -51.5t54 -78.5t19.5 -100.5zM463 238q0 34 -10.5 65t-30.5 54.5t-49.5 37.5t-67.5 14t-67.5 -14t-49.5 -37.5
t-30.5 -54.5t-10.5 -65t10.5 -65t30.5 -55t49.5 -38t67.5 -14t67.5 14t49.5 38t30.5 55t10.5 65z" />
    <glyph glyph-name="p" unicode="p" horiz-adv-x="634" 
d="M175 -240h-94v714h92v-74h3q23 38 67.5 62.5t103.5 24.5q53 0 96.5 -19t75 -53t48.5 -79.5t17 -97.5t-17 -98t-48 -80t-75 -53.5t-99 -19.5q-51 0 -96 22t-71 62h-3v-311zM487 238q0 33 -10 64t-30 55t-49.5 38t-68.5 14q-36 0 -65.5 -14t-50.5 -38t-32.5 -55t-11.5 -65
t11.5 -65t32.5 -54.5t50.5 -37.5t65.5 -14q39 0 68.5 14.5t49.5 38.5t30 55t10 64z" />
    <glyph glyph-name="q" unicode="q" horiz-adv-x="633" 
d="M456 71q-26 -40 -71.5 -62t-96.5 -22q-55 0 -99 19.5t-75 53.5t-48 80t-17 98t17 97.5t48.5 79.5t75.5 53t97 19q58 0 102.5 -24.5t68.5 -62.5h3v74h91v-714h-94v311h-2zM147 238q0 -33 10 -64t30 -55t49 -38.5t68 -14.5q36 0 65.5 14t50.5 37.5t32.5 54.5t11.5 65
t-11.5 65t-32.5 55t-50.5 38t-65.5 14q-39 0 -68 -14t-49 -38t-30 -55t-10 -64z" />
    <glyph glyph-name="r" unicode="r" horiz-adv-x="362" 
d="M81 372q0 19 -1 49t-3 53h89q2 -18 3 -41.5t1 -38.5h3q20 42 58.5 67.5t86.5 25.5q22 0 37 -4l-4 -87q-20 5 -43 5q-34 0 -59 -12.5t-41.5 -33.5t-24.5 -48.5t-8 -57.5v-249h-94v372v0z" />
    <glyph glyph-name="s" unicode="s" horiz-adv-x="444" 
d="M337 354q-16 26 -45 42.5t-65 16.5q-16 0 -32 -3.5t-28.5 -11t-20 -19t-7.5 -28.5q0 -30 27 -44.5t81 -26.5q34 -8 63 -19t50.5 -27.5t33.5 -39.5t12 -54q0 -42 -16 -71t-42.5 -47.5t-60.5 -26.5t-70 -8q-54 0 -105.5 21t-85.5 64l67 57q19 -28 52.5 -47t73.5 -19
q18 0 34.5 3.5t30 11.5t21.5 21t8 33q0 33 -31.5 49t-92.5 30q-24 6 -48.5 14.5t-44.5 23.5t-32.5 37.5t-12.5 55.5q0 38 15.5 65.5t40.5 45t57 26t66 8.5q51 0 98.5 -20t73.5 -58z" />
    <glyph glyph-name="t" unicode="t" horiz-adv-x="329" 
d="M313 397h-126v-247q0 -43 16 -61.5t51 -18.5q13 0 28 3t27 9l3 -77q-17 -6 -37.5 -9.5t-42.5 -3.5q-67 0 -102.5 37t-35.5 111v257h-91v77h91v136h93v-136h126v-77z" />
    <glyph glyph-name="u" unicode="u" horiz-adv-x="582" 
d="M415 0q-2 18 -3 40.5t-1 37.5h-2q-18 -38 -60.5 -64.5t-94.5 -26.5q-46 0 -79.5 15t-55 41.5t-32 61.5t-10.5 75v294h94v-262q0 -29 4.5 -55.5t16.5 -46.5t33 -32t54 -12q57 0 92 42.5t35 113.5v252h94v-372q0 -19 1 -49t3 -53h-89z" />
    <glyph glyph-name="v" unicode="v" horiz-adv-x="504" 
d="M304 0h-102l-193 474h104l139 -373h2l140 373h100z" />
    <glyph glyph-name="w" unicode="w" horiz-adv-x="773" 
d="M116 474l107 -362h2l113 362h99l115 -362h2l107 362h99l-157 -474h-98l-117 356h-2l-116 -356h-98l-158 474h102z" />
    <glyph glyph-name="x" unicode="x" horiz-adv-x="511" 
d="M197 249l-173 225h116l116 -163l117 163h110l-171 -224l191 -250h-117l-132 185l-134 -185h-113z" />
    <glyph glyph-name="y" unicode="y" horiz-adv-x="504" 
d="M261 102h2l131 372h100l-230 -586q-12 -30 -26 -53.5t-33 -40t-44.5 -25.5t-60.5 -9q-15 0 -30.5 1.5t-31.5 5.5l9 83q24 -8 47 -8q37 0 55 20.5t33 58.5l30 79l-203 474h105z" />
    <glyph glyph-name="z" unicode="z" horiz-adv-x="462" 
d="M419 397l-270 -318h281v-79h-397v77l268 320h-255v77h373v-77z" />
    <glyph glyph-name="braceleft" unicode="{" horiz-adv-x="315" 
d="M5 325q30 0 52 21t22 69v188q0 34 9.5 58.5t26 40.5t38 23t44.5 7h68v-69h-51q-17 0 -27 -6.5t-15 -17t-7 -23t-2 -25.5v-183q0 -33 -10.5 -55t-25.5 -35.5t-31 -20.5t-26 -8v-2q10 -1 26 -7t31 -19.5t25.5 -36.5t10.5 -59v-180q0 -13 2 -25.5t7 -23t15 -17t27 -6.5h51
v-69h-68q-23 0 -44.5 7t-38 23t-26 40t-9.5 59v184q0 51 -22 72.5t-52 21.5v74z" />
    <glyph glyph-name="bar" unicode="|" horiz-adv-x="222" 
d="M152 750v-1000h-82v1000h82z" />
    <glyph glyph-name="braceright" unicode="}" horiz-adv-x="315" 
d="M310 251q-30 0 -52 -21.5t-22 -72.5v-184q0 -35 -9.5 -59t-26 -40t-38 -23t-44.5 -7h-68v69h52q16 0 26 6.5t15 17t7 23t2 25.5v180q0 36 10.5 59t25.5 36.5t31 19.5t27 7v2q-11 1 -27 8t-31 20.5t-25.5 35.5t-10.5 55v183q0 13 -2 25.5t-7 23t-15 17t-26 6.5h-52v69h68
q23 0 44.5 -7t38 -23t26 -40.5t9.5 -58.5v-188q0 -48 22 -69t52 -21v-74v0z" />
    <glyph glyph-name="asciitilde" unicode="~" horiz-adv-x="666" 
d="M340 346q19 -12 33 -20t25 -12t20.5 -5.5t20.5 -1.5q50 0 87 68l59 -55q-18 -29 -36 -48t-36.5 -30t-36.5 -15t-35 -4q-29 0 -55 8t-61 30q-19 12 -32.5 19.5t-24.5 11.5t-20.5 5.5t-20.5 1.5q-50 0 -87 -68l-59 55q35 58 72.5 78t71.5 20q30 0 55.5 -8t59.5 -30z" />
    <glyph glyph-name="uni00A0" unicode="&#xa0;" 
 />
    <glyph glyph-name="exclamdown" unicode="&#xa1;" horiz-adv-x="334" 
d="M117 -221v501h99v-501h-99zM234 427q0 -27 -19 -46t-48 -19t-48 19.5t-19 46.5q0 26 19.5 45.5t47.5 19.5q29 0 48 -20t19 -46z" />
    <glyph glyph-name="cent" unicode="&#xa2;" horiz-adv-x="595" 
d="M299 403q-60 -11 -91.5 -57.5t-31.5 -108.5t32 -108t91 -58v332zM350 70q32 1 58.5 16t43.5 37l64 -60q-32 -37 -76 -55t-90 -20v-66h-51v67q-50 5 -90 26t-68 54t-43 76t-15 93t15 92.5t43 75t68 53t90 26.5v65h51v-64q47 -2 90.5 -19.5t75.5 -55.5l-66 -60
q-17 22 -42.5 36.5t-57.5 16.5v-334z" />
    <glyph glyph-name="sterling" unicode="&#xa3;" horiz-adv-x="595" 
d="M434 325h-166v-241h263v-84h-461v84h100v241h-97v72h97v88q0 40 11.5 82.5t38 78t70.5 58t109 22.5q48 0 90.5 -15t74.5 -45l-59 -67q-19 21 -47 33.5t-61 12.5q-40 0 -65 -16.5t-39.5 -41.5t-19.5 -54t-5 -54v-82h166v-72z" />
    <glyph glyph-name="currency" unicode="&#xa4;" horiz-adv-x="890" 
d="M661 465q48 -63 48 -156q0 -95 -51 -161l93 -93q-27 -29 -56 -56q-24 23 -48 46.5t-48 47.5q-31 -23 -69.5 -35t-83.5 -12q-86 0 -154 49l-98 -96l-28 28l-28 28l95 96q-23 31 -36 70.5t-13 87.5q0 45 12 83.5t34 70.5l-46 46l-46 46l57 56l93 -92q32 24 72 37t86 13
q91 0 157 -49l45.5 45.5l45.5 45.5l57 -56zM446 478q-37 0 -67 -13.5t-51.5 -36.5t-33 -54t-11.5 -65q0 -35 11.5 -66.5t33 -54.5t51.5 -36.5t67 -13.5t67.5 13.5t52 36.5t33 54.5t11.5 66.5q0 34 -11.5 65t-33 54t-52 36.5t-67.5 13.5z" />
    <glyph glyph-name="yen" unicode="&#xa5;" horiz-adv-x="595" 
d="M250 228v91h-170v66h145l-212 323h115l174 -294l170 294h110l-208 -323h141v-66h-170v-91h170v-66h-170v-162h-95v162h-170v66h170z" />
    <glyph glyph-name="brokenbar" unicode="&#xa6;" horiz-adv-x="222" 
d="M152 675v-350h-82v350h82zM152 175v-350h-82v350h82z" />
    <glyph glyph-name="section" unicode="&#xa7;" horiz-adv-x="595" 
d="M431 584q-14 26 -43 45t-68 19t-69 -20t-30 -58q0 -20 8.5 -35.5t24.5 -29t40 -25t55 -24.5q35 -15 65.5 -30.5t53 -36t35 -46.5t12.5 -60q0 -45 -25 -79.5t-60 -50.5q61 -41 61 -120q0 -44 -17.5 -76.5t-46 -53.5t-65 -31.5t-74.5 -10.5q-65 0 -123.5 28t-89.5 86l83 46
q17 -41 54 -59.5t76 -18.5q16 0 34.5 4.5t34.5 14t26 25.5t10 40q0 21 -8 36.5t-25.5 28.5t-44.5 25.5t-66 29.5q-32 14 -60.5 28.5t-49.5 32.5t-33.5 42t-12.5 58q0 52 29 87t71 52q-27 17 -48 44.5t-21 72.5q0 41 17 71.5t44.5 50.5t62.5 30t71 10q63 0 110.5 -24
t72.5 -66zM259 402q-12 -3 -25.5 -9.5t-24 -16t-17.5 -23t-7 -31.5q0 -19 7.5 -33t20.5 -24.5t30.5 -19t36.5 -17.5l84 -36q23 8 41 28.5t18 49.5q0 21 -7.5 36t-20 26.5t-28.5 20t-33 16.5z" />
    <glyph glyph-name="dieresis" unicode="&#xa8;" 
d="M-34 645q0 24 17.5 42.5t44.5 18.5q26 0 44 -17.5t18 -43.5q0 -25 -18 -42.5t-44 -17.5q-27 0 -44.5 18.5t-17.5 41.5zM160 645q0 24 17.5 42.5t44.5 18.5q26 0 44 -17.5t18 -43.5q0 -25 -18 -42.5t-44 -17.5q-27 0 -44.5 18.5t-17.5 41.5z" />
    <glyph glyph-name="copyright" unicode="&#xa9;" horiz-adv-x="800" 
d="M20 353q0 79 30 147.5t81.5 119.5t121 80.5t148.5 29.5q78 0 147 -29.5t120.5 -80.5t81.5 -119.5t30 -147.5q0 -78 -30 -146.5t-81.5 -119.5t-120.5 -80t-147 -29q-79 0 -148.5 29t-121 80t-81.5 119.5t-30 146.5zM80 353q0 -66 25.5 -124t69 -101.5t102 -68.5t124.5 -25
t124 25t101.5 68.5t68.5 101.5t25 124t-25 124.5t-68.5 102t-101.5 69t-124 25.5t-124.5 -25.5t-102 -69t-69 -102t-25.5 -124.5zM515 473q-17 23 -44.5 33.5t-53.5 10.5q-33 0 -60.5 -12t-47 -33t-30.5 -50t-11 -62q0 -71 39.5 -115t106.5 -44q35 0 61.5 13.5t43.5 36.5
l61 -43q-29 -36 -70.5 -56t-96.5 -20q-50 0 -92.5 16.5t-73 46.5t-47.5 72t-17 93q0 52 18 93.5t49.5 70.5t74 45t92.5 16q21 0 43 -4t43 -12t39 -20.5t31 -29.5z" />
    <glyph glyph-name="ordfeminine" unicode="&#xaa;" horiz-adv-x="380" 
d="M247 468h-1q-11 -19 -34.5 -31.5t-54.5 -12.5q-17 0 -35.5 4.5t-34.5 14.5t-26 27t-10 42q0 31 18 50t46 29.5t63 13.5t68 3v7q0 26 -19 39t-46 13q-23 0 -43.5 -9t-34.5 -23l-36 43q24 23 56 34t64 11q38 0 62.5 -10.5t39 -28t20 -39t5.5 -42.5v-172h-67v37zM246 560
h-16q-17 0 -36 -1.5t-35 -6.5t-26.5 -14t-10.5 -25q0 -21 15.5 -28.5t34.5 -7.5q36 0 55 19.5t19 53.5v10z" />
    <glyph glyph-name="guillemotleft" unicode="&#xab;" horiz-adv-x="500" 
d="M132 244l116 -175l-62 -43l-146 218l146 217l61 -42zM335 244l115 -175l-61 -43l-146 218l146 217l61 -42z" />
    <glyph glyph-name="logicalnot" unicode="&#xac;" horiz-adv-x="666" 
d="M596 139h-81v206h-445v81h526v-287z" />
    <glyph glyph-name="uni00AD" unicode="&#xad;" horiz-adv-x="320" 
d="M276 204h-232v80h232v-80z" />
    <glyph glyph-name="registered" unicode="&#xae;" horiz-adv-x="600" 
d="M311 511q14 0 25.5 9t11.5 24q0 16 -13 23t-24 7h-47v-63h47zM355 368l-55 99h-36v-99h-61v256h110q18 0 35 -4t31 -13t22.5 -24.5t8.5 -38.5q0 -26 -14.5 -43t-36.5 -25l68 -108h-72zM72 493q0 47 18 88.5t49 72t72.5 48.5t88.5 18t88.5 -18t72.5 -48.5t49 -72t18 -88.5
t-18 -88t-49 -71.5t-72.5 -48t-88.5 -17.5t-88.5 17.5t-72.5 48t-49 71.5t-18 88zM108 493q0 -39 15 -74t41 -61.5t61 -41.5t75 -15t75 15t61 41.5t41 61.5t15 74q0 40 -15 75t-41 61t-61 41t-75 15t-75 -15t-61 -41t-41 -61t-15 -75z" />
    <glyph glyph-name="macron" unicode="&#xaf;" 
d="M273 597h-296v67h296v-67z" />
    <glyph glyph-name="degree" unicode="&#xb0;" horiz-adv-x="400" 
d="M355 565q0 -33 -12 -61t-33 -48.5t-49 -32.5t-61 -12t-61 12t-49 32.5t-33 48.5t-12 61t12 61t33 49t49 33t61 12t61 -12t49 -33t33 -49t12 -61zM291 565q0 19 -7 36t-19.5 29.5t-29 19.5t-35.5 7t-35.5 -7t-29 -19.5t-19.5 -29.5t-7 -36q0 -38 26.5 -64.5t64.5 -26.5
t64.5 26.5t26.5 64.5z" />
    <glyph glyph-name="plusminus" unicode="&#xb1;" horiz-adv-x="666" 
d="M70 419h223v150h81v-150h222v-81h-222v-147h-81v147h-223v81zM70 121h526v-81h-526v81z" />
    <glyph glyph-name="uni00B2" unicode="&#xb2;" horiz-adv-x="385" 
d="M333 450h-283v67l164 165q16 17 28 35.5t12 42.5q0 26 -17 40.5t-43 14.5q-27 0 -45 -18.5t-23 -49.5l-74 10q8 55 47 90.5t95 35.5q27 0 52 -7.5t44 -23t30.5 -38.5t11.5 -54q0 -43 -21.5 -73t-48.5 -56l-114 -112h185v-69z" />
    <glyph glyph-name="uni00B3" unicode="&#xb3;" horiz-adv-x="385" 
d="M143 701h27q32 0 56 14t24 49q0 24 -18 38.5t-43 14.5q-22 0 -39.5 -14t-26.5 -37l-68 23q18 45 54.5 69.5t81.5 24.5q28 0 52.5 -7t43 -21.5t29 -36.5t10.5 -51q0 -34 -18 -58t-44 -35q32 -10 52.5 -37t20.5 -64q0 -33 -12.5 -57t-33 -40.5t-46.5 -24.5t-54 -8
q-51 0 -91 24.5t-60 80.5l71 22q9 -27 29 -43.5t49 -16.5q27 0 50 15.5t23 49.5q0 19 -8.5 31t-21.5 19.5t-29.5 10.5t-32.5 3h-27v62z" />
    <glyph glyph-name="acute" unicode="&#xb4;" 
d="M148 564h-77l100 144h113z" />
    <glyph glyph-name="mu" unicode="&#xb5;" horiz-adv-x="603" 
d="M568 -2q-19 -4 -31 -5t-27 -1q-49 0 -71 23t-24 63h-2q-18 -38 -54.5 -64.5t-84.5 -26.5q-35 0 -60.5 11t-36.5 29h-2v-267h-94v714h94v-262q0 -29 4.5 -55.5t16.5 -46.5t33 -32t54 -12q57 0 92 42.5t35 113.5v252h94v-369q0 -16 6 -25.5t26 -9.5q8 0 13.5 0.5t12.5 2.5z
" />
    <glyph glyph-name="paragraph" unicode="&#xb6;" horiz-adv-x="600" 
d="M523 -126h-78v771h-115v-771h-79v453q-47 0 -86 14t-67 39t-43.5 58.5t-15.5 72.5q0 99 63 148t168 49h253v-834z" />
    <glyph glyph-name="periodcentered" unicode="&#xb7;" horiz-adv-x="260" 
d="M198 303q0 -26 -19 -46t-48 -20t-48.5 19.5t-19.5 45.5q0 27 19.5 47t48.5 20q28 0 47.5 -19.5t19.5 -46.5z" />
    <glyph glyph-name="cedilla" unicode="&#xb8;" 
d="M121 -69q7 2 13 2h14q17 0 33.5 -4t30 -13t22 -24t8.5 -37q0 -26 -12 -43.5t-30.5 -28t-41 -14.5t-43.5 -4q-26 0 -54 6t-49 17l20 42q37 -17 77 -17q8 0 18.5 2t20 6.5t16 12.5t6.5 21q0 22 -17 30t-37 8q-9 0 -20 -2t-21 -5l-20 20l62 94h50z" />
    <glyph glyph-name="uni00B9" unicode="&#xb9;" horiz-adv-x="385" 
d="M247 450h-78v332l-68 -59l-46 51l125 102h67v-426z" />
    <glyph glyph-name="ordmasculine" unicode="&#xba;" horiz-adv-x="380" 
d="M342 574q0 -32 -11.5 -59.5t-31.5 -47t-48 -30.5t-61 -11t-61 11t-48 30.5t-31.5 47t-11.5 59.5q0 33 11.5 60t31.5 46.5t48 30.5t61 11t61 -11t48 -30.5t31.5 -46.5t11.5 -60zM267 574q0 33 -19.5 57.5t-57.5 24.5t-57 -24.5t-19 -57.5q0 -32 19 -57t57 -25t57.5 25
t19.5 57z" />
    <glyph glyph-name="guillemotright" unicode="&#xbb;" horiz-adv-x="500" 
d="M314 461l146 -217l-146 -218l-62 43l116 175l-115 175zM111 461l146 -217l-146 -218l-61 43l115 175l-115 175z" />
    <glyph glyph-name="onequarter" unicode="&#xbc;" horiz-adv-x="870" 
d="M746 158h59v-67h-59v-91h-71v91h-189v64l177 271h83v-268zM672 332l-109 -174h112v174h-3zM247 282h-78v332l-68 -59l-46 51l125 102h67v-426zM227 -35l-58 31l451 743l57 -31z" />
    <glyph glyph-name="onehalf" unicode="&#xbd;" horiz-adv-x="870" 
d="M247 282h-78v332l-68 -59l-46 51l125 102h67v-426zM811 0h-283v67l164 165q16 17 28 35.5t12 42.5q0 26 -17 40.5t-43 14.5q-27 0 -45 -18.5t-23 -49.5l-74 10q8 55 47 90.5t95 35.5q27 0 52 -7.5t44 -23t30.5 -38.5t11.5 -54q0 -43 -21.5 -73t-48.5 -56l-114 -112h185
v-69zM227 -35l-58 31l451 743l57 -31z" />
    <glyph glyph-name="threequarters" unicode="&#xbe;" horiz-adv-x="870" 
d="M746 158h59v-67h-59v-91h-71v91h-189v64l177 271h83v-268zM672 332l-109 -174h112v174h-3zM227 -35l-58 31l451 743l57 -31zM143 538h27q32 0 56 14t24 49q0 24 -18 38.5t-43 14.5q-22 0 -39.5 -14t-26.5 -37l-68 23q18 45 54.5 69.5t81.5 24.5q28 0 52.5 -7t43 -21.5
t29 -36.5t10.5 -51q0 -34 -18 -58t-44 -35q32 -10 52.5 -37t20.5 -64q0 -33 -12.5 -57t-33 -40.5t-46.5 -24.5t-54 -8q-51 0 -91 24.5t-60 80.5l71 22q9 -27 29 -43.5t49 -16.5q27 0 50 15.5t23 49.5q0 19 -8.5 31t-21.5 19.5t-29.5 10.5t-32.5 3h-27v62z" />
    <glyph glyph-name="questiondown" unicode="&#xbf;" horiz-adv-x="500" 
d="M205 286h94v-48q0 -26 -5 -47t-14.5 -38t-23 -32.5t-30.5 -31.5l-37 -35q-22 -19 -36.5 -41.5t-14.5 -57.5q0 -48 30.5 -76.5t78.5 -28.5q50 0 80 32t35 78l96 -11q-6 -43 -25 -77.5t-47.5 -58.5t-65.5 -36.5t-79 -12.5t-78.5 12t-64.5 35.5t-44 58t-16 79.5q0 32 7 56
t19.5 43.5t30.5 36.5t39 35q20 17 33.5 30.5t22 27.5t12 31t3.5 42v35zM180 427q0 26 19 46t48 20q28 0 47.5 -19.5t19.5 -45.5q0 -27 -19 -46.5t-48 -19.5t-48 19t-19 46z" />
    <glyph glyph-name="Agrave" unicode="&#xc0;" horiz-adv-x="711" 
d="M115 0h-110l307 708h90l304 -708h-112l-72 174h-336zM221 261h265l-132 332zM183 908h114l100 -144h-77z" />
    <glyph glyph-name="Aacute" unicode="&#xc1;" horiz-adv-x="711" 
d="M115 0h-110l307 708h90l304 -708h-112l-72 174h-336zM221 261h265l-132 332zM398 764h-76l99 144h114z" />
    <glyph glyph-name="Acircumflex" unicode="&#xc2;" horiz-adv-x="711" 
d="M115 0h-110l307 708h90l304 -708h-112l-72 174h-336zM221 261h265l-132 332zM525 764h-91l-75 99l-76 -99h-90l112 144h108z" />
    <glyph glyph-name="Atilde" unicode="&#xc3;" horiz-adv-x="711" 
d="M115 0h-110l307 708h90l304 -708h-112l-72 174h-336zM221 261h265l-132 332zM185 772q4 22 10.5 42.5t18.5 37t29.5 26.5t43.5 10q19 0 38.5 -6t36.5 -14q20 -9 36.5 -15.5t30.5 -6.5q22 0 32.5 14.5t15.5 31.5h54q-4 -22 -10.5 -42.5t-18.5 -37t-30 -26.5t-43 -10
q-19 0 -39 6.5t-38 14.5q-18 9 -34.5 15t-30.5 6q-21 0 -31.5 -14.5t-15.5 -31.5h-55z" />
    <glyph glyph-name="Adieresis" unicode="&#xc4;" horiz-adv-x="711" 
d="M115 0h-110l307 708h90l304 -708h-112l-72 174h-336zM221 261h265l-132 332zM198 845q0 24 17.5 42.5t44.5 18.5q26 0 44 -17.5t18 -43.5q0 -25 -18 -42.5t-44 -17.5q-27 0 -44.5 18.5t-17.5 41.5zM392 845q0 24 17.5 42.5t44.5 18.5q26 0 44 -17.5t18 -43.5
q0 -25 -18 -42.5t-44 -17.5q-27 0 -44.5 18.5t-17.5 41.5z" />
    <glyph glyph-name="Aring" unicode="&#xc5;" horiz-adv-x="711" 
d="M115 0h-110l307 708h90l304 -708h-112l-72 174h-336zM221 261h265l-132 332zM459 853q0 -43 -29.5 -71t-71.5 -28q-21 0 -39 7.5t-31.5 20.5t-21.5 31t-8 39q0 43 29 71t71 28t71.5 -28t29.5 -70zM418 853q0 25 -17.5 41.5t-42.5 16.5t-42 -17t-17 -42q0 -24 17 -40.5
t42 -16.5t42.5 16.5t17.5 41.5z" />
    <glyph glyph-name="AE" unicode="&#xc6;" horiz-adv-x="1015" 
d="M623 88h346v-88h-445v192h-283l-121 -192h-118l457 708h495v-87h-331v-212h310v-85h-310v-236zM524 278v343h-14l-217 -343h231z" />
    <glyph glyph-name="Ccedilla" unicode="&#xc7;" horiz-adv-x="708" 
d="M693 110q-40 -54 -104 -89t-152 -38l-34 -52q7 2 13 2h14q17 0 33.5 -4t30 -13t22 -24t8.5 -37q0 -26 -12 -43.5t-30.5 -28t-41 -14.5t-43.5 -4q-26 0 -54 6t-49 17l20 42q37 -17 77 -17q8 0 18.5 2t20 6.5t16 12.5t6.5 21q0 22 -17 30t-37 8q-9 0 -20 -2t-21 -5l-20 20
l51 78q-75 6 -137 35.5t-106.5 78.5t-69.5 114.5t-25 142.5q0 83 28.5 151.5t79 117t119.5 75.5t150 27q36 0 73 -7t71 -21t62 -34.5t48 -47.5l-78 -60q-26 36 -73.5 59.5t-102.5 23.5q-62 0 -111.5 -22.5t-84.5 -61.5t-54 -90.5t-19 -109.5q0 -60 18.5 -112t53 -90.5
t84 -60.5t110.5 -22q60 0 109 24t81 70z" />
    <glyph glyph-name="Egrave" unicode="&#xc8;" horiz-adv-x="601" 
d="M185 88h370v-88h-469v708h454v-87h-355v-212h334v-85h-334v-236zM176 908h114l100 -144h-77z" />
    <glyph glyph-name="Eacute" unicode="&#xc9;" horiz-adv-x="601" 
d="M185 88h370v-88h-469v708h454v-87h-355v-212h334v-85h-334v-236zM338 764h-76l99 144h114z" />
    <glyph glyph-name="Ecircumflex" unicode="&#xca;" horiz-adv-x="601" 
d="M185 88h370v-88h-469v708h454v-87h-355v-212h334v-85h-334v-236zM484 764h-91l-75 99l-76 -99h-90l112 144h108z" />
    <glyph glyph-name="Edieresis" unicode="&#xcb;" horiz-adv-x="601" 
d="M185 88h370v-88h-469v708h454v-87h-355v-212h334v-85h-334v-236zM158 845q0 24 17.5 42.5t44.5 18.5q26 0 44 -17.5t18 -43.5q0 -25 -18 -42.5t-44 -17.5q-27 0 -44.5 18.5t-17.5 41.5zM352 845q0 24 17.5 42.5t44.5 18.5q26 0 44 -17.5t18 -43.5q0 -25 -18 -42.5
t-44 -17.5q-27 0 -44.5 18.5t-17.5 41.5z" />
    <glyph glyph-name="Igrave" unicode="&#xcc;" horiz-adv-x="271" 
d="M185 0h-99v708h99v-708zM-28 908h114l100 -144h-77z" />
    <glyph glyph-name="Iacute" unicode="&#xcd;" horiz-adv-x="271" 
d="M185 0h-99v708h99v-708zM161 764h-76l99 144h114z" />
    <glyph glyph-name="Icircumflex" unicode="&#xce;" horiz-adv-x="271" 
d="M185 0h-99v708h99v-708zM300 764h-91l-75 99l-76 -99h-90l112 144h108z" />
    <glyph glyph-name="Idieresis" unicode="&#xcf;" horiz-adv-x="271" 
d="M185 0h-99v708h99v-708zM-23 845q0 24 17.5 42.5t44.5 18.5q26 0 44 -17.5t18 -43.5q0 -25 -18 -42.5t-44 -17.5q-27 0 -44.5 18.5t-17.5 41.5zM171 845q0 24 17.5 42.5t44.5 18.5q26 0 44 -17.5t18 -43.5q0 -25 -18 -42.5t-44 -17.5q-27 0 -44.5 18.5t-17.5 41.5z" />
    <glyph glyph-name="Eth" unicode="&#xd0;" horiz-adv-x="761" 
d="M82 335h-69v70h69v303h258q68 0 133.5 -22t117.5 -66t83.5 -110.5t31.5 -155.5q0 -90 -34 -156.5t-88 -110.5t-120.5 -65.5t-131.5 -21.5h-250v335zM182 90h117q70 0 125.5 19t94.5 53.5t60 83t21 108.5t-19.5 108.5t-56.5 83t-91.5 53.5t-123.5 19h-127v-213h237v-70
h-237v-245z" />
    <glyph glyph-name="Ntilde" unicode="&#xd1;" horiz-adv-x="772" 
d="M585 142h2v566h99v-708h-125l-374 578h-2v-578h-99v708h129zM211 772q4 22 10.5 42.5t18.5 37t29.5 26.5t43.5 10q19 0 38.5 -6t36.5 -14q20 -9 36.5 -15.5t30.5 -6.5q22 0 32.5 14.5t15.5 31.5h54q-4 -22 -10.5 -42.5t-18.5 -37t-30 -26.5t-43 -10q-19 0 -39 6.5
t-38 14.5q-18 9 -34.5 15t-30.5 6q-21 0 -31.5 -14.5t-15.5 -31.5h-55z" />
    <glyph glyph-name="Ograve" unicode="&#xd2;" horiz-adv-x="849" 
d="M800 355q0 -82 -28.5 -150.5t-78.5 -118t-119 -77t-150 -27.5t-149.5 27.5t-118.5 77t-78 118t-28 150.5q0 83 28 151.5t78 117t118.5 75.5t149.5 27t150 -27t119 -75.5t78.5 -117t28.5 -151.5zM693 355q0 58 -19 109.5t-54 90.5t-84.5 61.5t-111.5 22.5
q-61 0 -110.5 -22.5t-84 -61.5t-53.5 -90.5t-19 -109.5q0 -59 19 -111t54 -90.5t84 -60.5t110 -22t111 22t85 60.5t54 90.5t19 111zM272 908h114l100 -144h-77z" />
    <glyph glyph-name="Oacute" unicode="&#xd3;" horiz-adv-x="849" 
d="M800 355q0 -82 -28.5 -150.5t-78.5 -118t-119 -77t-150 -27.5t-149.5 27.5t-118.5 77t-78 118t-28 150.5q0 83 28 151.5t78 117t118.5 75.5t149.5 27t150 -27t119 -75.5t78.5 -117t28.5 -151.5zM693 355q0 58 -19 109.5t-54 90.5t-84.5 61.5t-111.5 22.5
q-61 0 -110.5 -22.5t-84 -61.5t-53.5 -90.5t-19 -109.5q0 -59 19 -111t54 -90.5t84 -60.5t110 -22t111 22t85 60.5t54 90.5t19 111zM447 764h-76l99 144h114z" />
    <glyph glyph-name="Ocircumflex" unicode="&#xd4;" horiz-adv-x="849" 
d="M800 355q0 -82 -28.5 -150.5t-78.5 -118t-119 -77t-150 -27.5t-149.5 27.5t-118.5 77t-78 118t-28 150.5q0 83 28 151.5t78 117t118.5 75.5t149.5 27t150 -27t119 -75.5t78.5 -117t28.5 -151.5zM693 355q0 58 -19 109.5t-54 90.5t-84.5 61.5t-111.5 22.5
q-61 0 -110.5 -22.5t-84 -61.5t-53.5 -90.5t-19 -109.5q0 -59 19 -111t54 -90.5t84 -60.5t110 -22t111 22t85 60.5t54 90.5t19 111zM590 764h-91l-75 99l-76 -99h-90l112 144h108z" />
    <glyph glyph-name="Otilde" unicode="&#xd5;" horiz-adv-x="849" 
d="M800 355q0 -82 -28.5 -150.5t-78.5 -118t-119 -77t-150 -27.5t-149.5 27.5t-118.5 77t-78 118t-28 150.5q0 83 28 151.5t78 117t118.5 75.5t149.5 27t150 -27t119 -75.5t78.5 -117t28.5 -151.5zM693 355q0 58 -19 109.5t-54 90.5t-84.5 61.5t-111.5 22.5
q-61 0 -110.5 -22.5t-84 -61.5t-53.5 -90.5t-19 -109.5q0 -59 19 -111t54 -90.5t84 -60.5t110 -22t111 22t85 60.5t54 90.5t19 111zM251 772q4 22 10.5 42.5t18.5 37t29.5 26.5t43.5 10q19 0 38.5 -6t36.5 -14q20 -9 36.5 -15.5t30.5 -6.5q22 0 32.5 14.5t15.5 31.5h54
q-4 -22 -10.5 -42.5t-18.5 -37t-30 -26.5t-43 -10q-19 0 -39 6.5t-38 14.5q-18 9 -34.5 15t-30.5 6q-21 0 -31.5 -14.5t-15.5 -31.5h-55z" />
    <glyph glyph-name="Odieresis" unicode="&#xd6;" horiz-adv-x="849" 
d="M800 355q0 -82 -28.5 -150.5t-78.5 -118t-119 -77t-150 -27.5t-149.5 27.5t-118.5 77t-78 118t-28 150.5q0 83 28 151.5t78 117t118.5 75.5t149.5 27t150 -27t119 -75.5t78.5 -117t28.5 -151.5zM693 355q0 58 -19 109.5t-54 90.5t-84.5 61.5t-111.5 22.5
q-61 0 -110.5 -22.5t-84 -61.5t-53.5 -90.5t-19 -109.5q0 -59 19 -111t54 -90.5t84 -60.5t110 -22t111 22t85 60.5t54 90.5t19 111zM265 845q0 24 17.5 42.5t44.5 18.5q26 0 44 -17.5t18 -43.5q0 -25 -18 -42.5t-44 -17.5q-27 0 -44.5 18.5t-17.5 41.5zM459 845
q0 24 17.5 42.5t44.5 18.5q26 0 44 -17.5t18 -43.5q0 -25 -18 -42.5t-44 -17.5q-27 0 -44.5 18.5t-17.5 41.5z" />
    <glyph glyph-name="multiply" unicode="&#xd7;" horiz-adv-x="666" 
d="M333 360l170 171l57 -56l-170 -171l172 -173l-59 -58l-171 170l-170 -170l-58 58l172 170l-171 174l57 56z" />
    <glyph glyph-name="Oslash" unicode="&#xd8;" horiz-adv-x="849" 
d="M699 617q48 -49 74.5 -115t26.5 -147q0 -82 -28.5 -150t-78.5 -117.5t-119 -77t-150 -28.5q-70 0 -130 20.5t-108 58.5l-81 -87l-43 39l81 88q-45 48 -69 113t-24 141q0 83 28 151.5t78 117t118.5 75.5t149.5 27q66 0 124.5 -18t105.5 -53l81 87l43 -39zM592 585
q-31 26 -73.5 40.5t-94.5 14.5q-63 0 -113 -22.5t-85 -61t-53.5 -90.5t-18.5 -111q0 -109 57 -181zM251 130q33 -29 76 -45t97 -16q62 0 112.5 22.5t86 61t54.5 90.5t19 112q0 54 -15.5 102.5t-46.5 86.5z" />
    <glyph glyph-name="Ugrave" unicode="&#xd9;" horiz-adv-x="712" 
d="M356 -18q-70 0 -122 23.5t-86 62.5t-50.5 89.5t-16.5 104.5v446h99v-440q0 -36 9 -71.5t29.5 -63.5t54 -45t83.5 -17q49 0 83 17t54.5 45t29.5 63.5t9 71.5v440h99v-446q0 -54 -16.5 -104.5t-50.5 -89.5t-86 -62.5t-122 -23.5zM186 908h114l100 -144h-77z" />
    <glyph glyph-name="Uacute" unicode="&#xda;" horiz-adv-x="712" 
d="M356 -18q-70 0 -122 23.5t-86 62.5t-50.5 89.5t-16.5 104.5v446h99v-440q0 -36 9 -71.5t29.5 -63.5t54 -45t83.5 -17q49 0 83 17t54.5 45t29.5 63.5t9 71.5v440h99v-446q0 -54 -16.5 -104.5t-50.5 -89.5t-86 -62.5t-122 -23.5zM371 764h-76l99 144h114z" />
    <glyph glyph-name="Ucircumflex" unicode="&#xdb;" horiz-adv-x="712" 
d="M356 -18q-70 0 -122 23.5t-86 62.5t-50.5 89.5t-16.5 104.5v446h99v-440q0 -36 9 -71.5t29.5 -63.5t54 -45t83.5 -17q49 0 83 17t54.5 45t29.5 63.5t9 71.5v440h99v-446q0 -54 -16.5 -104.5t-50.5 -89.5t-86 -62.5t-122 -23.5zM520 764h-91l-75 99l-76 -99h-90l112 144
h108z" />
    <glyph glyph-name="Udieresis" unicode="&#xdc;" horiz-adv-x="712" 
d="M356 -18q-70 0 -122 23.5t-86 62.5t-50.5 89.5t-16.5 104.5v446h99v-440q0 -36 9 -71.5t29.5 -63.5t54 -45t83.5 -17q49 0 83 17t54.5 45t29.5 63.5t9 71.5v440h99v-446q0 -54 -16.5 -104.5t-50.5 -89.5t-86 -62.5t-122 -23.5zM197 845q0 24 17.5 42.5t44.5 18.5
q26 0 44 -17.5t18 -43.5q0 -25 -18 -42.5t-44 -17.5q-27 0 -44.5 18.5t-17.5 41.5zM391 845q0 24 17.5 42.5t44.5 18.5q26 0 44 -17.5t18 -43.5q0 -25 -18 -42.5t-44 -17.5q-27 0 -44.5 18.5t-17.5 41.5z" />
    <glyph glyph-name="Yacute" unicode="&#xdd;" horiz-adv-x="624" 
d="M362 0h-100v306l-265 402h122l196 -320l197 320h115l-265 -402v-306zM345 764h-76l99 144h114z" />
    <glyph glyph-name="Thorn" unicode="&#xde;" horiz-adv-x="595" 
d="M86 708h99v-146h117q57 0 104 -12t80 -36.5t51 -61.5t18 -87q0 -54 -19.5 -92t-54 -62t-82 -35t-102.5 -11h-112v-165h-99v708zM185 250h102q36 0 66.5 6t52.5 19.5t34 35t12 53.5q0 31 -12.5 52.5t-34 35t-51.5 19.5t-65 6h-104v-227z" />
    <glyph glyph-name="germandbls" unicode="&#xdf;" horiz-adv-x="612" 
d="M174 0h-94v525q0 45 11.5 89t38 78t70 55t107.5 21q43 0 80 -13.5t64.5 -38t43 -58.5t15.5 -76q0 -56 -29.5 -96.5t-81.5 -57.5v-2q38 -6 69 -23t52.5 -43.5t33.5 -61.5t12 -76q0 -52 -17 -95t-48.5 -74t-76.5 -48t-101 -17q-34 0 -71 8v79q11 -3 28.5 -5t30.5 -2
q72 0 115 42t43 116q0 39 -13 68.5t-36.5 48.5t-55 28.5t-68.5 9.5h-11v82h11q53 0 86.5 28t33.5 82q0 49 -30.5 80.5t-82.5 31.5q-40 0 -65 -15.5t-39.5 -39.5t-19.5 -53t-5 -56v-521z" />
    <glyph glyph-name="agrave" unicode="&#xe0;" horiz-adv-x="542" 
d="M376 307q0 53 -32 78.5t-85 25.5q-40 0 -75.5 -15.5t-59.5 -39.5l-50 60q35 33 85.5 52t108.5 19q51 0 88.5 -14.5t61.5 -39.5t36 -59t12 -73v-207q0 -24 1.5 -50.5t5.5 -43.5h-85q-8 34 -8 68h-3q-26 -38 -65.5 -59t-93.5 -21q-28 0 -58.5 7.5t-55.5 24.5t-41.5 45
t-16.5 69q0 54 29 85.5t76 48t106 21.5t119 5v13zM353 226q-35 0 -72.5 -3t-68 -12t-50.5 -27t-20 -48q0 -21 8.5 -35t22.5 -23t31 -12.5t35 -3.5q66 0 101.5 39.5t35.5 99.5v25h-23zM120 708h113l100 -144h-77z" />
    <glyph glyph-name="aacute" unicode="&#xe1;" horiz-adv-x="542" 
d="M376 307q0 53 -32 78.5t-85 25.5q-40 0 -75.5 -15.5t-59.5 -39.5l-50 60q35 33 85.5 52t108.5 19q51 0 88.5 -14.5t61.5 -39.5t36 -59t12 -73v-207q0 -24 1.5 -50.5t5.5 -43.5h-85q-8 34 -8 68h-3q-26 -38 -65.5 -59t-93.5 -21q-28 0 -58.5 7.5t-55.5 24.5t-41.5 45
t-16.5 69q0 54 29 85.5t76 48t106 21.5t119 5v13zM353 226q-35 0 -72.5 -3t-68 -12t-50.5 -27t-20 -48q0 -21 8.5 -35t22.5 -23t31 -12.5t35 -3.5q66 0 101.5 39.5t35.5 99.5v25h-23zM304 564h-77l100 144h113z" />
    <glyph glyph-name="acircumflex" unicode="&#xe2;" horiz-adv-x="542" 
d="M376 307q0 53 -32 78.5t-85 25.5q-40 0 -75.5 -15.5t-59.5 -39.5l-50 60q35 33 85.5 52t108.5 19q51 0 88.5 -14.5t61.5 -39.5t36 -59t12 -73v-207q0 -24 1.5 -50.5t5.5 -43.5h-85q-8 34 -8 68h-3q-26 -38 -65.5 -59t-93.5 -21q-28 0 -58.5 7.5t-55.5 24.5t-41.5 45
t-16.5 69q0 54 29 85.5t76 48t106 21.5t119 5v13zM353 226q-35 0 -72.5 -3t-68 -12t-50.5 -27t-20 -48q0 -21 8.5 -35t22.5 -23t31 -12.5t35 -3.5q66 0 101.5 39.5t35.5 99.5v25h-23zM434 564h-91l-75 99l-76 -99h-90l112 144h108z" />
    <glyph glyph-name="atilde" unicode="&#xe3;" horiz-adv-x="542" 
d="M376 307q0 53 -32 78.5t-85 25.5q-40 0 -75.5 -15.5t-59.5 -39.5l-50 60q35 33 85.5 52t108.5 19q51 0 88.5 -14.5t61.5 -39.5t36 -59t12 -73v-207q0 -24 1.5 -50.5t5.5 -43.5h-85q-8 34 -8 68h-3q-26 -38 -65.5 -59t-93.5 -21q-28 0 -58.5 7.5t-55.5 24.5t-41.5 45
t-16.5 69q0 54 29 85.5t76 48t106 21.5t119 5v13zM353 226q-35 0 -72.5 -3t-68 -12t-50.5 -27t-20 -48q0 -21 8.5 -35t22.5 -23t31 -12.5t35 -3.5q66 0 101.5 39.5t35.5 99.5v25h-23zM95 572q4 22 10.5 42.5t18.5 37t29.5 26.5t43.5 10q19 0 38.5 -6t36.5 -14
q20 -9 36.5 -15.5t30.5 -6.5q22 0 32.5 14.5t15.5 31.5h54q-4 -22 -10.5 -42.5t-18.5 -37t-30 -26.5t-43 -10q-19 0 -39 6.5t-38 14.5q-18 9 -34.5 15t-30.5 6q-21 0 -31.5 -14.5t-15.5 -31.5h-55z" />
    <glyph glyph-name="adieresis" unicode="&#xe4;" horiz-adv-x="542" 
d="M376 307q0 53 -32 78.5t-85 25.5q-40 0 -75.5 -15.5t-59.5 -39.5l-50 60q35 33 85.5 52t108.5 19q51 0 88.5 -14.5t61.5 -39.5t36 -59t12 -73v-207q0 -24 1.5 -50.5t5.5 -43.5h-85q-8 34 -8 68h-3q-26 -38 -65.5 -59t-93.5 -21q-28 0 -58.5 7.5t-55.5 24.5t-41.5 45
t-16.5 69q0 54 29 85.5t76 48t106 21.5t119 5v13zM353 226q-35 0 -72.5 -3t-68 -12t-50.5 -27t-20 -48q0 -21 8.5 -35t22.5 -23t31 -12.5t35 -3.5q66 0 101.5 39.5t35.5 99.5v25h-23zM110 645q0 24 17.5 42.5t44.5 18.5q26 0 44 -17.5t18 -43.5q0 -25 -18 -42.5t-44 -17.5
q-27 0 -44.5 18.5t-17.5 41.5zM304 645q0 24 17.5 42.5t44.5 18.5q26 0 44 -17.5t18 -43.5q0 -25 -18 -42.5t-44 -17.5q-27 0 -44.5 18.5t-17.5 41.5z" />
    <glyph glyph-name="aring" unicode="&#xe5;" horiz-adv-x="542" 
d="M376 307q0 53 -32 78.5t-85 25.5q-40 0 -75.5 -15.5t-59.5 -39.5l-50 60q35 33 85.5 52t108.5 19q51 0 88.5 -14.5t61.5 -39.5t36 -59t12 -73v-207q0 -24 1.5 -50.5t5.5 -43.5h-85q-8 34 -8 68h-3q-26 -38 -65.5 -59t-93.5 -21q-28 0 -58.5 7.5t-55.5 24.5t-41.5 45
t-16.5 69q0 54 29 85.5t76 48t106 21.5t119 5v13zM353 226q-35 0 -72.5 -3t-68 -12t-50.5 -27t-20 -48q0 -21 8.5 -35t22.5 -23t31 -12.5t35 -3.5q66 0 101.5 39.5t35.5 99.5v25h-23zM369 653q0 -43 -29.5 -71t-71.5 -28q-21 0 -39 7.5t-31.5 20.5t-21.5 31t-8 39
q0 43 29 71t71 28t71.5 -28t29.5 -70zM327 653q0 24 -17.5 40t-41.5 16q-23 0 -40.5 -16t-17.5 -40t17.5 -40.5t40.5 -16.5q24 0 41.5 16t17.5 41z" />
    <glyph glyph-name="ae" unicode="&#xe6;" horiz-adv-x="877" 
d="M350 209q-44 0 -82 -2.5t-66 -10.5t-44 -23t-16 -40q0 -21 8.5 -34.5t22 -22t31 -12t36.5 -3.5q66 0 100 33t34 90v25h-24zM734 279q0 28 -8.5 52.5t-24.5 42.5t-40 28.5t-55 10.5q-29 0 -54.5 -10.5t-45 -28.5t-31.5 -42.5t-13 -52.5h272zM419 85q-29 -54 -82.5 -75.5
t-118.5 -21.5q-28 0 -58.5 6.5t-55.5 21.5t-41.5 40.5t-16.5 64.5q0 52 24 83.5t67.5 48t104 21.5t134.5 5v11q0 67 -32 94t-85 27q-40 0 -75.5 -15.5t-59.5 -39.5l-50 60q35 33 85.5 52t108.5 19q40 0 69 -8.5t48.5 -21.5t31 -28.5t17.5 -29.5q28 39 69 63.5t104 24.5
q51 0 92 -17t69.5 -49t44 -77.5t15.5 -102.5v-16t-1 -16h-364q1 -30 13 -56.5t32.5 -46t47 -30.5t56.5 -11q47 0 80.5 21t53.5 51l63 -53q-37 -50 -86.5 -73.5t-110.5 -23.5q-63 0 -114 25.5t-79 72.5z" />
    <glyph glyph-name="ccedilla" unicode="&#xe7;" horiz-adv-x="494" 
d="M413 354q-15 23 -45 38.5t-64 15.5q-37 0 -65.5 -14t-48.5 -37.5t-30.5 -54.5t-10.5 -65t10.5 -65t30.5 -54.5t49 -37.5t66 -14q36 0 65.5 14t48.5 38l63 -57q-29 -33 -70 -52.5t-95 -21.5l-37 -56q7 2 13 2h14q17 0 33.5 -4t30 -13t22 -24t8.5 -37q0 -26 -12 -43.5
t-30.5 -28t-41 -14.5t-43.5 -4q-26 0 -54 6t-49 17l20 42q37 -17 77 -17q8 0 18.5 2t20 6.5t16 12.5t6.5 21q0 22 -17 30t-37 8q-9 0 -20 -2t-21 -5l-20 20l55 83q-48 6 -88 26t-69.5 52t-45.5 75t-16 95q0 56 19 102t53 79t80.5 51t100.5 18q50 0 99.5 -20t78.5 -58z" />
    <glyph glyph-name="egrave" unicode="&#xe8;" horiz-adv-x="573" 
d="M428 279q-1 28 -9.5 52.5t-25 42.5t-41 28.5t-57.5 10.5q-30 0 -56.5 -10.5t-46 -28.5t-32 -42.5t-14.5 -52.5h282zM523 241v-16t-1 -16h-376q1 -30 13.5 -56.5t33.5 -46t48.5 -30.5t58.5 -11q48 0 83 21t55 51l66 -53q-38 -50 -89.5 -73.5t-114.5 -23.5q-54 0 -100 18
t-79 50.5t-52 78.5t-19 102q0 55 18.5 101.5t51.5 79.5t78 51.5t97 18.5t94.5 -17t72 -49t45.5 -77.5t16 -102.5zM134 708h113l100 -144h-77z" />
    <glyph glyph-name="eacute" unicode="&#xe9;" horiz-adv-x="573" 
d="M428 279q-1 28 -9.5 52.5t-25 42.5t-41 28.5t-57.5 10.5q-30 0 -56.5 -10.5t-46 -28.5t-32 -42.5t-14.5 -52.5h282zM523 241v-16t-1 -16h-376q1 -30 13.5 -56.5t33.5 -46t48.5 -30.5t58.5 -11q48 0 83 21t55 51l66 -53q-38 -50 -89.5 -73.5t-114.5 -23.5q-54 0 -100 18
t-79 50.5t-52 78.5t-19 102q0 55 18.5 101.5t51.5 79.5t78 51.5t97 18.5t94.5 -17t72 -49t45.5 -77.5t16 -102.5zM322 564h-77l100 144h113z" />
    <glyph glyph-name="ecircumflex" unicode="&#xea;" horiz-adv-x="573" 
d="M428 279q-1 28 -9.5 52.5t-25 42.5t-41 28.5t-57.5 10.5q-30 0 -56.5 -10.5t-46 -28.5t-32 -42.5t-14.5 -52.5h282zM523 241v-16t-1 -16h-376q1 -30 13.5 -56.5t33.5 -46t48.5 -30.5t58.5 -11q48 0 83 21t55 51l66 -53q-38 -50 -89.5 -73.5t-114.5 -23.5q-54 0 -100 18
t-79 50.5t-52 78.5t-19 102q0 55 18.5 101.5t51.5 79.5t78 51.5t97 18.5t94.5 -17t72 -49t45.5 -77.5t16 -102.5zM467 564h-91l-75 99l-76 -99h-90l112 144h108z" />
    <glyph glyph-name="edieresis" unicode="&#xeb;" horiz-adv-x="573" 
d="M428 279q-1 28 -9.5 52.5t-25 42.5t-41 28.5t-57.5 10.5q-30 0 -56.5 -10.5t-46 -28.5t-32 -42.5t-14.5 -52.5h282zM523 241v-16t-1 -16h-376q1 -30 13.5 -56.5t33.5 -46t48.5 -30.5t58.5 -11q48 0 83 21t55 51l66 -53q-38 -50 -89.5 -73.5t-114.5 -23.5q-54 0 -100 18
t-79 50.5t-52 78.5t-19 102q0 55 18.5 101.5t51.5 79.5t78 51.5t97 18.5t94.5 -17t72 -49t45.5 -77.5t16 -102.5zM141 645q0 24 17.5 42.5t44.5 18.5q26 0 44 -17.5t18 -43.5q0 -25 -18 -42.5t-44 -17.5q-27 0 -44.5 18.5t-17.5 41.5zM335 645q0 24 17.5 42.5t44.5 18.5
q26 0 44 -17.5t18 -43.5q0 -25 -18 -42.5t-44 -17.5q-27 0 -44.5 18.5t-17.5 41.5z" />
    <glyph glyph-name="igrave" unicode="&#xec;" horiz-adv-x="259" 
d="M176 0h-94v474h94v-474zM-36 708h113l100 -144h-77z" />
    <glyph glyph-name="iacute" unicode="&#xed;" horiz-adv-x="259" 
d="M176 0h-94v474h94v-474zM159 564h-77l100 144h113z" />
    <glyph glyph-name="icircumflex" unicode="&#xee;" horiz-adv-x="259" 
d="M176 0h-94v474h94v-474zM296 564h-91l-75 99l-76 -99h-90l112 144h108z" />
    <glyph glyph-name="idieresis" unicode="&#xef;" horiz-adv-x="259" 
d="M176 0h-94v474h94v-474zM-29 645q0 24 17.5 42.5t44.5 18.5q26 0 44 -17.5t18 -43.5q0 -25 -18 -42.5t-44 -17.5q-27 0 -44.5 18.5t-17.5 41.5zM165 645q0 24 17.5 42.5t44.5 18.5q26 0 44 -17.5t18 -43.5q0 -25 -18 -42.5t-44 -17.5q-27 0 -44.5 18.5t-17.5 41.5z" />
    <glyph glyph-name="eth" unicode="&#xf0;" horiz-adv-x="610" 
d="M371 659q38 -39 72 -84t59 -95.5t39.5 -105t14.5 -112.5q0 -53 -15 -103t-46 -88t-79.5 -61t-114.5 -23q-55 0 -102 18.5t-81 51.5t-53 79t-19 101t19 101t53 79t80 51.5t99 18.5q38 0 69.5 -11.5t60.5 -37.5l2 2q-26 50 -62 97t-79 83l-110 -53l-48 47l110 53
q-20 19 -44 37t-45 33l77 47q26 -20 51 -41t42 -37l108 53l52 -46zM142 237q0 -34 10.5 -64.5t30.5 -54t50 -37.5t68 -14t67.5 14t49.5 37.5t30.5 54t10.5 64.5t-10.5 64.5t-30.5 54t-49.5 37.5t-67.5 14t-68 -14t-50 -37.5t-30.5 -54t-10.5 -64.5z" />
    <glyph glyph-name="ntilde" unicode="&#xf1;" horiz-adv-x="582" 
d="M166 474q2 -18 3 -40.5t1 -37.5h3q9 19 24.5 35.5t35.5 29t44 19.5t50 7q46 0 79 -15.5t55 -41.5t32.5 -61t10.5 -75v-294h-94v263q0 29 -4.5 55t-16.5 46t-33 32t-54 12q-56 0 -91.5 -42.5t-35.5 -113.5v-252h-94v372q0 19 -1 49t-3 53h89zM121 572q4 22 10.5 42.5
t18.5 37t29.5 26.5t43.5 10q19 0 38.5 -6t36.5 -14q20 -9 36.5 -15.5t30.5 -6.5q22 0 32.5 14.5t15.5 31.5h54q-4 -22 -10.5 -42.5t-18.5 -37t-30 -26.5t-43 -10q-19 0 -39 6.5t-38 14.5q-18 9 -34.5 15t-30.5 6q-21 0 -31.5 -14.5t-15.5 -31.5h-55z" />
    <glyph glyph-name="ograve" unicode="&#xf2;" horiz-adv-x="610" 
d="M561 238q0 -55 -19.5 -101t-54 -79.5t-81.5 -52t-101 -18.5t-101 18.5t-81 52t-53.5 79.5t-19.5 101t19.5 100.5t53.5 78.5t81 51.5t101 18.5t101 -18.5t81.5 -51.5t54 -78.5t19.5 -100.5zM463 238q0 34 -10.5 65t-30.5 54.5t-49.5 37.5t-67.5 14t-67.5 -14t-49.5 -37.5
t-30.5 -54.5t-10.5 -65t10.5 -65t30.5 -55t49.5 -38t67.5 -14t67.5 14t49.5 38t30.5 55t10.5 65zM147 708h113l100 -144h-77z" />
    <glyph glyph-name="oacute" unicode="&#xf3;" horiz-adv-x="610" 
d="M561 238q0 -55 -19.5 -101t-54 -79.5t-81.5 -52t-101 -18.5t-101 18.5t-81 52t-53.5 79.5t-19.5 101t19.5 100.5t53.5 78.5t81 51.5t101 18.5t101 -18.5t81.5 -51.5t54 -78.5t19.5 -100.5zM463 238q0 34 -10.5 65t-30.5 54.5t-49.5 37.5t-67.5 14t-67.5 -14t-49.5 -37.5
t-30.5 -54.5t-10.5 -65t10.5 -65t30.5 -55t49.5 -38t67.5 -14t67.5 14t49.5 38t30.5 55t10.5 65zM325 564h-77l100 144h113z" />
    <glyph glyph-name="ocircumflex" unicode="&#xf4;" horiz-adv-x="610" 
d="M561 238q0 -55 -19.5 -101t-54 -79.5t-81.5 -52t-101 -18.5t-101 18.5t-81 52t-53.5 79.5t-19.5 101t19.5 100.5t53.5 78.5t81 51.5t101 18.5t101 -18.5t81.5 -51.5t54 -78.5t19.5 -100.5zM463 238q0 34 -10.5 65t-30.5 54.5t-49.5 37.5t-67.5 14t-67.5 -14t-49.5 -37.5
t-30.5 -54.5t-10.5 -65t10.5 -65t30.5 -55t49.5 -38t67.5 -14t67.5 14t49.5 38t30.5 55t10.5 65zM472 564h-91l-75 99l-76 -99h-90l112 144h108z" />
    <glyph glyph-name="otilde" unicode="&#xf5;" horiz-adv-x="610" 
d="M561 238q0 -55 -19.5 -101t-54 -79.5t-81.5 -52t-101 -18.5t-101 18.5t-81 52t-53.5 79.5t-19.5 101t19.5 100.5t53.5 78.5t81 51.5t101 18.5t101 -18.5t81.5 -51.5t54 -78.5t19.5 -100.5zM463 238q0 34 -10.5 65t-30.5 54.5t-49.5 37.5t-67.5 14t-67.5 -14t-49.5 -37.5
t-30.5 -54.5t-10.5 -65t10.5 -65t30.5 -55t49.5 -38t67.5 -14t67.5 14t49.5 38t30.5 55t10.5 65zM133 572q4 22 10.5 42.5t18.5 37t29.5 26.5t43.5 10q19 0 38.5 -6t36.5 -14q20 -9 36.5 -15.5t30.5 -6.5q22 0 32.5 14.5t15.5 31.5h54q-4 -22 -10.5 -42.5t-18.5 -37
t-30 -26.5t-43 -10q-19 0 -39 6.5t-38 14.5q-18 9 -34.5 15t-30.5 6q-21 0 -31.5 -14.5t-15.5 -31.5h-55z" />
    <glyph glyph-name="odieresis" unicode="&#xf6;" horiz-adv-x="610" 
d="M561 238q0 -55 -19.5 -101t-54 -79.5t-81.5 -52t-101 -18.5t-101 18.5t-81 52t-53.5 79.5t-19.5 101t19.5 100.5t53.5 78.5t81 51.5t101 18.5t101 -18.5t81.5 -51.5t54 -78.5t19.5 -100.5zM463 238q0 34 -10.5 65t-30.5 54.5t-49.5 37.5t-67.5 14t-67.5 -14t-49.5 -37.5
t-30.5 -54.5t-10.5 -65t10.5 -65t30.5 -55t49.5 -38t67.5 -14t67.5 14t49.5 38t30.5 55t10.5 65zM147 645q0 24 17.5 42.5t44.5 18.5q26 0 44 -17.5t18 -43.5q0 -25 -18 -42.5t-44 -17.5q-27 0 -44.5 18.5t-17.5 41.5zM341 645q0 24 17.5 42.5t44.5 18.5q26 0 44 -17.5
t18 -43.5q0 -25 -18 -42.5t-44 -17.5q-27 0 -44.5 18.5t-17.5 41.5z" />
    <glyph glyph-name="divide" unicode="&#xf7;" horiz-adv-x="666" 
d="M596 262h-526v82h526v-82zM398 132q0 -26 -18.5 -45.5t-46.5 -19.5t-46.5 19.5t-18.5 45.5t18.5 45.5t46.5 19.5t46.5 -19.5t18.5 -45.5zM398 469q0 -26 -18.5 -45.5t-46.5 -19.5t-46.5 19.5t-18.5 45.5t18.5 45.5t46.5 19.5t46.5 -19.5t18.5 -45.5z" />
    <glyph glyph-name="oslash" unicode="&#xf8;" horiz-adv-x="610" 
d="M501 401q28 -32 44 -73.5t16 -90.5q0 -55 -19.5 -101t-54 -79t-81.5 -51.5t-101 -18.5q-47 0 -87 13.5t-72 37.5l-68 -69l-36 36l66 68q-28 32 -43 73.5t-15 90.5q0 55 19.5 101t53.5 79t81 51.5t101 18.5q93 0 158 -51l68 70l37 -35zM406 377q-18 17 -45 26t-56 9
q-39 0 -69 -14.5t-50.5 -39t-31 -56t-10.5 -65.5q0 -28 7 -55t21 -46zM203 98q41 -35 101 -35q40 0 70.5 14.5t51 39t31 56t10.5 65.5q0 27 -7.5 54t-21.5 46z" />
    <glyph glyph-name="ugrave" unicode="&#xf9;" horiz-adv-x="582" 
d="M415 0q-2 18 -3 40.5t-1 37.5h-2q-18 -38 -60.5 -64.5t-94.5 -26.5q-46 0 -79.5 15t-55 41.5t-32 61.5t-10.5 75v294h94v-262q0 -29 4.5 -55.5t16.5 -46.5t33 -32t54 -12q57 0 92 42.5t35 113.5v252h94v-372q0 -19 1 -49t3 -53h-89zM131 708h113l100 -144h-77z" />
    <glyph glyph-name="uacute" unicode="&#xfa;" horiz-adv-x="582" 
d="M415 0q-2 18 -3 40.5t-1 37.5h-2q-18 -38 -60.5 -64.5t-94.5 -26.5q-46 0 -79.5 15t-55 41.5t-32 61.5t-10.5 75v294h94v-262q0 -29 4.5 -55.5t16.5 -46.5t33 -32t54 -12q57 0 92 42.5t35 113.5v252h94v-372q0 -19 1 -49t3 -53h-89zM316 564h-77l100 144h113z" />
    <glyph glyph-name="ucircumflex" unicode="&#xfb;" horiz-adv-x="582" 
d="M415 0q-2 18 -3 40.5t-1 37.5h-2q-18 -38 -60.5 -64.5t-94.5 -26.5q-46 0 -79.5 15t-55 41.5t-32 61.5t-10.5 75v294h94v-262q0 -29 4.5 -55.5t16.5 -46.5t33 -32t54 -12q57 0 92 42.5t35 113.5v252h94v-372q0 -19 1 -49t3 -53h-89zM457 564h-91l-75 99l-76 -99h-90
l112 144h108z" />
    <glyph glyph-name="udieresis" unicode="&#xfc;" horiz-adv-x="582" 
d="M415 0q-2 18 -3 40.5t-1 37.5h-2q-18 -38 -60.5 -64.5t-94.5 -26.5q-46 0 -79.5 15t-55 41.5t-32 61.5t-10.5 75v294h94v-262q0 -29 4.5 -55.5t16.5 -46.5t33 -32t54 -12q57 0 92 42.5t35 113.5v252h94v-372q0 -19 1 -49t3 -53h-89zM131 645q0 24 17.5 42.5t44.5 18.5
q26 0 44 -17.5t18 -43.5q0 -25 -18 -42.5t-44 -17.5q-27 0 -44.5 18.5t-17.5 41.5zM325 645q0 24 17.5 42.5t44.5 18.5q26 0 44 -17.5t18 -43.5q0 -25 -18 -42.5t-44 -17.5q-27 0 -44.5 18.5t-17.5 41.5z" />
    <glyph glyph-name="yacute" unicode="&#xfd;" horiz-adv-x="504" 
d="M261 102h2l131 372h100l-230 -586q-12 -30 -26 -53.5t-33 -40t-44.5 -25.5t-60.5 -9q-15 0 -30.5 1.5t-31.5 5.5l9 83q24 -8 47 -8q37 0 55 20.5t33 58.5l30 79l-203 474h105zM286 564h-77l100 144h113z" />
    <glyph glyph-name="thorn" unicode="&#xfe;" horiz-adv-x="636" 
d="M175 -240h-93v996h93v-356h3q22 38 66 62.5t103 24.5q53 0 96.5 -19t75 -53t48.5 -79.5t17 -97.5t-17 -98t-48 -80t-75 -53.5t-99 -19.5q-51 0 -96 22t-71 62h-3v-311zM487 238q0 33 -10 64t-30 55t-49.5 38t-68.5 14q-36 0 -65.5 -14t-50.5 -38t-32.5 -55t-11.5 -65
t11.5 -65t32.5 -54.5t50.5 -37.5t65.5 -14q39 0 68.5 14.5t49.5 38.5t30 55t10 64z" />
    <glyph glyph-name="ydieresis" unicode="&#xff;" horiz-adv-x="504" 
d="M261 102h2l131 372h100l-230 -586q-12 -30 -26 -53.5t-33 -40t-44.5 -25.5t-60.5 -9q-15 0 -30.5 1.5t-31.5 5.5l9 83q24 -8 47 -8q37 0 55 20.5t33 58.5l30 79l-203 474h105zM101 645q0 24 17.5 42.5t44.5 18.5q26 0 44 -17.5t18 -43.5q0 -25 -18 -42.5t-44 -17.5
q-27 0 -44.5 18.5t-17.5 41.5zM295 645q0 24 17.5 42.5t44.5 18.5q26 0 44 -17.5t18 -43.5q0 -25 -18 -42.5t-44 -17.5q-27 0 -44.5 18.5t-17.5 41.5z" />
    <glyph glyph-name="Amacron" unicode="&#x100;" horiz-adv-x="711" 
d="M115 0h-110l307 708h90l304 -708h-112l-72 174h-336zM221 261h265l-132 332zM502 797h-296v67h296v-67z" />
    <glyph glyph-name="amacron" unicode="&#x101;" horiz-adv-x="542" 
d="M376 307q0 53 -32 78.5t-85 25.5q-40 0 -75.5 -15.5t-59.5 -39.5l-50 60q35 33 85.5 52t108.5 19q51 0 88.5 -14.5t61.5 -39.5t36 -59t12 -73v-207q0 -24 1.5 -50.5t5.5 -43.5h-85q-8 34 -8 68h-3q-26 -38 -65.5 -59t-93.5 -21q-28 0 -58.5 7.5t-55.5 24.5t-41.5 45
t-16.5 69q0 54 29 85.5t76 48t106 21.5t119 5v13zM353 226q-35 0 -72.5 -3t-68 -12t-50.5 -27t-20 -48q0 -21 8.5 -35t22.5 -23t31 -12.5t35 -3.5q66 0 101.5 39.5t35.5 99.5v25h-23zM418 597h-296v67h296v-67z" />
    <glyph glyph-name="Abreve" unicode="&#x102;" horiz-adv-x="711" 
d="M115 0h-110l307 708h90l304 -708h-112l-72 174h-336zM221 261h265l-132 332zM513 908q-6 -69 -49.5 -103.5t-109.5 -34.5q-67 0 -110.5 34.5t-48.5 103.5h56q7 -38 36 -55t67 -17q41 0 68 15.5t36 56.5h55z" />
    <glyph glyph-name="abreve" unicode="&#x103;" horiz-adv-x="542" 
d="M376 307q0 53 -32 78.5t-85 25.5q-40 0 -75.5 -15.5t-59.5 -39.5l-50 60q35 33 85.5 52t108.5 19q51 0 88.5 -14.5t61.5 -39.5t36 -59t12 -73v-207q0 -24 1.5 -50.5t5.5 -43.5h-85q-8 34 -8 68h-3q-26 -38 -65.5 -59t-93.5 -21q-28 0 -58.5 7.5t-55.5 24.5t-41.5 45
t-16.5 69q0 54 29 85.5t76 48t106 21.5t119 5v13zM353 226q-35 0 -72.5 -3t-68 -12t-50.5 -27t-20 -48q0 -21 8.5 -35t22.5 -23t31 -12.5t35 -3.5q66 0 101.5 39.5t35.5 99.5v25h-23zM428 708q-6 -69 -49.5 -103.5t-109.5 -34.5q-67 0 -110.5 34.5t-48.5 103.5h56
q7 -38 36 -55t67 -17q41 0 68 15.5t36 56.5h55z" />
    <glyph glyph-name="Aogonek" unicode="&#x104;" horiz-adv-x="711" 
d="M693 -189q-20 -17 -44.5 -27t-50.5 -10q-19 0 -36.5 6t-31 17t-21.5 27.5t-8 36.5q0 21 8.5 41.5t21.5 38.5t29.5 34t31.5 28l-70 171h-336l-71 -174h-110l307 708h90l304 -708h-63q-28 -27 -50.5 -58t-22.5 -61q0 -20 14 -33.5t34 -13.5q14 0 28 6t25 16zM221 261h265
l-132 332z" />
    <glyph glyph-name="aogonek" unicode="&#x105;" horiz-adv-x="542" 
d="M487 -189q-20 -17 -44.5 -27t-50.5 -10q-19 0 -36.5 6t-31 17t-21.5 27.5t-8 36.5q0 21 8.5 41.5t22 38.5t29.5 34t32 28q-4 15 -5.5 32t-1.5 33h-3q-26 -38 -65.5 -59t-93.5 -21q-28 0 -58.5 7.5t-55.5 24.5t-41.5 45t-16.5 69q0 54 29 85.5t76 48t106 21.5t119 5v13
q0 53 -32 78.5t-85 25.5q-40 0 -75.5 -15.5t-59.5 -39.5l-50 60q35 33 85.5 52t108.5 19q51 0 88.5 -14.5t61.5 -39.5t36 -59t12 -73v-207q0 -24 1.5 -50.5t5.5 -43.5h-36q-28 -27 -50.5 -58t-22.5 -61q0 -20 14 -33.5t34 -13.5q14 0 28 6t25 16zM353 226q-35 0 -72.5 -3
t-68 -12t-50.5 -27t-20 -48q0 -21 8.5 -35t22.5 -23t31 -12.5t35 -3.5q66 0 101.5 39.5t35.5 99.5v25h-23z" />
    <glyph glyph-name="Cacute" unicode="&#x106;" horiz-adv-x="708" 
d="M693 110q-42 -57 -109 -92.5t-161 -35.5q-81 0 -149.5 27.5t-118 77t-77.5 118t-28 150.5q0 83 28.5 151.5t79 117t119.5 75.5t150 27q36 0 73 -7t71 -21t62 -34.5t48 -47.5l-78 -60q-26 36 -73.5 59.5t-102.5 23.5q-62 0 -111.5 -22.5t-84.5 -61.5t-54 -90.5t-19 -109.5
q0 -60 18.5 -112t53 -90.5t84 -60.5t110.5 -22q60 0 109 24t81 70zM431 764h-76l99 144h114z" />
    <glyph glyph-name="cacute" unicode="&#x107;" horiz-adv-x="494" 
d="M413 354q-15 23 -45 38.5t-64 15.5q-37 0 -65.5 -14t-48.5 -37.5t-30.5 -54.5t-10.5 -65t10.5 -65t30.5 -54.5t49 -37.5t66 -14q36 0 65.5 14t48.5 38l63 -57q-30 -35 -75 -54.5t-102 -19.5q-55 0 -101.5 18t-80.5 50.5t-53.5 78.5t-19.5 103q0 56 19 102t53 79t80.5 51
t100.5 18q50 0 99.5 -20t78.5 -58zM320 564h-77l100 144h113z" />
    <glyph glyph-name="Ccircumflex" unicode="&#x108;" horiz-adv-x="708" 
d="M693 110q-42 -57 -109 -92.5t-161 -35.5q-81 0 -149.5 27.5t-118 77t-77.5 118t-28 150.5q0 83 28.5 151.5t79 117t119.5 75.5t150 27q36 0 73 -7t71 -21t62 -34.5t48 -47.5l-78 -60q-26 36 -73.5 59.5t-102.5 23.5q-62 0 -111.5 -22.5t-84.5 -61.5t-54 -90.5t-19 -109.5
q0 -60 18.5 -112t53 -90.5t84 -60.5t110.5 -22q60 0 109 24t81 70zM589 764h-91l-75 99l-76 -99h-90l112 144h108z" />
    <glyph glyph-name="ccircumflex" unicode="&#x109;" horiz-adv-x="494" 
d="M413 354q-15 23 -45 38.5t-64 15.5q-37 0 -65.5 -14t-48.5 -37.5t-30.5 -54.5t-10.5 -65t10.5 -65t30.5 -54.5t49 -37.5t66 -14q36 0 65.5 14t48.5 38l63 -57q-30 -35 -75 -54.5t-102 -19.5q-55 0 -101.5 18t-80.5 50.5t-53.5 78.5t-19.5 103q0 56 19 102t53 79t80.5 51
t100.5 18q50 0 99.5 -20t78.5 -58zM469 564h-91l-75 99l-76 -99h-90l112 144h108z" />
    <glyph glyph-name="Cdotaccent" unicode="&#x10a;" horiz-adv-x="708" 
d="M693 110q-42 -57 -109 -92.5t-161 -35.5q-81 0 -149.5 27.5t-118 77t-77.5 118t-28 150.5q0 83 28.5 151.5t79 117t119.5 75.5t150 27q36 0 73 -7t71 -21t62 -34.5t48 -47.5l-78 -60q-26 36 -73.5 59.5t-102.5 23.5q-62 0 -111.5 -22.5t-84.5 -61.5t-54 -90.5t-19 -109.5
q0 -60 18.5 -112t53 -90.5t84 -60.5t110.5 -22q60 0 109 24t81 70zM486 845q0 -26 -18.5 -43t-44.5 -17t-44 17.5t-18 42.5q0 26 18 43.5t44 17.5t44.5 -17.5t18.5 -43.5z" />
    <glyph glyph-name="cdotaccent" unicode="&#x10b;" horiz-adv-x="494" 
d="M413 354q-15 23 -45 38.5t-64 15.5q-37 0 -65.5 -14t-48.5 -37.5t-30.5 -54.5t-10.5 -65t10.5 -65t30.5 -54.5t49 -37.5t66 -14q36 0 65.5 14t48.5 38l63 -57q-30 -35 -75 -54.5t-102 -19.5q-55 0 -101.5 18t-80.5 50.5t-53.5 78.5t-19.5 103q0 56 19 102t53 79t80.5 51
t100.5 18q50 0 99.5 -20t78.5 -58zM363 645q0 -26 -18.5 -43t-44.5 -17t-44 17.5t-18 42.5q0 26 18 43.5t44 17.5t44.5 -17.5t18.5 -43.5z" />
    <glyph glyph-name="Ccaron" unicode="&#x10c;" horiz-adv-x="708" 
d="M693 110q-42 -57 -109 -92.5t-161 -35.5q-81 0 -149.5 27.5t-118 77t-77.5 118t-28 150.5q0 83 28.5 151.5t79 117t119.5 75.5t150 27q36 0 73 -7t71 -21t62 -34.5t48 -47.5l-78 -60q-26 36 -73.5 59.5t-102.5 23.5q-62 0 -111.5 -22.5t-84.5 -61.5t-54 -90.5t-19 -109.5
q0 -60 18.5 -112t53 -90.5t84 -60.5t110.5 -22q60 0 109 24t81 70zM476 764h-107l-111 144h90l76 -99l76 99h88z" />
    <glyph glyph-name="ccaron" unicode="&#x10d;" horiz-adv-x="494" 
d="M413 354q-15 23 -45 38.5t-64 15.5q-37 0 -65.5 -14t-48.5 -37.5t-30.5 -54.5t-10.5 -65t10.5 -65t30.5 -54.5t49 -37.5t66 -14q36 0 65.5 14t48.5 38l63 -57q-30 -35 -75 -54.5t-102 -19.5q-55 0 -101.5 18t-80.5 50.5t-53.5 78.5t-19.5 103q0 56 19 102t53 79t80.5 51
t100.5 18q50 0 99.5 -20t78.5 -58zM357 564h-107l-111 144h90l76 -99l76 99h88z" />
    <glyph glyph-name="Dcaron" unicode="&#x10e;" horiz-adv-x="761" 
d="M86 708h243q68 0 136 -20t123 -63t89 -110t34 -161q0 -91 -34 -157.5t-89 -110t-123 -65t-136 -21.5h-243v708zM185 87h124q64 0 118.5 18t94 52t61.5 84t22 113q0 66 -22 116t-61.5 83.5t-94 51t-118.5 17.5h-124v-535zM397 764h-107l-111 144h90l76 -99l76 99h88z" />
    <glyph glyph-name="dcaron" unicode="&#x10f;" horiz-adv-x="697" 
d="M459 75q-27 -43 -73.5 -65.5t-97.5 -22.5q-55 0 -99 19.5t-75 53.5t-48 80t-17 98t17 97.5t48.5 79.5t75.5 53t97 19q58 0 101 -24.5t68 -59.5h2v353h94v-756h-91v75h-2zM147 238q0 -33 10 -64t30 -55t49 -38.5t68 -14.5q36 0 65.5 14t50.5 37.5t32.5 54.5t11.5 65
t-11.5 65t-32.5 55t-50.5 38t-65.5 14q-39 0 -68 -14t-49 -38t-30 -55t-10 -64zM665 518h-79l64 190h93z" />
    <glyph glyph-name="Dcroat" unicode="&#x110;" horiz-adv-x="761" 
d="M82 335h-69v70h69v303h258q68 0 133.5 -22t117.5 -66t83.5 -110.5t31.5 -155.5q0 -90 -34 -156.5t-88 -110.5t-120.5 -65.5t-131.5 -21.5h-250v335zM182 90h117q70 0 125.5 19t94.5 53.5t60 83t21 108.5t-19.5 108.5t-56.5 83t-91.5 53.5t-123.5 19h-127v-213h237v-70
h-237v-245z" />
    <glyph glyph-name="dcroat" unicode="&#x111;" horiz-adv-x="635" 
d="M458 633v123h94v-123h56v-63h-56v-570h-91v75h-2q-27 -43 -73.5 -65.5t-97.5 -22.5q-55 0 -99 19.5t-75 53.5t-48 80t-17 98t17 97.5t48.5 79.5t75.5 53t97 19q58 0 101 -24.5t68 -59.5h2v167h-163v63h163zM147 238q0 -33 10 -64t30 -55t49 -38.5t68 -14.5q36 0 65.5 14
t50.5 37.5t32.5 54.5t11.5 65t-11.5 65t-32.5 55t-50.5 38t-65.5 14q-39 0 -68 -14t-49 -38t-30 -55t-10 -64z" />
    <glyph glyph-name="Emacron" unicode="&#x112;" horiz-adv-x="601" 
d="M185 88h370v-88h-469v708h454v-87h-355v-212h334v-85h-334v-236zM462 797h-296v67h296v-67z" />
    <glyph glyph-name="emacron" unicode="&#x113;" horiz-adv-x="573" 
d="M428 279q-1 28 -9.5 52.5t-25 42.5t-41 28.5t-57.5 10.5q-30 0 -56.5 -10.5t-46 -28.5t-32 -42.5t-14.5 -52.5h282zM523 241v-16t-1 -16h-376q1 -30 13.5 -56.5t33.5 -46t48.5 -30.5t58.5 -11q48 0 83 21t55 51l66 -53q-38 -50 -89.5 -73.5t-114.5 -23.5q-54 0 -100 18
t-79 50.5t-52 78.5t-19 102q0 55 18.5 101.5t51.5 79.5t78 51.5t97 18.5t94.5 -17t72 -49t45.5 -77.5t16 -102.5zM444 597h-296v67h296v-67z" />
    <glyph glyph-name="Ebreve" unicode="&#x114;" horiz-adv-x="601" 
d="M185 88h370v-88h-469v708h454v-87h-355v-212h334v-85h-334v-236zM476 908q-6 -69 -49.5 -103.5t-109.5 -34.5q-67 0 -110.5 34.5t-48.5 103.5h56q7 -38 36 -55t67 -17q41 0 68 15.5t36 56.5h55z" />
    <glyph glyph-name="ebreve" unicode="&#x115;" horiz-adv-x="573" 
d="M428 279q-1 28 -9.5 52.5t-25 42.5t-41 28.5t-57.5 10.5q-30 0 -56.5 -10.5t-46 -28.5t-32 -42.5t-14.5 -52.5h282zM523 241v-16t-1 -16h-376q1 -30 13.5 -56.5t33.5 -46t48.5 -30.5t58.5 -11q48 0 83 21t55 51l66 -53q-38 -50 -89.5 -73.5t-114.5 -23.5q-54 0 -100 18
t-79 50.5t-52 78.5t-19 102q0 55 18.5 101.5t51.5 79.5t78 51.5t97 18.5t94.5 -17t72 -49t45.5 -77.5t16 -102.5zM458 708q-6 -69 -49.5 -103.5t-109.5 -34.5q-67 0 -110.5 34.5t-48.5 103.5h56q7 -38 36 -55t67 -17q41 0 68 15.5t36 56.5h55z" />
    <glyph glyph-name="Edotaccent" unicode="&#x116;" horiz-adv-x="601" 
d="M185 88h370v-88h-469v708h454v-87h-355v-212h334v-85h-334v-236zM377 845q0 -26 -18.5 -43t-44.5 -17t-44 17.5t-18 42.5q0 26 18 43.5t44 17.5t44.5 -17.5t18.5 -43.5z" />
    <glyph glyph-name="edotaccent" unicode="&#x117;" horiz-adv-x="573" 
d="M428 279q-1 28 -9.5 52.5t-25 42.5t-41 28.5t-57.5 10.5q-30 0 -56.5 -10.5t-46 -28.5t-32 -42.5t-14.5 -52.5h282zM523 241v-16t-1 -16h-376q1 -30 13.5 -56.5t33.5 -46t48.5 -30.5t58.5 -11q48 0 83 21t55 51l66 -53q-38 -50 -89.5 -73.5t-114.5 -23.5q-54 0 -100 18
t-79 50.5t-52 78.5t-19 102q0 55 18.5 101.5t51.5 79.5t78 51.5t97 18.5t94.5 -17t72 -49t45.5 -77.5t16 -102.5zM359 645q0 -26 -18.5 -43t-44.5 -17t-44 17.5t-18 42.5q0 26 18 43.5t44 17.5t44.5 -17.5t18.5 -43.5z" />
    <glyph glyph-name="Eogonek" unicode="&#x118;" horiz-adv-x="601" 
d="M590 -189q-20 -17 -44.5 -27t-50.5 -10q-19 0 -36.5 6t-31 17t-21.5 27.5t-8 36.5t8 39.5t20.5 37.5t28 34t30.5 28h-399v708h454v-87h-355v-212h334v-85h-334v-236h370v-88h-15q-28 -27 -50.5 -58t-22.5 -61q0 -20 14 -33.5t34 -13.5q14 0 28 6t25 16z" />
    <glyph glyph-name="eogonek" unicode="&#x119;" horiz-adv-x="573" 
d="M400 -189q-20 -17 -44.5 -27t-50.5 -10q-19 0 -36.5 6t-31 17t-21.5 27.5t-8 36.5q0 36 22.5 69t50.5 58q-51 3 -93 22t-73 51.5t-48 76.5t-17 98q0 55 18.5 101.5t51.5 79.5t78 51.5t97 18.5t94.5 -17t72 -49t45.5 -77.5t16 -102.5v-16t-1 -16h-376q1 -30 13.5 -56.5
t33.5 -46t48.5 -30.5t58.5 -11q48 0 83 21t55 51l66 -53q-64 -82 -164 -94q-25 -26 -44 -54t-19 -55q0 -20 14 -33.5t34 -13.5q14 0 28 6t25 16zM428 279q-1 28 -9.5 52.5t-25 42.5t-41 28.5t-57.5 10.5q-30 0 -56.5 -10.5t-46 -28.5t-32 -42.5t-14.5 -52.5h282z" />
    <glyph glyph-name="Ecaron" unicode="&#x11a;" horiz-adv-x="601" 
d="M185 88h370v-88h-469v708h454v-87h-355v-212h334v-85h-334v-236zM370 764h-107l-111 144h90l76 -99l76 99h88z" />
    <glyph glyph-name="ecaron" unicode="&#x11b;" horiz-adv-x="573" 
d="M428 279q-1 28 -9.5 52.5t-25 42.5t-41 28.5t-57.5 10.5q-30 0 -56.5 -10.5t-46 -28.5t-32 -42.5t-14.5 -52.5h282zM523 241v-16t-1 -16h-376q1 -30 13.5 -56.5t33.5 -46t48.5 -30.5t58.5 -11q48 0 83 21t55 51l66 -53q-38 -50 -89.5 -73.5t-114.5 -23.5q-54 0 -100 18
t-79 50.5t-52 78.5t-19 102q0 55 18.5 101.5t51.5 79.5t78 51.5t97 18.5t94.5 -17t72 -49t45.5 -77.5t16 -102.5zM349 564h-107l-111 144h90l76 -99l76 99h88z" />
    <glyph glyph-name="Gcircumflex" unicode="&#x11c;" horiz-adv-x="778" 
d="M620 562q-32 35 -81.5 56t-110.5 21q-62 0 -112 -22.5t-85 -61.5t-54 -90.5t-19 -109.5q0 -59 19 -111t54 -90.5t86 -60.5t114 -22q50 0 92 9t73 26v197h-157v84h255v-343q-56 -30 -122 -46t-144 -16q-83 0 -152.5 27.5t-119.5 77t-78 118t-28 150.5q0 83 28.5 151.5
t79 117t119.5 75.5t150 27q85 0 151.5 -25t110.5 -67zM593 764h-91l-75 99l-76 -99h-90l112 144h108z" />
    <glyph glyph-name="gcircumflex" unicode="&#x11d;" horiz-adv-x="632" 
d="M118 -81q31 -35 77.5 -56t95.5 -21q47 0 79 13.5t51.5 37t28 55.5t8.5 69v61h-2q-26 -40 -71 -61t-96 -21q-54 0 -98.5 19t-75.5 52t-48 77.5t-17 95.5t17 96t48 78.5t75 53t98 19.5q51 0 97.5 -22t73.5 -67h2v76h91v-450q0 -52 -13 -99.5t-44 -84t-81 -58.5t-124 -22
q-62 0 -124.5 22.5t-107.5 63.5zM147 242q0 -33 10.5 -63t31 -53t49.5 -37t66 -14q36 0 66 13t51 35.5t32.5 53t11.5 65.5q0 34 -11.5 64t-33 53t-51 36.5t-65.5 13.5q-37 0 -66 -13.5t-49.5 -36t-31 -53t-10.5 -64.5zM476 564h-91l-75 99l-76 -99h-90l112 144h108z" />
    <glyph glyph-name="Gbreve" unicode="&#x11e;" horiz-adv-x="778" 
d="M620 562q-32 35 -81.5 56t-110.5 21q-62 0 -112 -22.5t-85 -61.5t-54 -90.5t-19 -109.5q0 -59 19 -111t54 -90.5t86 -60.5t114 -22q50 0 92 9t73 26v197h-157v84h255v-343q-56 -30 -122 -46t-144 -16q-83 0 -152.5 27.5t-119.5 77t-78 118t-28 150.5q0 83 28.5 151.5
t79 117t119.5 75.5t150 27q85 0 151.5 -25t110.5 -67zM586 908q-6 -69 -49.5 -103.5t-109.5 -34.5q-67 0 -110.5 34.5t-48.5 103.5h56q7 -38 36 -55t67 -17q41 0 68 15.5t36 56.5h55z" />
    <glyph glyph-name="gbreve" unicode="&#x11f;" horiz-adv-x="632" 
d="M118 -81q31 -35 77.5 -56t95.5 -21q47 0 79 13.5t51.5 37t28 55.5t8.5 69v61h-2q-26 -40 -71 -61t-96 -21q-54 0 -98.5 19t-75.5 52t-48 77.5t-17 95.5t17 96t48 78.5t75 53t98 19.5q51 0 97.5 -22t73.5 -67h2v76h91v-450q0 -52 -13 -99.5t-44 -84t-81 -58.5t-124 -22
q-62 0 -124.5 22.5t-107.5 63.5zM147 242q0 -33 10.5 -63t31 -53t49.5 -37t66 -14q36 0 66 13t51 35.5t32.5 53t11.5 65.5q0 34 -11.5 64t-33 53t-51 36.5t-65.5 13.5q-37 0 -66 -13.5t-49.5 -36t-31 -53t-10.5 -64.5zM465 708q-6 -69 -49.5 -103.5t-109.5 -34.5
q-67 0 -110.5 34.5t-48.5 103.5h56q7 -38 36 -55t67 -17q41 0 68 15.5t36 56.5h55z" />
    <glyph glyph-name="Gdotaccent" unicode="&#x120;" horiz-adv-x="778" 
d="M620 562q-32 35 -81.5 56t-110.5 21q-62 0 -112 -22.5t-85 -61.5t-54 -90.5t-19 -109.5q0 -59 19 -111t54 -90.5t86 -60.5t114 -22q50 0 92 9t73 26v197h-157v84h255v-343q-56 -30 -122 -46t-144 -16q-83 0 -152.5 27.5t-119.5 77t-78 118t-28 150.5q0 83 28.5 151.5
t79 117t119.5 75.5t150 27q85 0 151.5 -25t110.5 -67zM489 845q0 -26 -18.5 -43t-44.5 -17t-44 17.5t-18 42.5q0 26 18 43.5t44 17.5t44.5 -17.5t18.5 -43.5z" />
    <glyph glyph-name="gdotaccent" unicode="&#x121;" horiz-adv-x="632" 
d="M118 -81q31 -35 77.5 -56t95.5 -21q47 0 79 13.5t51.5 37t28 55.5t8.5 69v61h-2q-26 -40 -71 -61t-96 -21q-54 0 -98.5 19t-75.5 52t-48 77.5t-17 95.5t17 96t48 78.5t75 53t98 19.5q51 0 97.5 -22t73.5 -67h2v76h91v-450q0 -52 -13 -99.5t-44 -84t-81 -58.5t-124 -22
q-62 0 -124.5 22.5t-107.5 63.5zM147 242q0 -33 10.5 -63t31 -53t49.5 -37t66 -14q36 0 66 13t51 35.5t32.5 53t11.5 65.5q0 34 -11.5 64t-33 53t-51 36.5t-65.5 13.5q-37 0 -66 -13.5t-49.5 -36t-31 -53t-10.5 -64.5zM380 645q0 -26 -18.5 -43t-44.5 -17t-44 17.5t-18 42.5
q0 26 18 43.5t44 17.5t44.5 -17.5t18.5 -43.5z" />
    <glyph glyph-name="uni0122" unicode="&#x122;" horiz-adv-x="778" 
d="M620 562q-32 35 -81.5 56t-110.5 21q-62 0 -112 -22.5t-85 -61.5t-54 -90.5t-19 -109.5q0 -59 19 -111t54 -90.5t86 -60.5t114 -22q50 0 92 9t73 26v197h-157v84h255v-343q-56 -30 -122 -46t-144 -16q-83 0 -152.5 27.5t-119.5 77t-78 118t-28 150.5q0 83 28.5 151.5
t79 117t119.5 75.5t150 27q85 0 151.5 -25t110.5 -67zM412 -235h-79l64 190h93z" />
    <glyph glyph-name="uni0123" unicode="&#x123;" horiz-adv-x="632" 
d="M118 -81q31 -35 77.5 -56t95.5 -21q47 0 79 13.5t51.5 37t28 55.5t8.5 69v61h-2q-26 -40 -71 -61t-96 -21q-54 0 -98.5 19t-75.5 52t-48 77.5t-17 95.5t17 96t48 78.5t75 53t98 19.5q51 0 97.5 -22t73.5 -67h2v76h91v-450q0 -52 -13 -99.5t-44 -84t-81 -58.5t-124 -22
q-62 0 -124.5 22.5t-107.5 63.5zM147 242q0 -33 10.5 -63t31 -53t49.5 -37t66 -14q36 0 66 13t51 35.5t32.5 53t11.5 65.5q0 34 -11.5 64t-33 53t-51 36.5t-65.5 13.5q-37 0 -66 -13.5t-49.5 -36t-31 -53t-10.5 -64.5zM350 754h79l-64 -190h-93z" />
    <glyph glyph-name="Hcircumflex" unicode="&#x124;" horiz-adv-x="729" 
d="M86 708h99v-296h358v296h100v-708h-100v324h-358v-324h-99v708zM530 764h-91l-75 99l-76 -99h-90l112 144h108z" />
    <glyph glyph-name="hcircumflex" unicode="&#x125;" horiz-adv-x="584" 
d="M179 402q17 35 58 60t92 25q46 0 79 -15.5t55 -41.5t32.5 -61t10.5 -75v-294h-94v262q0 29 -4.5 55t-16.5 46t-32.5 32t-53.5 12q-56 0 -92 -42.5t-36 -113.5v-251h-94v756h94v-354h2zM461 796h-91l-75 99l-76 -99h-90l112 144h108z" />
    <glyph glyph-name="Hbar" unicode="&#x126;" horiz-adv-x="729" 
d="M86 708h99v-145h358v145h100v-708h-100v324h-358v-324h-99v708zM543 412v88h-358v-88h358z" />
    <glyph glyph-name="hbar" unicode="&#x127;" horiz-adv-x="584" 
d="M83 633v123h94v-123h164v-63h-164v-168h2q17 35 58 60t92 25q46 0 79.5 -15.5t55.5 -41.5t32.5 -61t10.5 -75v-294h-95v262q0 29 -4.5 55t-16.5 46t-32.5 32t-53.5 12q-56 0 -92 -42.5t-36 -113.5v-251h-94v570h-54v63h54z" />
    <glyph glyph-name="Itilde" unicode="&#x128;" horiz-adv-x="271" 
d="M185 0h-99v708h99v-708zM-38 772q4 22 10.5 42.5t18.5 37t29.5 26.5t43.5 10q19 0 38.5 -6t36.5 -14q20 -9 36.5 -15.5t30.5 -6.5q22 0 32.5 14.5t15.5 31.5h54q-4 -22 -10.5 -42.5t-18.5 -37t-30 -26.5t-43 -10q-19 0 -39 6.5t-38 14.5q-18 9 -34.5 15t-30.5 6
q-21 0 -31.5 -14.5t-15.5 -31.5h-55z" />
    <glyph glyph-name="itilde" unicode="&#x129;" horiz-adv-x="259" 
d="M176 0h-94v474h94v-474zM-42 572q4 22 10.5 42.5t18.5 37t29.5 26.5t43.5 10q19 0 38.5 -6t36.5 -14q20 -9 36.5 -15.5t30.5 -6.5q22 0 32.5 14.5t15.5 31.5h54q-4 -22 -10.5 -42.5t-18.5 -37t-30 -26.5t-43 -10q-19 0 -39 6.5t-38 14.5q-18 9 -34.5 15t-30.5 6
q-21 0 -31.5 -14.5t-15.5 -31.5h-55z" />
    <glyph glyph-name="Imacron" unicode="&#x12a;" horiz-adv-x="271" 
d="M185 0h-99v708h99v-708zM282 797h-296v67h296v-67z" />
    <glyph glyph-name="imacron" unicode="&#x12b;" horiz-adv-x="259" 
d="M176 0h-94v474h94v-474zM278 597h-296v67h296v-67z" />
    <glyph glyph-name="Ibreve" unicode="&#x12c;" horiz-adv-x="271" 
d="M185 0h-99v708h99v-708zM294 908q-6 -69 -49.5 -103.5t-109.5 -34.5q-67 0 -110.5 34.5t-48.5 103.5h56q7 -38 36 -55t67 -17q41 0 68 15.5t36 56.5h55z" />
    <glyph glyph-name="ibreve" unicode="&#x12d;" horiz-adv-x="259" 
d="M176 0h-94v474h94v-474zM288 708q-6 -69 -49.5 -103.5t-109.5 -34.5q-67 0 -110.5 34.5t-48.5 103.5h56q7 -38 36 -55t67 -17q41 0 68 15.5t36 56.5h55z" />
    <glyph glyph-name="Iogonek" unicode="&#x12e;" horiz-adv-x="271" 
d="M227 -189q-20 -17 -44.5 -27t-50.5 -10q-19 0 -36.5 6t-31 17t-21.5 27.5t-8 36.5t8 39.5t20.5 37.5t28 34t30.5 28h-36v708h99v-708h-8q-28 -27 -50.5 -58t-22.5 -61q0 -20 14 -33.5t34 -13.5q14 0 28 6t25 16z" />
    <glyph glyph-name="iogonek" unicode="&#x12f;" horiz-adv-x="259" 
d="M215 -189q-20 -17 -44.5 -27t-50.5 -10q-19 0 -36.5 6t-31 17t-21.5 27.5t-8 36.5t8 39.5t20.5 37.5t28 34t30.5 28h-28v474h94v-474h-11q-28 -27 -50.5 -58t-22.5 -61q0 -20 14 -33.5t34 -13.5q14 0 28 6t25 16zM192 645q0 -26 -18.5 -43t-44.5 -17t-44 17.5t-18 42.5
q0 26 18 43.5t44 17.5t44.5 -17.5t18.5 -43.5z" />
    <glyph glyph-name="Idotaccent" unicode="&#x130;" horiz-adv-x="271" 
d="M185 0h-99v708h99v-708zM200 845q0 -26 -18.5 -43t-44.5 -17t-44 17.5t-18 42.5q0 26 18 43.5t44 17.5t44.5 -17.5t18.5 -43.5z" />
    <glyph glyph-name="dotlessi" unicode="&#x131;" horiz-adv-x="259" 
d="M176 0h-94v474h94v-474z" />
    <glyph glyph-name="IJ" unicode="&#x132;" horiz-adv-x="758" 
d="M185 0h-99v708h99v-708zM370 158q8 -38 35 -63t67 -25q32 0 52.5 12t32.5 32.5t17 48t5 58.5v487h99v-491q0 -37 -8 -78t-30 -76t-61.5 -58t-101.5 -23q-81 0 -132 42t-67 108z" />
    <glyph glyph-name="ij" unicode="&#x133;" horiz-adv-x="515" 
d="M176 0h-94v474h94v-474zM192 645q0 -26 -18.5 -43t-44.5 -17t-44 17.5t-18 42.5q0 26 18 43.5t44 17.5t44.5 -17.5t18.5 -43.5zM234 -154q20 -5 38 -5q21 0 34 8t20 21.5t9.5 32t2.5 39.5v532h94v-535q0 -36 -6.5 -68t-23.5 -57t-47 -39.5t-77 -14.5q-13 0 -28 2t-26 4z
M448 645q0 -26 -18.5 -43t-44.5 -17t-44.5 17.5t-18.5 42.5q0 26 18.5 43.5t44.5 17.5t44.5 -17.5t18.5 -43.5z" />
    <glyph glyph-name="Jcircumflex" unicode="&#x134;" horiz-adv-x="495" 
d="M107 158q8 -38 35 -63t67 -25q32 0 52.5 12t32.5 32.5t17 48t5 58.5v487h99v-491q0 -37 -8 -78t-30 -76t-61.5 -58t-101.5 -23q-81 0 -132 42t-67 108zM531 764h-91l-75 99l-76 -99h-90l112 144h108z" />
    <glyph glyph-name="jcircumflex" unicode="&#x135;" horiz-adv-x="260" 
d="M-21 -154q20 -5 38 -5q21 0 34 8t20 21.5t9.5 32t2.5 39.5v532h94v-535q0 -36 -6.5 -68t-23.5 -57t-47 -39.5t-77 -14.5q-13 0 -28 2t-26 4zM294 564h-91l-75 99l-76 -99h-90l112 144h108z" />
    <glyph glyph-name="uni0136" unicode="&#x136;" horiz-adv-x="659" 
d="M185 396h2l316 312h137l-344 -324l365 -384h-142l-332 366h-2v-366h-99v708h99v-312zM322 -235h-79l64 190h93z" />
    <glyph glyph-name="uni0137" unicode="&#x137;" horiz-adv-x="527" 
d="M177 268h3l199 206h126l-222 -215l241 -259h-130l-214 246h-3v-246h-94v756h94v-488zM255 -235h-79l64 190h93z" />
    <glyph glyph-name="kgreenlandic" unicode="&#x138;" horiz-adv-x="527" 
d="M177 268h3l199 206h126l-222 -215l241 -259h-130l-214 246h-3v-246h-94v474h94v-206z" />
    <glyph glyph-name="Lacute" unicode="&#x139;" horiz-adv-x="511" 
d="M185 88h316v-88h-415v708h99v-620zM166 764h-76l99 144h114z" />
    <glyph glyph-name="lacute" unicode="&#x13a;" horiz-adv-x="260" 
d="M177 0h-94v756h94v-756zM160 792h-77l100 144h113z" />
    <glyph glyph-name="uni013B" unicode="&#x13b;" horiz-adv-x="511" 
d="M185 88h316v-88h-415v708h99v-620zM277 -235h-79l64 190h93z" />
    <glyph glyph-name="uni013C" unicode="&#x13c;" horiz-adv-x="260" 
d="M177 0h-94v756h94v-756zM115 -235h-79l64 190h93z" />
    <glyph glyph-name="Lcaron" unicode="&#x13d;" horiz-adv-x="511" 
d="M185 88h316v-88h-415v708h99v-620zM308 518h-79l64 190h93z" />
    <glyph glyph-name="lcaron" unicode="&#x13e;" horiz-adv-x="323" 
d="M177 0h-94v756h94v-756zM291 518h-79l64 190h93z" />
    <glyph glyph-name="Ldot" unicode="&#x13f;" horiz-adv-x="511" 
d="M185 88h316v-88h-415v708h99v-620zM411 425q0 -26 -18.5 -43t-44.5 -17t-44 17.5t-18 42.5q0 26 18 43.5t44 17.5t44.5 -17.5t18.5 -43.5z" />
    <glyph glyph-name="ldot" unicode="&#x140;" horiz-adv-x="350" 
d="M177 0h-94v756h94v-756zM350 455q0 -26 -18.5 -43t-44.5 -17t-44 17.5t-18 42.5q0 26 18 43.5t44 17.5t44.5 -17.5t18.5 -43.5z" />
    <glyph glyph-name="Lslash" unicode="&#x141;" horiz-adv-x="511" 
d="M185 385l211 184v-90l-211 -184v-207h316v-88h-415v221l-76 -66v91l76 65v397h99v-323z" />
    <glyph glyph-name="lslash" unicode="&#x142;" horiz-adv-x="260" 
d="M176 480l75 76v-90l-75 -75v-391h-93v314l-75 -76v92l75 75v351h93v-276z" />
    <glyph glyph-name="Nacute" unicode="&#x143;" horiz-adv-x="772" 
d="M585 142h2v566h99v-708h-125l-374 578h-2v-578h-99v708h129zM391 764h-76l99 144h114z" />
    <glyph glyph-name="nacute" unicode="&#x144;" horiz-adv-x="582" 
d="M166 474q2 -18 3 -40.5t1 -37.5h3q9 19 24.5 35.5t35.5 29t44 19.5t50 7q46 0 79 -15.5t55 -41.5t32.5 -61t10.5 -75v-294h-94v263q0 29 -4.5 55t-16.5 46t-33 32t-54 12q-56 0 -91.5 -42.5t-35.5 -113.5v-252h-94v372q0 19 -1 49t-3 53h89zM310 564h-77l100 144h113z
" />
    <glyph glyph-name="uni0145" unicode="&#x145;" horiz-adv-x="772" 
d="M585 142h2v566h99v-708h-125l-374 578h-2v-578h-99v708h129zM377 -235h-79l64 190h93z" />
    <glyph glyph-name="uni0146" unicode="&#x146;" horiz-adv-x="582" 
d="M166 474q2 -18 3 -40.5t1 -37.5h3q9 19 24.5 35.5t35.5 29t44 19.5t50 7q46 0 79 -15.5t55 -41.5t32.5 -61t10.5 -75v-294h-94v263q0 29 -4.5 55t-16.5 46t-33 32t-54 12q-56 0 -91.5 -42.5t-35.5 -113.5v-252h-94v372q0 19 -1 49t-3 53h89zM277 -235h-79l64 190h93z" />
    <glyph glyph-name="Ncaron" unicode="&#x147;" horiz-adv-x="772" 
d="M585 142h2v566h99v-708h-125l-374 578h-2v-578h-99v708h129zM442 764h-107l-111 144h90l76 -99l76 99h88z" />
    <glyph glyph-name="ncaron" unicode="&#x148;" horiz-adv-x="582" 
d="M166 474q2 -18 3 -40.5t1 -37.5h3q9 19 24.5 35.5t35.5 29t44 19.5t50 7q46 0 79 -15.5t55 -41.5t32.5 -61t10.5 -75v-294h-94v263q0 29 -4.5 55t-16.5 46t-33 32t-54 12q-56 0 -91.5 -42.5t-35.5 -113.5v-252h-94v372q0 19 -1 49t-3 53h89zM345 564h-107l-111 144h90
l76 -99l76 99h88z" />
    <glyph glyph-name="Eng" unicode="&#x14a;" horiz-adv-x="772" 
d="M488 -154q20 -5 38 -5q21 0 34 8t20 21.5t9.5 32t2.5 39.5v48l-405 588h-2v-578h-99v708h129l370 -537h2v537h99v-769q0 -36 -6.5 -68t-23.5 -57t-47 -39.5t-77 -14.5q-13 0 -28 2t-26 4z" />
    <glyph glyph-name="eng" unicode="&#x14b;" horiz-adv-x="582" 
d="M306 -154q20 -5 38 -5q21 0 34 8t20 21.5t9.5 32t2.5 39.5v321q0 29 -4.5 55t-16.5 46t-33 32t-54 12q-56 0 -91.5 -42.5t-35.5 -113.5v-252h-94v372q0 19 -1 49t-3 53h89q2 -18 3 -40.5t1 -37.5h3q9 19 24.5 35.5t35.5 29t44 19.5t50 7q46 0 79 -15.5t55 -41.5t32.5 -61
t10.5 -75v-355q0 -36 -6.5 -68t-23.5 -57t-47 -39.5t-77 -14.5q-13 0 -28 2t-26 4z" />
    <glyph glyph-name="Omacron" unicode="&#x14c;" horiz-adv-x="849" 
d="M800 355q0 -82 -28.5 -150.5t-78.5 -118t-119 -77t-150 -27.5t-149.5 27.5t-118.5 77t-78 118t-28 150.5q0 83 28 151.5t78 117t118.5 75.5t149.5 27t150 -27t119 -75.5t78.5 -117t28.5 -151.5zM693 355q0 58 -19 109.5t-54 90.5t-84.5 61.5t-111.5 22.5
q-61 0 -110.5 -22.5t-84 -61.5t-53.5 -90.5t-19 -109.5q0 -59 19 -111t54 -90.5t84 -60.5t110 -22t111 22t85 60.5t54 90.5t19 111zM573 797h-296v67h296v-67z" />
    <glyph glyph-name="omacron" unicode="&#x14d;" horiz-adv-x="610" 
d="M561 238q0 -55 -19.5 -101t-54 -79.5t-81.5 -52t-101 -18.5t-101 18.5t-81 52t-53.5 79.5t-19.5 101t19.5 100.5t53.5 78.5t81 51.5t101 18.5t101 -18.5t81.5 -51.5t54 -78.5t19.5 -100.5zM463 238q0 34 -10.5 65t-30.5 54.5t-49.5 37.5t-67.5 14t-67.5 -14t-49.5 -37.5
t-30.5 -54.5t-10.5 -65t10.5 -65t30.5 -55t49.5 -38t67.5 -14t67.5 14t49.5 38t30.5 55t10.5 65zM454 597h-296v67h296v-67z" />
    <glyph glyph-name="Obreve" unicode="&#x14e;" horiz-adv-x="849" 
d="M800 355q0 -82 -28.5 -150.5t-78.5 -118t-119 -77t-150 -27.5t-149.5 27.5t-118.5 77t-78 118t-28 150.5q0 83 28 151.5t78 117t118.5 75.5t149.5 27t150 -27t119 -75.5t78.5 -117t28.5 -151.5zM693 355q0 58 -19 109.5t-54 90.5t-84.5 61.5t-111.5 22.5
q-61 0 -110.5 -22.5t-84 -61.5t-53.5 -90.5t-19 -109.5q0 -59 19 -111t54 -90.5t84 -60.5t110 -22t111 22t85 60.5t54 90.5t19 111zM583 908q-6 -69 -49.5 -103.5t-109.5 -34.5q-67 0 -110.5 34.5t-48.5 103.5h56q7 -38 36 -55t67 -17q41 0 68 15.5t36 56.5h55z" />
    <glyph glyph-name="obreve" unicode="&#x14f;" horiz-adv-x="610" 
d="M561 238q0 -55 -19.5 -101t-54 -79.5t-81.5 -52t-101 -18.5t-101 18.5t-81 52t-53.5 79.5t-19.5 101t19.5 100.5t53.5 78.5t81 51.5t101 18.5t101 -18.5t81.5 -51.5t54 -78.5t19.5 -100.5zM463 238q0 34 -10.5 65t-30.5 54.5t-49.5 37.5t-67.5 14t-67.5 -14t-49.5 -37.5
t-30.5 -54.5t-10.5 -65t10.5 -65t30.5 -55t49.5 -38t67.5 -14t67.5 14t49.5 38t30.5 55t10.5 65zM465 708q-6 -69 -49.5 -103.5t-109.5 -34.5q-67 0 -110.5 34.5t-48.5 103.5h56q7 -38 36 -55t67 -17q41 0 68 15.5t36 56.5h55z" />
    <glyph glyph-name="Ohungarumlaut" unicode="&#x150;" horiz-adv-x="849" 
d="M800 355q0 -82 -28.5 -150.5t-78.5 -118t-119 -77t-150 -27.5t-149.5 27.5t-118.5 77t-78 118t-28 150.5q0 83 28 151.5t78 117t118.5 75.5t149.5 27t150 -27t119 -75.5t78.5 -117t28.5 -151.5zM693 355q0 58 -19 109.5t-54 90.5t-84.5 61.5t-111.5 22.5
q-61 0 -110.5 -22.5t-84 -61.5t-53.5 -90.5t-19 -109.5q0 -59 19 -111t54 -90.5t84 -60.5t110 -22t111 22t85 60.5t54 90.5t19 111zM363 764h-77l100 144h114zM546 764h-77l100 144h113z" />
    <glyph glyph-name="ohungarumlaut" unicode="&#x151;" horiz-adv-x="610" 
d="M561 238q0 -55 -19.5 -101t-54 -79.5t-81.5 -52t-101 -18.5t-101 18.5t-81 52t-53.5 79.5t-19.5 101t19.5 100.5t53.5 78.5t81 51.5t101 18.5t101 -18.5t81.5 -51.5t54 -78.5t19.5 -100.5zM463 238q0 34 -10.5 65t-30.5 54.5t-49.5 37.5t-67.5 14t-67.5 -14t-49.5 -37.5
t-30.5 -54.5t-10.5 -65t10.5 -65t30.5 -55t49.5 -38t67.5 -14t67.5 14t49.5 38t30.5 55t10.5 65zM249 564h-77l100 144h114zM432 564h-77l100 144h113z" />
    <glyph glyph-name="OE" unicode="&#x152;" horiz-adv-x="1003" 
d="M942 708v-87h-331v-212h310v-85h-310v-236h346v-88h-525q-68 0 -136 21.5t-123 65t-89 110t-34 157.5q0 94 34 161t89 110t123 63t136 20h510zM452 621q-64 0 -118.5 -17t-94 -51t-61.5 -83.5t-22 -115.5q0 -63 22 -112.5t61.5 -83.5t94 -52t118.5 -18h60v533h-60z" />
    <glyph glyph-name="oe" unicode="&#x153;" horiz-adv-x="975" 
d="M698 487q53 0 95 -17t71.5 -49t45.5 -77.5t16 -102.5v-16t-1 -16h-377q2 -31 14.5 -57t33.5 -45.5t48.5 -30.5t58.5 -11q49 0 83.5 21t54.5 51l65 -53q-75 -97 -204 -97q-66 0 -117.5 27.5t-81.5 74.5q-31 -47 -83 -74.5t-118 -27.5q-54 0 -100.5 18.5t-80 52t-52.5 79.5
t-19 101t19 100.5t52.5 78.5t80 51.5t100.5 18.5q66 0 118.5 -28t83.5 -75q31 46 80.5 74.5t113.5 28.5zM463 238q0 34 -10.5 65t-30.5 54.5t-49.5 37.5t-67.5 14t-68 -14t-50 -37.5t-30.5 -54.5t-10.5 -65t10.5 -65t30.5 -55t50 -38t68 -14t67.5 14t49.5 38t30.5 55
t10.5 65zM832 279q-1 28 -9.5 52.5t-25.5 42.5t-41.5 28.5t-57.5 10.5q-30 0 -56.5 -10.5t-46 -28.5t-32 -42.5t-14.5 -52.5h283z" />
    <glyph glyph-name="Racute" unicode="&#x154;" horiz-adv-x="614" 
d="M185 0h-99v708h227q51 0 97 -10.5t80.5 -33.5t54.5 -60.5t20 -91.5q0 -78 -48 -126t-124 -61l198 -325h-120l-180 315h-106v-315zM185 398h114q35 0 65 6t52.5 19.5t35.5 35t13 53.5t-13 53.5t-34.5 34.5t-50.5 18.5t-61 5.5h-121v-226zM298 764h-76l99 144h114z" />
    <glyph glyph-name="racute" unicode="&#x155;" horiz-adv-x="362" 
d="M81 372q0 19 -1 49t-3 53h89q2 -18 3 -41.5t1 -38.5h3q20 42 58.5 67.5t86.5 25.5q22 0 37 -4l-4 -87q-20 5 -43 5q-34 0 -59 -12.5t-41.5 -33.5t-24.5 -48.5t-8 -57.5v-249h-94v372zM181 564h-77l100 144h113z" />
    <glyph glyph-name="uni0156" unicode="&#x156;" horiz-adv-x="614" 
d="M185 0h-99v708h227q51 0 97 -10.5t80.5 -33.5t54.5 -60.5t20 -91.5q0 -78 -48 -126t-124 -61l198 -325h-120l-180 315h-106v-315zM185 398h114q35 0 65 6t52.5 19.5t35.5 35t13 53.5t-13 53.5t-34.5 34.5t-50.5 18.5t-61 5.5h-121v-226zM301 -235h-79l64 190h93z" />
    <glyph glyph-name="uni0157" unicode="&#x157;" horiz-adv-x="362" 
d="M81 372q0 19 -1 49t-3 53h89q2 -18 3 -41.5t1 -38.5h3q20 42 58.5 67.5t86.5 25.5q22 0 37 -4l-4 -87q-20 5 -43 5q-34 0 -59 -12.5t-41.5 -33.5t-24.5 -48.5t-8 -57.5v-249h-94v372zM114 -235h-79l64 190h93z" />
    <glyph glyph-name="Rcaron" unicode="&#x158;" horiz-adv-x="614" 
d="M185 0h-99v708h227q51 0 97 -10.5t80.5 -33.5t54.5 -60.5t20 -91.5q0 -78 -48 -126t-124 -61l198 -325h-120l-180 315h-106v-315zM185 398h114q35 0 65 6t52.5 19.5t35.5 35t13 53.5t-13 53.5t-34.5 34.5t-50.5 18.5t-61 5.5h-121v-226zM347 764h-107l-111 144h90l76 -99
l76 99h88z" />
    <glyph glyph-name="rcaron" unicode="&#x159;" horiz-adv-x="362" 
d="M81 372q0 19 -1 49t-3 53h89q2 -18 3 -41.5t1 -38.5h3q20 42 58.5 67.5t86.5 25.5q22 0 37 -4l-4 -87q-20 5 -43 5q-34 0 -59 -12.5t-41.5 -33.5t-24.5 -48.5t-8 -57.5v-249h-94v372zM266 564h-107l-111 144h90l76 -99l76 99h88z" />
    <glyph glyph-name="Sacute" unicode="&#x15a;" horiz-adv-x="569" 
d="M438 577q-21 29 -57 47.5t-81 18.5q-24 0 -48.5 -6.5t-44.5 -21t-32.5 -36t-12.5 -51.5q0 -29 11.5 -48.5t31 -33t46 -23t56.5 -19.5q36 -11 73 -25t67 -37t49 -57.5t19 -87.5q0 -55 -20.5 -95.5t-54.5 -67t-78.5 -39.5t-91.5 -13q-67 0 -129.5 26t-103.5 77l77 65
q25 -37 67 -60t91 -23q25 0 50 7t45.5 22t33.5 37.5t13 54.5t-13.5 53.5t-36.5 36.5t-53.5 25.5t-64.5 21.5q-34 10 -67 24.5t-59 37t-42 55.5t-16 82q0 53 21.5 91t56 63t78 36.5t87.5 11.5q62 0 116 -22t87 -59zM306 764h-76l99 144h114z" />
    <glyph glyph-name="sacute" unicode="&#x15b;" horiz-adv-x="444" 
d="M337 354q-16 26 -45 42.5t-65 16.5q-16 0 -32 -3.5t-28.5 -11t-20 -19t-7.5 -28.5q0 -30 27 -44.5t81 -26.5q34 -8 63 -19t50.5 -27.5t33.5 -39.5t12 -54q0 -42 -16 -71t-42.5 -47.5t-60.5 -26.5t-70 -8q-54 0 -105.5 21t-85.5 64l67 57q19 -28 52.5 -47t73.5 -19
q18 0 34.5 3.5t30 11.5t21.5 21t8 33q0 33 -31.5 49t-92.5 30q-24 6 -48.5 14.5t-44.5 23.5t-32.5 37.5t-12.5 55.5q0 38 15.5 65.5t40.5 45t57 26t66 8.5q51 0 98.5 -20t73.5 -58zM236 564h-77l100 144h113z" />
    <glyph glyph-name="Scircumflex" unicode="&#x15c;" horiz-adv-x="569" 
d="M438 577q-21 29 -57 47.5t-81 18.5q-24 0 -48.5 -6.5t-44.5 -21t-32.5 -36t-12.5 -51.5q0 -29 11.5 -48.5t31 -33t46 -23t56.5 -19.5q36 -11 73 -25t67 -37t49 -57.5t19 -87.5q0 -55 -20.5 -95.5t-54.5 -67t-78.5 -39.5t-91.5 -13q-67 0 -129.5 26t-103.5 77l77 65
q25 -37 67 -60t91 -23q25 0 50 7t45.5 22t33.5 37.5t13 54.5t-13.5 53.5t-36.5 36.5t-53.5 25.5t-64.5 21.5q-34 10 -67 24.5t-59 37t-42 55.5t-16 82q0 53 21.5 91t56 63t78 36.5t87.5 11.5q62 0 116 -22t87 -59zM469 764h-91l-75 99l-76 -99h-90l112 144h108z" />
    <glyph glyph-name="scircumflex" unicode="&#x15d;" horiz-adv-x="444" 
d="M337 354q-16 26 -45 42.5t-65 16.5q-16 0 -32 -3.5t-28.5 -11t-20 -19t-7.5 -28.5q0 -30 27 -44.5t81 -26.5q34 -8 63 -19t50.5 -27.5t33.5 -39.5t12 -54q0 -42 -16 -71t-42.5 -47.5t-60.5 -26.5t-70 -8q-54 0 -105.5 21t-85.5 64l67 57q19 -28 52.5 -47t73.5 -19
q18 0 34.5 3.5t30 11.5t21.5 21t8 33q0 33 -31.5 49t-92.5 30q-24 6 -48.5 14.5t-44.5 23.5t-32.5 37.5t-12.5 55.5q0 38 15.5 65.5t40.5 45t57 26t66 8.5q51 0 98.5 -20t73.5 -58zM399 564h-91l-75 99l-76 -99h-90l112 144h108z" />
    <glyph glyph-name="Scedilla" unicode="&#x15e;" horiz-adv-x="569" 
d="M438 577q-21 29 -57 47.5t-81 18.5q-24 0 -48.5 -6.5t-44.5 -21t-32.5 -36t-12.5 -51.5q0 -29 11.5 -48.5t31 -33t46 -23t56.5 -19.5q36 -11 73 -25t67 -37t49 -57.5t19 -87.5q0 -50 -16.5 -87.5t-45 -63.5t-65.5 -41.5t-79 -20.5l-35 -53q7 2 13 2h14q17 0 33.5 -4
t30 -13t22 -24t8.5 -37q0 -26 -12 -43.5t-30.5 -28t-41 -14.5t-43.5 -4q-26 0 -54 6t-49 17l20 42q37 -17 77 -17q8 0 18.5 2t20 6.5t16 12.5t6.5 21q0 22 -17 30t-37 8q-9 0 -20 -2t-21 -5l-20 20l50 76q-64 2 -123.5 28t-97.5 75l77 65q25 -37 67 -60t91 -23q25 0 50 7
t45.5 22t33.5 37.5t13 54.5t-13.5 53.5t-36.5 36.5t-53.5 25.5t-64.5 21.5q-34 10 -67 24.5t-59 37t-42 55.5t-16 82q0 53 21.5 91t56 63t78 36.5t87.5 11.5q62 0 116 -22t87 -59z" />
    <glyph glyph-name="scedilla" unicode="&#x15f;" horiz-adv-x="444" 
d="M337 354q-16 26 -45 42.5t-65 16.5q-16 0 -32 -3.5t-28.5 -11t-20 -19t-7.5 -28.5q0 -30 27 -44.5t81 -26.5q34 -8 63 -19t50.5 -27.5t33.5 -39.5t12 -54q0 -38 -13.5 -65.5t-36 -46t-52.5 -28t-62 -12.5l-38 -57q7 2 13 2h14q17 0 33.5 -4t30 -13t22 -24t8.5 -37
q0 -26 -12 -43.5t-30.5 -28t-41 -14.5t-43.5 -4q-26 0 -54 6t-49 17l20 42q37 -17 77 -17q8 0 18.5 2t20 6.5t16 12.5t6.5 21q0 22 -17 30t-37 8q-9 0 -20 -2t-21 -5l-20 20l54 83q-48 4 -92 24.5t-74 58.5l67 57q19 -28 52.5 -47t73.5 -19q18 0 34.5 3.5t30 11.5t21.5 21
t8 33q0 33 -31.5 49t-92.5 30q-24 6 -48.5 14.5t-44.5 23.5t-32.5 37.5t-12.5 55.5q0 38 15.5 65.5t40.5 45t57 26t66 8.5q51 0 98.5 -20t73.5 -58z" />
    <glyph glyph-name="Scaron" unicode="&#x160;" horiz-adv-x="569" 
d="M438 577q-21 29 -57 47.5t-81 18.5q-24 0 -48.5 -6.5t-44.5 -21t-32.5 -36t-12.5 -51.5q0 -29 11.5 -48.5t31 -33t46 -23t56.5 -19.5q36 -11 73 -25t67 -37t49 -57.5t19 -87.5q0 -55 -20.5 -95.5t-54.5 -67t-78.5 -39.5t-91.5 -13q-67 0 -129.5 26t-103.5 77l77 65
q25 -37 67 -60t91 -23q25 0 50 7t45.5 22t33.5 37.5t13 54.5t-13.5 53.5t-36.5 36.5t-53.5 25.5t-64.5 21.5q-34 10 -67 24.5t-59 37t-42 55.5t-16 82q0 53 21.5 91t56 63t78 36.5t87.5 11.5q62 0 116 -22t87 -59zM351 764h-107l-111 144h90l76 -99l76 99h88z" />
    <glyph glyph-name="scaron" unicode="&#x161;" horiz-adv-x="444" 
d="M337 354q-16 26 -45 42.5t-65 16.5q-16 0 -32 -3.5t-28.5 -11t-20 -19t-7.5 -28.5q0 -30 27 -44.5t81 -26.5q34 -8 63 -19t50.5 -27.5t33.5 -39.5t12 -54q0 -42 -16 -71t-42.5 -47.5t-60.5 -26.5t-70 -8q-54 0 -105.5 21t-85.5 64l67 57q19 -28 52.5 -47t73.5 -19
q18 0 34.5 3.5t30 11.5t21.5 21t8 33q0 33 -31.5 49t-92.5 30q-24 6 -48.5 14.5t-44.5 23.5t-32.5 37.5t-12.5 55.5q0 38 15.5 65.5t40.5 45t57 26t66 8.5q51 0 98.5 -20t73.5 -58zM284 564h-107l-111 144h90l76 -99l76 99h88z" />
    <glyph glyph-name="uni0162" unicode="&#x162;" horiz-adv-x="569" 
d="M334 0h-99v621h-227v87h553v-87h-227v-621zM269 -235h-79l64 190h93z" />
    <glyph glyph-name="uni0163" unicode="&#x163;" horiz-adv-x="329" 
d="M313 397h-126v-247q0 -43 16 -61.5t51 -18.5q13 0 28 3t27 9l3 -77q-17 -6 -37.5 -9.5t-42.5 -3.5q-67 0 -102.5 37t-35.5 111v257h-91v77h91v136h93v-136h126v-77zM183 -235h-79l64 190h93z" />
    <glyph glyph-name="Tcaron" unicode="&#x164;" horiz-adv-x="569" 
d="M334 0h-99v621h-227v87h553v-87h-227v-621zM336 764h-107l-111 144h90l76 -99l76 99h88z" />
    <glyph glyph-name="tcaron" unicode="&#x165;" horiz-adv-x="342" 
d="M313 397h-126v-247q0 -43 16 -61.5t51 -18.5q13 0 28 3t27 9l3 -77q-17 -6 -37.5 -9.5t-42.5 -3.5q-67 0 -102.5 37t-35.5 111v257h-91v77h91v136h93v-136h126v-77zM297 541h-79l64 190h93z" />
    <glyph glyph-name="Tbar" unicode="&#x166;" horiz-adv-x="569" 
d="M235 525v96h-227v87h553v-87h-227v-96h163v-63h-163v-462h-99v462h-163v63h163z" />
    <glyph glyph-name="tbar" unicode="&#x167;" horiz-adv-x="329" 
d="M94 304v93h-91v77h91v136h93v-136h126v-77h-126v-93h112v-63h-112v-91q0 -43 16 -61.5t51 -18.5q13 0 28 3t27 9l3 -77q-17 -6 -37.5 -9.5t-42.5 -3.5q-67 0 -102.5 37t-35.5 111v101h-82v63h82z" />
    <glyph glyph-name="Utilde" unicode="&#x168;" horiz-adv-x="712" 
d="M356 -18q-70 0 -122 23.5t-86 62.5t-50.5 89.5t-16.5 104.5v446h99v-440q0 -36 9 -71.5t29.5 -63.5t54 -45t83.5 -17q49 0 83 17t54.5 45t29.5 63.5t9 71.5v440h99v-446q0 -54 -16.5 -104.5t-50.5 -89.5t-86 -62.5t-122 -23.5zM179 772q4 22 10.5 42.5t18.5 37t29.5 26.5
t43.5 10q19 0 38.5 -6t36.5 -14q20 -9 36.5 -15.5t30.5 -6.5q22 0 32.5 14.5t15.5 31.5h54q-4 -22 -10.5 -42.5t-18.5 -37t-30 -26.5t-43 -10q-19 0 -39 6.5t-38 14.5q-18 9 -34.5 15t-30.5 6q-21 0 -31.5 -14.5t-15.5 -31.5h-55z" />
    <glyph glyph-name="utilde" unicode="&#x169;" horiz-adv-x="582" 
d="M415 0q-2 18 -3 40.5t-1 37.5h-2q-18 -38 -60.5 -64.5t-94.5 -26.5q-46 0 -79.5 15t-55 41.5t-32 61.5t-10.5 75v294h94v-262q0 -29 4.5 -55.5t16.5 -46.5t33 -32t54 -12q57 0 92 42.5t35 113.5v252h94v-372q0 -19 1 -49t3 -53h-89zM116 572q4 22 10.5 42.5t18.5 37
t29.5 26.5t43.5 10q19 0 38.5 -6t36.5 -14q20 -9 36.5 -15.5t30.5 -6.5q22 0 32.5 14.5t15.5 31.5h54q-4 -22 -10.5 -42.5t-18.5 -37t-30 -26.5t-43 -10q-19 0 -39 6.5t-38 14.5q-18 9 -34.5 15t-30.5 6q-21 0 -31.5 -14.5t-15.5 -31.5h-55z" />
    <glyph glyph-name="Umacron" unicode="&#x16a;" horiz-adv-x="712" 
d="M356 -18q-70 0 -122 23.5t-86 62.5t-50.5 89.5t-16.5 104.5v446h99v-440q0 -36 9 -71.5t29.5 -63.5t54 -45t83.5 -17q49 0 83 17t54.5 45t29.5 63.5t9 71.5v440h99v-446q0 -54 -16.5 -104.5t-50.5 -89.5t-86 -62.5t-122 -23.5zM500 797h-296v67h296v-67z" />
    <glyph glyph-name="umacron" unicode="&#x16b;" horiz-adv-x="582" 
d="M415 0q-2 18 -3 40.5t-1 37.5h-2q-18 -38 -60.5 -64.5t-94.5 -26.5q-46 0 -79.5 15t-55 41.5t-32 61.5t-10.5 75v294h94v-262q0 -29 4.5 -55.5t16.5 -46.5t33 -32t54 -12q57 0 92 42.5t35 113.5v252h94v-372q0 -19 1 -49t3 -53h-89zM437 597h-296v67h296v-67z" />
    <glyph glyph-name="Ubreve" unicode="&#x16c;" horiz-adv-x="712" 
d="M356 -18q-70 0 -122 23.5t-86 62.5t-50.5 89.5t-16.5 104.5v446h99v-440q0 -36 9 -71.5t29.5 -63.5t54 -45t83.5 -17q49 0 83 17t54.5 45t29.5 63.5t9 71.5v440h99v-446q0 -54 -16.5 -104.5t-50.5 -89.5t-86 -62.5t-122 -23.5zM516 908q-6 -69 -49.5 -103.5t-109.5 -34.5
q-67 0 -110.5 34.5t-48.5 103.5h56q7 -38 36 -55t67 -17q41 0 68 15.5t36 56.5h55z" />
    <glyph glyph-name="ubreve" unicode="&#x16d;" horiz-adv-x="582" 
d="M415 0q-2 18 -3 40.5t-1 37.5h-2q-18 -38 -60.5 -64.5t-94.5 -26.5q-46 0 -79.5 15t-55 41.5t-32 61.5t-10.5 75v294h94v-262q0 -29 4.5 -55.5t16.5 -46.5t33 -32t54 -12q57 0 92 42.5t35 113.5v252h94v-372q0 -19 1 -49t3 -53h-89zM449 708q-6 -69 -49.5 -103.5
t-109.5 -34.5q-67 0 -110.5 34.5t-48.5 103.5h56q7 -38 36 -55t67 -17q41 0 68 15.5t36 56.5h55z" />
    <glyph glyph-name="Uring" unicode="&#x16e;" horiz-adv-x="712" 
d="M356 -18q-70 0 -122 23.5t-86 62.5t-50.5 89.5t-16.5 104.5v446h99v-440q0 -36 9 -71.5t29.5 -63.5t54 -45t83.5 -17q49 0 83 17t54.5 45t29.5 63.5t9 71.5v440h99v-446q0 -54 -16.5 -104.5t-50.5 -89.5t-86 -62.5t-122 -23.5zM453 853q0 -43 -29.5 -71t-71.5 -28
q-21 0 -39 7.5t-31.5 20.5t-21.5 31t-8 39q0 43 29 71t71 28t71.5 -28t29.5 -70zM412 853q0 25 -17.5 41.5t-42.5 16.5t-42 -17t-17 -42q0 -24 17 -40.5t42 -16.5t42.5 16.5t17.5 41.5z" />
    <glyph glyph-name="uring" unicode="&#x16f;" horiz-adv-x="582" 
d="M415 0q-2 18 -3 40.5t-1 37.5h-2q-18 -38 -60.5 -64.5t-94.5 -26.5q-46 0 -79.5 15t-55 41.5t-32 61.5t-10.5 75v294h94v-262q0 -29 4.5 -55.5t16.5 -46.5t33 -32t54 -12q57 0 92 42.5t35 113.5v252h94v-372q0 -19 1 -49t3 -53h-89zM389 653q0 -43 -29.5 -71t-71.5 -28
q-21 0 -39 7.5t-31.5 20.5t-21.5 31t-8 39q0 43 29 71t71 28t71.5 -28t29.5 -70zM347 653q0 24 -17.5 40t-41.5 16q-23 0 -40.5 -16t-17.5 -40t17.5 -40.5t40.5 -16.5q24 0 41.5 16t17.5 41z" />
    <glyph glyph-name="Uhungarumlaut" unicode="&#x170;" horiz-adv-x="712" 
d="M356 -18q-70 0 -122 23.5t-86 62.5t-50.5 89.5t-16.5 104.5v446h99v-440q0 -36 9 -71.5t29.5 -63.5t54 -45t83.5 -17q49 0 83 17t54.5 45t29.5 63.5t9 71.5v440h99v-446q0 -54 -16.5 -104.5t-50.5 -89.5t-86 -62.5t-122 -23.5zM291 764h-77l100 144h114zM474 764h-77
l100 144h113z" />
    <glyph glyph-name="uhungarumlaut" unicode="&#x171;" horiz-adv-x="582" 
d="M415 0q-2 18 -3 40.5t-1 37.5h-2q-18 -38 -60.5 -64.5t-94.5 -26.5q-46 0 -79.5 15t-55 41.5t-32 61.5t-10.5 75v294h94v-262q0 -29 4.5 -55.5t16.5 -46.5t33 -32t54 -12q57 0 92 42.5t35 113.5v252h94v-372q0 -19 1 -49t3 -53h-89zM231 564h-77l100 144h114zM414 564
h-77l100 144h113z" />
    <glyph glyph-name="Uogonek" unicode="&#x172;" horiz-adv-x="712" 
d="M470 -189q-20 -17 -44.5 -27t-50.5 -10q-19 0 -36.5 6t-31 17t-21.5 27.5t-8 36.5q0 34 20.5 65.5t46.5 56.5q-68 2 -117.5 25.5t-82 62t-48.5 88t-16 103.5v446h99v-440q0 -36 9 -71.5t29.5 -63.5t54 -45t83.5 -17q49 0 83 17t54.5 45t29.5 63.5t9 71.5v440h99v-446
q0 -49 -13.5 -95.5t-41.5 -84t-70.5 -63t-99.5 -33.5q-23 -25 -41 -52t-18 -53q0 -20 14 -33.5t34 -13.5q14 0 28 6t25 16z" />
    <glyph glyph-name="uogonek" unicode="&#x173;" horiz-adv-x="582" 
d="M511 -189q-20 -17 -44.5 -27t-50.5 -10q-19 0 -36.5 6t-31 17t-21.5 27.5t-8 36.5q0 21 9 42t23 39.5t30.5 35t32.5 28.5q-2 17 -2.5 37.5t-0.5 34.5h-2q-18 -38 -60.5 -64.5t-94.5 -26.5q-46 0 -79.5 15t-55 41.5t-32 61.5t-10.5 75v294h94v-262q0 -29 4.5 -55.5
t16.5 -46.5t33 -32t54 -12q57 0 92 42.5t35 113.5v252h94v-372q0 -19 1 -49t3 -53h-43q-28 -27 -50.5 -58t-22.5 -61q0 -20 14 -33.5t34 -13.5q14 0 28 6t25 16z" />
    <glyph glyph-name="Wcircumflex" unicode="&#x174;" horiz-adv-x="988" 
d="M273 144h2l166 564h109l165 -564h2l156 564h105l-208 -708h-103l-172 569h-2l-172 -569h-103l-208 708h107zM662 764h-91l-75 99l-76 -99h-90l112 144h108z" />
    <glyph glyph-name="wcircumflex" unicode="&#x175;" horiz-adv-x="773" 
d="M116 474l107 -362h2l113 362h99l115 -362h2l107 362h99l-157 -474h-98l-117 356h-2l-116 -356h-98l-158 474h102zM552 564h-91l-75 99l-76 -99h-90l112 144h108z" />
    <glyph glyph-name="Ycircumflex" unicode="&#x176;" horiz-adv-x="624" 
d="M362 0h-100v306l-265 402h122l196 -320l197 320h115l-265 -402v-306zM480 764h-91l-75 99l-76 -99h-90l112 144h108z" />
    <glyph glyph-name="ycircumflex" unicode="&#x177;" horiz-adv-x="504" 
d="M261 102h2l131 372h100l-230 -586q-12 -30 -26 -53.5t-33 -40t-44.5 -25.5t-60.5 -9q-15 0 -30.5 1.5t-31.5 5.5l9 83q24 -8 47 -8q37 0 55 20.5t33 58.5l30 79l-203 474h105zM426 564h-91l-75 99l-76 -99h-90l112 144h108z" />
    <glyph glyph-name="Ydieresis" unicode="&#x178;" horiz-adv-x="624" 
d="M362 0h-100v306l-265 402h122l196 -320l197 320h115l-265 -402v-306zM156 845q0 24 17.5 42.5t44.5 18.5q26 0 44 -17.5t18 -43.5q0 -25 -18 -42.5t-44 -17.5q-27 0 -44.5 18.5t-17.5 41.5zM350 845q0 24 17.5 42.5t44.5 18.5q26 0 44 -17.5t18 -43.5q0 -25 -18 -42.5
t-44 -17.5q-27 0 -44.5 18.5t-17.5 41.5z" />
    <glyph glyph-name="Zacute" unicode="&#x179;" horiz-adv-x="592" 
d="M553 621l-400 -533h406v-88h-526v87l399 534h-391v87h512v-87zM302 764h-76l99 144h114z" />
    <glyph glyph-name="zacute" unicode="&#x17a;" horiz-adv-x="462" 
d="M419 397l-270 -318h281v-79h-397v77l268 320h-255v77h373v-77zM241 564h-77l100 144h113z" />
    <glyph glyph-name="Zdotaccent" unicode="&#x17b;" horiz-adv-x="592" 
d="M553 621l-400 -533h406v-88h-526v87l399 534h-391v87h512v-87zM359 845q0 -26 -18.5 -43t-44.5 -17t-44 17.5t-18 42.5q0 26 18 43.5t44 17.5t44.5 -17.5t18.5 -43.5z" />
    <glyph glyph-name="zdotaccent" unicode="&#x17c;" horiz-adv-x="462" 
d="M419 397l-270 -318h281v-79h-397v77l268 320h-255v77h373v-77zM301 645q0 -26 -18.5 -43t-44.5 -17t-44 17.5t-18 42.5q0 26 18 43.5t44 17.5t44.5 -17.5t18.5 -43.5z" />
    <glyph glyph-name="Zcaron" unicode="&#x17d;" horiz-adv-x="592" 
d="M553 621l-400 -533h406v-88h-526v87l399 534h-391v87h512v-87zM351 764h-107l-111 144h90l76 -99l76 99h88z" />
    <glyph glyph-name="zcaron" unicode="&#x17e;" horiz-adv-x="462" 
d="M419 397l-270 -318h281v-79h-397v77l268 320h-255v77h373v-77zM290 564h-107l-111 144h90l76 -99l76 99h88z" />
    <glyph glyph-name="florin" unicode="&#x192;" horiz-adv-x="595" 
d="M472 350h-129l-62 -319q-7 -38 -20 -69t-33 -53.5t-49 -35t-69 -12.5q-24 0 -48 6t-44 18l38 71q11 -7 24.5 -10.5t25.5 -3.5q21 0 35.5 8.5t23.5 23t14.5 33.5t9.5 40l58 303h-111v73h125l25 127q6 34 17.5 65t31 54t48 37t69.5 14q29 0 55.5 -8t50.5 -22l-40 -71
q-13 8 -27 12.5t-29 4.5q-23 0 -38 -11t-24.5 -27t-14.5 -35.5t-8 -35.5l-20 -104h115v-73z" />
    <glyph glyph-name="uni0218" unicode="&#x218;" horiz-adv-x="569" 
d="M438 577q-21 29 -57 47.5t-81 18.5q-24 0 -48.5 -6.5t-44.5 -21t-32.5 -36t-12.5 -51.5q0 -29 11.5 -48.5t31 -33t46 -23t56.5 -19.5q36 -11 73 -25t67 -37t49 -57.5t19 -87.5q0 -55 -20.5 -95.5t-54.5 -67t-78.5 -39.5t-91.5 -13q-67 0 -129.5 26t-103.5 77l77 65
q25 -37 67 -60t91 -23q25 0 50 7t45.5 22t33.5 37.5t13 54.5t-13.5 53.5t-36.5 36.5t-53.5 25.5t-64.5 21.5q-34 10 -67 24.5t-59 37t-42 55.5t-16 82q0 53 21.5 91t56 63t78 36.5t87.5 11.5q62 0 116 -22t87 -59zM267 -235h-79l64 190h93z" />
    <glyph glyph-name="uni0219" unicode="&#x219;" horiz-adv-x="444" 
d="M337 354q-16 26 -45 42.5t-65 16.5q-16 0 -32 -3.5t-28.5 -11t-20 -19t-7.5 -28.5q0 -30 27 -44.5t81 -26.5q34 -8 63 -19t50.5 -27.5t33.5 -39.5t12 -54q0 -42 -16 -71t-42.5 -47.5t-60.5 -26.5t-70 -8q-54 0 -105.5 21t-85.5 64l67 57q19 -28 52.5 -47t73.5 -19
q18 0 34.5 3.5t30 11.5t21.5 21t8 33q0 33 -31.5 49t-92.5 30q-24 6 -48.5 14.5t-44.5 23.5t-32.5 37.5t-12.5 55.5q0 38 15.5 65.5t40.5 45t57 26t66 8.5q51 0 98.5 -20t73.5 -58zM204 -235h-79l64 190h93z" />
    <glyph glyph-name="uni021A" unicode="&#x21a;" horiz-adv-x="569" 
d="M334 0h-99v621h-227v87h553v-87h-227v-621zM269 -235h-79l64 190h93z" />
    <glyph glyph-name="uni021B" unicode="&#x21b;" horiz-adv-x="329" 
d="M313 397h-126v-247q0 -43 16 -61.5t51 -18.5q13 0 28 3t27 9l3 -77q-17 -6 -37.5 -9.5t-42.5 -3.5q-67 0 -102.5 37t-35.5 111v257h-91v77h91v136h93v-136h126v-77zM183 -235h-79l64 190h93z" />
    <glyph glyph-name="uni0237" unicode="&#x237;" horiz-adv-x="260" 
d="M-21 -154q20 -5 38 -5q21 0 34 8t20 21.5t9.5 32t2.5 39.5v532h94v-535q0 -36 -6.5 -68t-23.5 -57t-47 -39.5t-77 -14.5q-13 0 -28 2t-26 4z" />
    <glyph glyph-name="circumflex" unicode="&#x2c6;" 
d="M291 564h-91l-75 99l-76 -99h-90l112 144h108z" />
    <glyph glyph-name="caron" unicode="&#x2c7;" 
d="M178 564h-107l-111 144h90l76 -99l76 99h88z" />
    <glyph glyph-name="uni02C9" unicode="&#x2c9;" 
d="M273 797h-296v67h296v-67z" />
    <glyph glyph-name="breve" unicode="&#x2d8;" 
d="M284 708q-6 -69 -49.5 -103.5t-109.5 -34.5q-67 0 -110.5 34.5t-48.5 103.5h56q7 -38 36 -55t67 -17q41 0 68 15.5t36 56.5h55z" />
    <glyph glyph-name="dotaccent" unicode="&#x2d9;" 
d="M188 645q0 -26 -18.5 -43t-44.5 -17t-44 17.5t-18 42.5q0 26 18 43.5t44 17.5t44.5 -17.5t18.5 -43.5z" />
    <glyph glyph-name="ring" unicode="&#x2da;" 
d="M226 653q0 -43 -29.5 -71t-71.5 -28q-21 0 -39 7.5t-31.5 20.5t-21.5 31t-8 39q0 43 29 71t71 28t71.5 -28t29.5 -70zM184 653q0 24 -17.5 40t-41.5 16q-23 0 -40.5 -16t-17.5 -40t17.5 -40.5t40.5 -16.5q24 0 41.5 16t17.5 41z" />
    <glyph glyph-name="ogonek" unicode="&#x2db;" 
d="M206 -189q-20 -17 -44.5 -27t-50.5 -10q-19 0 -36.5 6t-31 17t-21.5 27.5t-8 36.5q0 21 9 42t23 39.5t30.5 35t32.5 28.5h54q-15 -14 -29 -29.5t-25.5 -31.5t-18.5 -32t-7 -32q0 -20 14 -33.5t34 -13.5q14 0 28 6t25 16z" />
    <glyph glyph-name="tilde" unicode="&#x2dc;" 
d="M-48 572q4 22 10.5 42.5t18.5 37t29.5 26.5t43.5 10q19 0 38.5 -6t36.5 -14q20 -9 36.5 -15.5t30.5 -6.5q22 0 32.5 14.5t15.5 31.5h54q-4 -22 -10.5 -42.5t-18.5 -37t-30 -26.5t-43 -10q-19 0 -39 6.5t-38 14.5q-18 9 -34.5 15t-30.5 6q-21 0 -31.5 -14.5t-15.5 -31.5
h-55z" />
    <glyph glyph-name="hungarumlaut" unicode="&#x2dd;" 
d="M39 564h-77l100 144h114zM222 564h-77l100 144h113z" />
    <glyph glyph-name="uni0394" unicode="&#x394;" horiz-adv-x="706" 
d="M25 0v65l284 643h90l282 -643v-65h-656zM351 593l-208 -505h417z" />
    <glyph glyph-name="uni03A9" unicode="&#x3a9;" horiz-adv-x="774" 
d="M438 0v172q84 20 130.5 78.5t46.5 155.5q0 39 -11.5 80t-38.5 74.5t-70.5 55.5t-107.5 22q-61 0 -104 -20.5t-70.5 -53.5t-40.5 -74.5t-13 -83.5q0 -100 48 -157t129 -77v-172h-275v82h198v25q-53 18 -91.5 48.5t-63.5 69.5t-37 85t-12 94q0 75 26.5 135t72 101t105.5 63
t128 22q72 0 133 -23.5t105 -65.5t69 -101t25 -130q0 -106 -51.5 -185t-152.5 -113v-25h198v-82h-275z" />
    <glyph glyph-name="uni03BC" unicode="&#x3bc;" horiz-adv-x="603" 
d="M568 -2q-19 -4 -31 -5t-27 -1q-49 0 -71 23t-24 63h-2q-18 -38 -54.5 -64.5t-84.5 -26.5q-35 0 -60.5 11t-36.5 29h-2v-267h-94v714h94v-262q0 -29 4.5 -55.5t16.5 -46.5t33 -32t54 -12q57 0 92 42.5t35 113.5v252h94v-369q0 -16 6 -25.5t26 -9.5q8 0 13.5 0.5t12.5 2.5z
" />
    <glyph glyph-name="pi" unicode="&#x3c0;" horiz-adv-x="637" 
d="M391 393h-156l-59 -393h-87l63 393h-117v81h557v-81h-111v-275q0 -25 12 -36.5t33 -11.5q5 0 15 0.5t16 2.5l6 -75q-7 -2 -23.5 -4t-28.5 -2q-65 0 -92.5 31t-27.5 108v262z" />
    <glyph glyph-name="uni0400" unicode="&#x400;" horiz-adv-x="601" 
d="M86 708h454v-87h-355v-212h334v-85h-334v-236h370v-88h-469v708zM163 908h114l100 -144h-77z" />
    <glyph glyph-name="uni0401" unicode="&#x401;" horiz-adv-x="601" 
d="M86 708h454v-87h-355v-212h334v-85h-334v-236h370v-88h-469v708zM158 845q0 24 17.5 42.5t44.5 18.5q26 0 44 -17.5t18 -43.5q0 -25 -18 -42.5t-44 -17.5q-27 0 -44.5 18.5t-17.5 41.5zM352 845q0 24 17.5 42.5t44.5 18.5q26 0 44 -17.5t18 -43.5q0 -25 -18 -42.5
t-44 -17.5q-27 0 -44.5 18.5t-17.5 41.5z" />
    <glyph glyph-name="uni0402" unicode="&#x402;" horiz-adv-x="798" 
d="M508 -10q-26 0 -50.5 3t-38.5 6l12 83q10 -2 29.5 -4.5t32.5 -2.5q78 0 121 30.5t43 96.5q0 64 -43.5 99t-131.5 35q-46 0 -85.5 -7.5t-62.5 -16.5v-312h-99v621h-227v87h552v-87h-226v-225q13 4 32 8t41 7t45.5 5t46.5 2q121 0 190 -55t69 -162q0 -54 -19 -93.5
t-52 -65.5t-79 -39t-100 -13z" />
    <glyph glyph-name="uni0403" unicode="&#x403;" horiz-adv-x="507" 
d="M308 764h-76l99 144h114zM86 708h413v-87h-314v-621h-99v708z" />
    <glyph glyph-name="uni0404" unicode="&#x404;" horiz-adv-x="708" 
d="M422 -18q-80 0 -148.5 27.5t-118 77t-77.5 118t-28 149.5q0 83 28.5 151.5t78 117.5t117.5 76t148 27q39 0 77 -7.5t72 -21t61.5 -34t47.5 -45.5l-73 -62q-23 32 -71.5 57.5t-113.5 25.5q-55 0 -100 -18t-78.5 -49.5t-55 -73t-28.5 -89.5h329v-85h-331q3 -53 23 -99
t54.5 -80.5t81.5 -54.5t105 -20q59 0 110 23t85 71l76 -54q-38 -55 -107.5 -91.5t-163.5 -36.5z" />
    <glyph glyph-name="uni0405" unicode="&#x405;" horiz-adv-x="569" 
d="M270 -18q-67 0 -129.5 26t-103.5 77l77 65q25 -37 67 -60t91 -23q25 0 50 7t45.5 22t33.5 37.5t13 54.5t-13.5 53.5t-36.5 36.5t-53.5 25.5t-64.5 21.5q-34 10 -67 24.5t-59 37t-42 55.5t-16 82q0 53 21.5 91t56 63t78 36.5t87.5 11.5q62 0 116 -22t87 -59l-70 -68
q-21 29 -57 47.5t-81 18.5q-24 0 -48.5 -6.5t-44.5 -21t-32.5 -36t-12.5 -51.5q0 -29 11.5 -48.5t31 -33t46 -23t56.5 -19.5q36 -11 73 -25t67 -37t49 -57.5t19 -87.5q0 -55 -20.5 -95.5t-54.5 -67t-78.5 -39.5t-91.5 -13z" />
    <glyph glyph-name="uni0406" unicode="&#x406;" horiz-adv-x="271" 
d="M86 708h99v-708h-99v708z" />
    <glyph glyph-name="uni0407" unicode="&#x407;" horiz-adv-x="271" 
d="M86 708h99v-708h-99v708zM-24 845q0 24 17.5 42.5t44.5 18.5q26 0 44 -17.5t18 -43.5q0 -25 -18 -42.5t-44 -17.5q-27 0 -44.5 18.5t-17.5 41.5zM170 845q0 24 17.5 42.5t44.5 18.5q26 0 44 -17.5t18 -43.5q0 -25 -18 -42.5t-44 -17.5q-27 0 -44.5 18.5t-17.5 41.5z" />
    <glyph glyph-name="uni0408" unicode="&#x408;" horiz-adv-x="495" 
d="M214 -18q-81 0 -132 42t-67 108l92 26q8 -38 35 -63t67 -25q32 0 52.5 12t32.5 32.5t17 48t5 58.5v487h99v-491q0 -37 -8 -78t-30 -76t-61.5 -58t-101.5 -23z" />
    <glyph glyph-name="uni0409" unicode="&#x409;" horiz-adv-x="1089" 
d="M85 -7q-17 0 -39 2.5t-37 6.5l13 88q11 -4 20.5 -5.5t22.5 -1.5q40 0 69 23t47.5 76t27.5 138t9 210v178h456v-294h114q57 0 105 -12.5t82.5 -38t54 -64.5t19.5 -92t-19 -92t-53.5 -64.5t-82 -38t-104.5 -12.5h-215v621h-261v-117q0 -130 -12 -226t-39 -159.5
t-70.5 -94.5t-107.5 -31zM780 84q79 0 124 29t45 93q0 61 -44 92.5t-125 31.5h-106v-246h106z" />
    <glyph glyph-name="uni040A" unicode="&#x40a;" horiz-adv-x="1059" 
d="M86 708h99v-296h358v296h99v-296h118q56 0 103.5 -12.5t82 -38t54 -64t19.5 -91.5t-19 -91.5t-53 -64t-81.5 -38t-103.5 -12.5h-219v329h-358v-329h-99v708zM751 84q78 0 123 29t45 92q0 61 -43.5 92.5t-124.5 31.5h-109v-245h109z" />
    <glyph glyph-name="uni040B" unicode="&#x40b;" horiz-adv-x="802" 
d="M235 621h-227v87h552v-87h-226v-224q13 4 31.5 8t40 7t45 5t46.5 2q118 0 174 -47.5t56 -147.5v-224h-99v205q0 61 -32.5 94t-109.5 33q-46 0 -87.5 -5.5t-64.5 -15.5v-311h-99v621z" />
    <glyph glyph-name="uni040C" unicode="&#x40c;" horiz-adv-x="659" 
d="M361 764h-76l99 144h114zM86 708h99v-312h2l316 312h137l-344 -324l365 -384h-142l-332 366h-2v-366h-99v708z" />
    <glyph glyph-name="uni040D" unicode="&#x40d;" horiz-adv-x="739" 
d="M86 708h99v-561h2l357 561h109v-708h-99v561h-2l-357 -561h-109v708zM204 908h114l100 -144h-77z" />
    <glyph glyph-name="uni040E" unicode="&#x40e;" horiz-adv-x="637" 
d="M137 -9q-23 0 -42.5 2t-34.5 5l14 90q24 -8 55 -8q38 0 61 19.5t45 61.5l35 64l-274 483h115l214 -388l206 388h110l-312 -570q-18 -33 -36 -60t-40 -46.5t-50.5 -30t-65.5 -10.5zM325 770q-63 0 -104.5 35t-49.5 98l57 11q6 -37 32.5 -57.5t64.5 -20.5t64.5 20.5
t32.5 57.5l57 -11q-8 -63 -49.5 -98t-104.5 -35z" />
    <glyph glyph-name="uni040F" unicode="&#x40f;" horiz-adv-x="725" 
d="M317 0h-231v708h99v-620h355v620h99v-708h-231v-168h-91v168z" />
    <glyph glyph-name="uni0410" unicode="&#x410;" horiz-adv-x="711" 
d="M312 708h90l304 -708h-112l-72 174h-336l-71 -174h-110zM486 261l-132 332l-133 -332h265z" />
    <glyph glyph-name="uni0411" unicode="&#x411;" horiz-adv-x="633" 
d="M86 708h442v-85h-343v-213h133q56 0 103.5 -12t82 -37.5t53.5 -64t19 -91.5t-19 -91.5t-53 -63.5t-81 -37.5t-104 -12.5h-233v708zM308 84q78 0 123 28.5t45 91.5q0 60 -43.5 91t-124.5 31h-123v-242h123z" />
    <glyph glyph-name="uni0412" unicode="&#x412;" horiz-adv-x="642" 
d="M86 708h244q40 0 80 -9t71.5 -30t51 -55t19.5 -85q0 -59 -34 -99t-90 -55v-2q34 -4 63 -17.5t50 -35.5t32.5 -52t11.5 -67q0 -51 -21 -89t-57 -62.5t-84.5 -37t-103.5 -12.5h-233v708zM309 84q31 0 62.5 5.5t57 19.5t41 37.5t15.5 59.5q0 63 -43 91t-124 28h-133v-241
h124zM314 409q28 0 53.5 6.5t44.5 20t30 34t11 49.5q0 57 -42 81.5t-113 24.5h-113v-216h129z" />
    <glyph glyph-name="uni0413" unicode="&#x413;" horiz-adv-x="507" 
d="M86 708h413v-87h-314v-621h-99v708z" />
    <glyph glyph-name="uni0414" unicode="&#x414;" horiz-adv-x="764" 
d="M15 88h58q57 61 86.5 165t29.5 268v187h465v-620h80v-256h-90v168h-539v-168h-90v256zM555 88v533h-270v-107q0 -86 -8 -154t-21.5 -120t-30.5 -89.5t-35 -62.5h365z" />
    <glyph glyph-name="uni0415" unicode="&#x415;" horiz-adv-x="601" 
d="M86 708h454v-87h-355v-212h334v-85h-334v-236h370v-88h-469v708z" />
    <glyph glyph-name="uni0416" unicode="&#x416;" horiz-adv-x="997" 
d="M339 386l-323 322h132l300 -312h1v312h99v-312h1l299 312h133l-323 -322l341 -386h-136l-314 364h-1v-364h-99v364h-1l-314 -364h-136z" />
    <glyph glyph-name="uni0417" unicode="&#x417;" horiz-adv-x="590" 
d="M279 -18q-74 0 -138.5 26t-108.5 78l73 65q25 -35 68 -60t103 -25q33 0 62 9t50.5 26.5t34 42.5t12.5 57q0 36 -15.5 60t-40.5 38.5t-58 20t-67 5.5h-46v84h47q33 0 62.5 6t51 20.5t34 37.5t12.5 57q0 50 -36.5 81.5t-99.5 31.5q-53 0 -91 -18.5t-62 -50.5l-67 61
q30 38 85 64.5t134 26.5q52 0 95 -12.5t74 -37t47.5 -60t16.5 -81.5q0 -63 -35.5 -105.5t-89.5 -56.5v-2q31 -7 58.5 -21.5t48 -36.5t32.5 -51t12 -65q0 -52 -21 -92t-57 -67.5t-82.5 -41.5t-97.5 -14z" />
    <glyph glyph-name="uni0418" unicode="&#x418;" horiz-adv-x="739" 
d="M86 708h99v-561h2l357 561h109v-708h-99v561h-2l-357 -561h-109v708z" />
    <glyph glyph-name="uni0419" unicode="&#x419;" horiz-adv-x="739" 
d="M86 708h99v-561h2l357 561h109v-708h-99v561h-2l-357 -561h-109v708zM367 770q-63 0 -104.5 35t-49.5 98l57 11q6 -37 32.5 -57.5t64.5 -20.5t64.5 20.5t32.5 57.5l57 -11q-8 -63 -49.5 -98t-104.5 -35z" />
    <glyph glyph-name="uni041A" unicode="&#x41a;" horiz-adv-x="659" 
d="M86 708h99v-312h2l316 312h137l-344 -324l365 -384h-142l-332 366h-2v-366h-99v708z" />
    <glyph glyph-name="uni041B" unicode="&#x41b;" horiz-adv-x="760" 
d="M85 -7q-17 0 -39 2t-37 7l13 88q11 -4 20.5 -5.5t22.5 -1.5q40 0 69 22.5t48 75t27.5 138t8.5 211.5v178h456v-708h-99v621h-261v-117q0 -130 -12 -226t-39 -159.5t-70.5 -94.5t-107.5 -31z" />
    <glyph glyph-name="uni041C" unicode="&#x41c;" horiz-adv-x="903" 
d="M86 708h154l212 -544h2l209 544h154v-708h-99v592h-2l-235 -592h-63l-234 592h-2v-592h-96v708z" />
    <glyph glyph-name="uni041D" unicode="&#x41d;" horiz-adv-x="729" 
d="M86 708h99v-296h359v296h99v-708h-99v324h-359v-324h-99v708z" />
    <glyph glyph-name="uni041E" unicode="&#x41e;" horiz-adv-x="849" 
d="M424 -18q-81 0 -149.5 27.5t-118.5 77t-78 118t-28 150.5q0 83 28 151.5t78 117t118.5 75.5t149.5 27t150 -27t119 -75.5t78.5 -117t28.5 -151.5q0 -82 -28.5 -150.5t-78.5 -118t-119 -77t-150 -27.5zM424 71q61 0 111 22t85 60.5t54 90.5t19 111q0 58 -19 109.5
t-54 90.5t-84.5 61.5t-111.5 22.5q-61 0 -110.5 -22.5t-84 -61.5t-53.5 -90.5t-19 -109.5q0 -59 19 -111t54 -90.5t84 -60.5t110 -22z" />
    <glyph glyph-name="uni041F" unicode="&#x41f;" horiz-adv-x="725" 
d="M86 708h553v-708h-99v621h-355v-621h-99v708z" />
    <glyph glyph-name="uni0420" unicode="&#x420;" horiz-adv-x="595" 
d="M86 708h216q57 0 104 -11.5t80 -35.5t51 -61t18 -89q0 -53 -19.5 -91t-54 -62t-82 -35.5t-102.5 -11.5h-112v-311h-99v708zM290 395q36 0 66.5 6.5t52.5 20t34 35.5t12 54t-12.5 53.5t-34 35t-51.5 19t-65 5.5h-107v-229h105z" />
    <glyph glyph-name="uni0421" unicode="&#x421;" horiz-adv-x="708" 
d="M423 -18q-81 0 -149.5 27.5t-118 77t-77.5 118t-28 150.5q0 83 28.5 151.5t79 117t119.5 75.5t150 27q36 0 73 -7t71 -21t62 -34.5t48 -47.5l-78 -60q-26 36 -73.5 59.5t-102.5 23.5q-62 0 -111.5 -22.5t-84.5 -61.5t-54 -90.5t-19 -109.5q0 -60 18.5 -112t53 -90.5
t84 -60.5t110.5 -22q60 0 109 24t81 70l79 -54q-42 -57 -109 -92.5t-161 -35.5z" />
    <glyph glyph-name="uni0422" unicode="&#x422;" horiz-adv-x="569" 
d="M235 621h-227v87h553v-87h-227v-621h-99v621z" />
    <glyph glyph-name="uni0423" unicode="&#x423;" horiz-adv-x="637" 
d="M137 -9q-23 0 -42.5 2t-34.5 5l14 90q24 -8 55 -8q38 0 61 19.5t45 61.5l35 64l-274 483h115l214 -388l206 388h110l-312 -570q-18 -33 -36 -60t-40 -46.5t-50.5 -30t-65.5 -10.5z" />
    <glyph glyph-name="uni0424" unicode="&#x424;" horiz-adv-x="854" 
d="M376 67q-74 1 -134.5 23t-104.5 61t-68 93.5t-24 120.5q0 70 24 124.5t68 92t104.5 58t134.5 22.5v64h101v-64q74 -2 135 -22.5t105 -58t68 -92t24 -124.5q0 -66 -24 -120.5t-68 -93.5t-105 -61t-135 -23v-85h-101v85zM376 576q-56 -3 -98.5 -20t-70.5 -45t-42 -65.5
t-14 -81.5q0 -93 56 -147.5t169 -62.5v422zM477 154q114 8 170 62.5t56 147.5q0 44 -14 81.5t-42.5 65.5t-70.5 45t-99 20v-422z" />
    <glyph glyph-name="uni0425" unicode="&#x425;" horiz-adv-x="668" 
d="M271 375l-228 333h121l170 -264l168 264h116l-226 -335l257 -373h-125l-194 298l-190 -298h-122z" />
    <glyph glyph-name="uni0426" unicode="&#x426;" horiz-adv-x="748" 
d="M628 0h-542v708h99v-620h355v620h99v-620h79v-256h-90v168z" />
    <glyph glyph-name="uni0427" unicode="&#x427;" horiz-adv-x="650" 
d="M465 286q-26 -8 -71.5 -15t-90.5 -7q-118 0 -174.5 47.5t-56.5 147.5v249h99v-231q0 -61 33 -94t110 -33q46 0 87.5 6t63.5 15v337h99v-708h-99v286z" />
    <glyph glyph-name="uni0428" unicode="&#x428;" horiz-adv-x="1061" 
d="M86 708h99v-620h296v620h99v-620h296v620h99v-708h-889v708z" />
    <glyph glyph-name="uni0429" unicode="&#x429;" horiz-adv-x="1084" 
d="M964 0h-878v708h99v-620h296v620h99v-620h296v620h99v-620h79v-256h-90v168z" />
    <glyph glyph-name="uni042A" unicode="&#x42a;" horiz-adv-x="697" 
d="M182 621h-172v87h271v-294h115q57 0 104.5 -12.5t82.5 -38t54.5 -64.5t19.5 -92t-19 -92t-53.5 -64.5t-82 -38t-104.5 -12.5h-216v621zM388 84q78 0 123.5 29t45.5 93q0 61 -44 92.5t-125 31.5h-107v-246h107z" />
    <glyph glyph-name="uni042B" unicode="&#x42b;" horiz-adv-x="848" 
d="M86 708h99v-294h114q57 0 105 -12.5t82.5 -38t54 -64.5t19.5 -92t-19 -92t-53.5 -64.5t-82 -38t-104.5 -12.5h-215v708zM291 84q79 0 124 29t45 93q0 61 -44 92.5t-125 31.5h-106v-246h106zM663 708h99v-708h-99v708z" />
    <glyph glyph-name="uni042C" unicode="&#x42c;" horiz-adv-x="600" 
d="M86 708h99v-294h114q57 0 105 -12.5t82.5 -38t54 -64.5t19.5 -92t-19 -92t-53.5 -64.5t-82 -38t-104.5 -12.5h-215v708zM291 84q79 0 124 29t45 93q0 61 -44 92.5t-125 31.5h-106v-246h106z" />
    <glyph glyph-name="uni042D" unicode="&#x42d;" horiz-adv-x="708" 
d="M286 -18q-95 0 -164 36.5t-107 91.5l75 54q34 -48 85 -71t111 -23q58 0 105 20t81.5 54.5t54 80.5t22.5 99h-331v85h329q-7 48 -28 89.5t-55 73t-79 49.5t-99 18q-66 0 -114 -25.5t-71 -57.5l-73 62q19 25 47 45.5t61.5 34t72 21t77.5 7.5q79 0 147 -27.5t118 -77
t78.5 -118t28.5 -149.5t-28 -149.5t-77.5 -118t-118 -77t-148.5 -27.5z" />
    <glyph glyph-name="uni042E" unicode="&#x42e;" horiz-adv-x="1072" 
d="M673 -19q-75 0 -137 25.5t-107.5 71.5t-72.5 109t-31 137h-140v-324h-99v708h99v-296h142q8 68 36.5 125.5t73.5 99.5t105 65.5t131 23.5q78 0 142.5 -28.5t110 -78.5t71 -118t25.5 -147q0 -78 -25.5 -146.5t-71 -118.5t-110 -79t-142.5 -29zM673 71q58 0 103 23.5
t76 62.5t47 90t16 107t-16 107.5t-47 90.5t-76 62.5t-103 23.5q-59 0 -104 -23.5t-76 -62.5t-47 -90.5t-16 -107.5t16 -107t47 -90t76 -62.5t104 -23.5z" />
    <glyph glyph-name="uni042F" unicode="&#x42f;" horiz-adv-x="615" 
d="M220 306q-78 17 -122 66.5t-44 130.5q0 53 18.5 91.5t52.5 64t82 37.5t107 12h215v-708h-99v295h-107l-174 -295h-120zM430 377v247h-108q-78 0 -123.5 -28.5t-45.5 -93.5q0 -63 45 -94t126 -31h106z" />
    <glyph glyph-name="uni0430" unicode="&#x430;" horiz-adv-x="542" 
d="M218 -12q-28 0 -58.5 7.5t-55.5 24.5t-41.5 45t-16.5 69q0 54 29 85.5t76 48t106 21.5t119 5v13q0 53 -32 78.5t-85 25.5q-40 0 -75.5 -15.5t-59.5 -39.5l-50 60q35 33 85.5 52t108.5 19q51 0 88.5 -14.5t61.5 -39.5t36 -59t12 -73v-207q0 -24 1.5 -50.5t5.5 -43.5h-85
q-8 34 -8 68h-3q-26 -38 -65.5 -59t-93.5 -21zM239 62q66 0 101.5 39.5t35.5 99.5v25h-23q-35 0 -72.5 -3t-68 -12t-50.5 -27t-20 -48q0 -21 8.5 -35t22.5 -23t31 -12.5t35 -3.5z" />
    <glyph glyph-name="uni0431" unicode="&#x431;" horiz-adv-x="619" 
d="M315 -13q-67 0 -117.5 23t-84.5 67q-14 18 -24.5 39t-17 48.5t-10 62.5t-3.5 80q0 84 7 154t30.5 121.5t67 83.5t115.5 41l133 16q35 5 56.5 14t28.5 33l68 -20q-12 -50 -40.5 -72.5t-82.5 -30.5l-131 -17q-45 -6 -78.5 -19t-55.5 -41.5t-33.5 -76t-13.5 -122.5h3
q30 59 82.5 86.5t120.5 27.5q50 0 92.5 -18t74 -51t49.5 -78.5t18 -100.5t-19.5 -101t-53.5 -79t-80.5 -51.5t-100.5 -18.5zM314 66q37 0 66.5 13.5t50 37t31.5 55t11 66.5t-11 66.5t-31.5 55t-50.5 37t-67 13.5t-66 -13.5t-49.5 -37t-31 -55t-10.5 -66.5t11 -66.5t31 -55
t49.5 -37t66.5 -13.5z" />
    <glyph glyph-name="uni0432" unicode="&#x432;" horiz-adv-x="546" 
d="M81 474h233q28 0 56.5 -5.5t51.5 -19.5t37.5 -37.5t14.5 -60.5t-22.5 -64.5t-59.5 -35.5v-2q45 -6 74.5 -35.5t29.5 -80.5q0 -63 -48.5 -98t-129.5 -35h-237v474zM303 75q42 0 69.5 15.5t27.5 50.5t-24 51t-68 16h-133v-133h128zM306 279q14 0 27.5 3t24.5 10.5t17.5 19
t6.5 28.5q0 34 -24 47.5t-62 13.5h-121v-122h131z" />
    <glyph glyph-name="uni0433" unicode="&#x433;" horiz-adv-x="424" 
d="M81 474h323v-77h-229v-397h-94v474z" />
    <glyph glyph-name="uni0434" unicode="&#x434;" horiz-adv-x="607" 
d="M18 78h52q29 38 50 103.5t21 168.5v124h365v-396h73v-223h-82v145h-397v-145h-82v223zM413 78v319h-182v-72q0 -89 -17 -146.5t-42 -100.5h241z" />
    <glyph glyph-name="uni0435" unicode="&#x435;" horiz-adv-x="573" 
d="M300 -13q-54 0 -100 18t-79 50.5t-52 78.5t-19 102q0 55 18.5 101.5t51.5 79.5t78 51.5t97 18.5t94.5 -17t72 -49t45.5 -77.5t16 -102.5v-16t-1 -16h-376q1 -30 13.5 -56.5t33.5 -46t48.5 -30.5t58.5 -11q48 0 83 21t55 51l66 -53q-38 -50 -89.5 -73.5t-114.5 -23.5z
M428 279q-1 28 -9.5 52.5t-25 42.5t-41 28.5t-57.5 10.5q-30 0 -56.5 -10.5t-46 -28.5t-32 -42.5t-14.5 -52.5h282z" />
    <glyph glyph-name="uni0436" unicode="&#x436;" horiz-adv-x="764" 
d="M228 248l-206 226h123l187 -220h3v220h94v-220h3l187 220h123l-207 -226l227 -248h-124l-206 234h-3v-234h-94v234h-3l-206 -234h-124z" />
    <glyph glyph-name="uni0437" unicode="&#x437;" horiz-adv-x="472" 
d="M227 -14q-66 0 -118 22t-87 67l64 55q19 -29 56 -49t80 -20q20 0 39 3.5t33.5 12t23.5 23t9 35.5t-10.5 35.5t-27.5 23t-39.5 12t-47.5 3.5h-35v70h34q48 0 80 16t32 56q0 35 -28 48.5t-67 13.5q-35 0 -66.5 -16.5t-50.5 -43.5l-60 51q26 39 75.5 61t109.5 22
q40 0 73.5 -8.5t57.5 -25t37.5 -40.5t13.5 -55q0 -41 -27.5 -70.5t-69.5 -38.5v-2q48 -8 79.5 -38t31.5 -78q0 -35 -15 -62t-41.5 -45.5t-62 -28t-76.5 -9.5z" />
    <glyph glyph-name="uni0438" unicode="&#x438;" horiz-adv-x="603" 
d="M81 474h94v-342h1l243 342h103v-474h-94v343h-2l-242 -343h-103v474z" />
    <glyph glyph-name="uni0439" unicode="&#x439;" horiz-adv-x="603" 
d="M297 570q-66 0 -104.5 36.5t-46.5 97.5l55 8q6 -37 32.5 -56.5t63.5 -19.5t63.5 19.5t32.5 56.5l55 -11q-8 -61 -47 -96t-104 -35zM81 474h94v-342h1l243 342h103v-474h-94v343h-2l-242 -343h-103v474z" />
    <glyph glyph-name="uni043A" unicode="&#x43a;" horiz-adv-x="526" 
d="M82 474h94v-217h3l200 217h125l-220 -225l240 -249h-127l-218 232h-3v-232h-94v474z" />
    <glyph glyph-name="uni043B" unicode="&#x43b;" horiz-adv-x="598" 
d="M73 -6q-6 0 -14.5 0.5t-17.5 1.5t-17 2.5t-12 2.5l8 79q15 -5 32 -5q24 0 43 11t31.5 38t19.5 72t7 113v165h364v-474h-94v397h-179v-113q0 -140 -39.5 -215t-131.5 -75z" />
    <glyph glyph-name="uni043C" unicode="&#x43c;" horiz-adv-x="740" 
d="M81 474h133l156 -346h1l154 346h134v-474h-93v363h-2l-167 -363h-57l-165 364h-1v-364h-93v474z" />
    <glyph glyph-name="uni043D" unicode="&#x43d;" horiz-adv-x="585" 
d="M81 474h94v-188h235v188h94v-474h-94v209h-235v-209h-94v474z" />
    <glyph glyph-name="uni043E" unicode="&#x43e;" horiz-adv-x="610" 
d="M305 -13q-54 0 -101 18.5t-81 52t-53.5 79.5t-19.5 101t19.5 100.5t53.5 78.5t81 51.5t101 18.5t101 -18.5t81.5 -51.5t54 -78.5t19.5 -100.5t-19.5 -101t-54 -79.5t-81.5 -52t-101 -18.5zM305 66q38 0 67.5 14t49.5 38t30.5 55t10.5 65t-10.5 65t-30.5 54.5t-49.5 37.5
t-67.5 14t-67.5 -14t-49.5 -37.5t-30.5 -54.5t-10.5 -65t10.5 -65t30.5 -55t49.5 -38t67.5 -14z" />
    <glyph glyph-name="uni043F" unicode="&#x43f;" horiz-adv-x="582" 
d="M81 474h420v-474h-94v397h-232v-397h-94v474z" />
    <glyph glyph-name="uni0440" unicode="&#x440;" horiz-adv-x="634" 
d="M81 474h92v-74h3q23 38 67.5 62.5t103.5 24.5q53 0 96.5 -19t75 -53t48.5 -79.5t17 -97.5t-17 -98t-48 -80t-75 -53.5t-99 -19.5q-51 0 -96 22t-71 62h-3v-311h-94v714zM329 66q39 0 68.5 14.5t49.5 38.5t30 55t10 64t-10 64t-30 55t-49.5 38t-68.5 14q-36 0 -65.5 -14
t-50.5 -38t-32.5 -55t-11.5 -65t11.5 -65t32.5 -54.5t50.5 -37.5t65.5 -14z" />
    <glyph glyph-name="uni0441" unicode="&#x441;" horiz-adv-x="494" 
d="M305 -13q-55 0 -101.5 18t-80.5 50.5t-53.5 78.5t-19.5 103q0 56 19 102t53 79t80.5 51t100.5 18q50 0 99.5 -20t78.5 -58l-68 -55q-15 23 -45 38.5t-64 15.5q-37 0 -65.5 -14t-48.5 -37.5t-30.5 -54.5t-10.5 -65t10.5 -65t30.5 -54.5t49 -37.5t66 -14q36 0 65.5 14
t48.5 38l63 -57q-30 -35 -75 -54.5t-102 -19.5z" />
    <glyph glyph-name="uni0442" unicode="&#x442;" horiz-adv-x="456" 
d="M181 397h-161v77h416v-77h-161v-397h-94v397z" />
    <glyph glyph-name="uni0443" unicode="&#x443;" horiz-adv-x="504" 
d="M100 -240q-15 0 -30.5 1.5t-31.5 5.5l9 83q24 -8 47 -8q37 0 55 20.5t33 58.5l30 79l-203 474h105l147 -372h2l131 372h100l-230 -586q-12 -30 -26 -53.5t-33 -40t-44.5 -25.5t-60.5 -9z" />
    <glyph glyph-name="uni0444" unicode="&#x444;" horiz-adv-x="743" 
d="M324 -15q-65 0 -116 18t-86.5 51t-54.5 79t-19 102q0 57 19 103t54.5 78.5t86.5 50t116 17.5v272h94v-272q65 0 116.5 -17.5t87 -50t54.5 -78.5t19 -103q0 -56 -19 -102t-54.5 -79t-87 -51t-116.5 -18v-225h-94v225zM324 406q-87 -2 -132.5 -46.5t-45.5 -123.5
q0 -81 45 -126.5t133 -46.5v343zM418 63q88 1 133.5 46.5t45.5 126.5q0 79 -46 123.5t-133 46.5v-343z" />
    <glyph glyph-name="uni0445" unicode="&#x445;" horiz-adv-x="511" 
d="M197 249l-173 225h116l116 -163l117 163h110l-171 -224l191 -250h-117l-132 185l-134 -185h-113z" />
    <glyph glyph-name="uni0446" unicode="&#x446;" horiz-adv-x="600" 
d="M492 0h-411v474h94v-395h232v395h94v-395h72v-224h-81v145z" />
    <glyph glyph-name="uni0447" unicode="&#x447;" horiz-adv-x="533" 
d="M358 185q-22 -6 -59 -11t-73 -5q-85 0 -123.5 39t-38.5 111v155h92v-134q0 -29 6.5 -47.5t19 -29t31 -14.5t41.5 -4q32 0 61 5.5t43 9.5v214h94v-474h-94v185z" />
    <glyph glyph-name="uni0448" unicode="&#x448;" horiz-adv-x="852" 
d="M81 474h94v-395h203v395h94v-395h202v395h94v-474h-687v474z" />
    <glyph glyph-name="uni0449" unicode="&#x449;" horiz-adv-x="868" 
d="M759 0h-678v474h94v-395h203v395h94v-395h202v395h94v-395h73v-223h-82v144z" />
    <glyph glyph-name="uni044A" unicode="&#x44a;" horiz-adv-x="586" 
d="M154 397h-134v77h228v-172h109q86 0 137.5 -37.5t51.5 -113.5q0 -75 -50.5 -113t-138.5 -38h-203v397zM345 75q55 0 80.5 18.5t25.5 56.5t-24.5 58t-81.5 20h-97v-153h97z" />
    <glyph glyph-name="uni044B" unicode="&#x44b;" horiz-adv-x="736" 
d="M81 474h94v-172h108q86 0 137.5 -37.5t51.5 -113.5q0 -75 -50.5 -113t-137.5 -38h-203v474zM272 75q54 0 79.5 18.5t25.5 56.5t-24 58t-81 20h-97v-153h97zM561 474h94v-474h-94v474z" />
    <glyph glyph-name="uni044C" unicode="&#x44c;" horiz-adv-x="507" 
d="M81 474h94v-172h108q86 0 137.5 -37.5t51.5 -113.5q0 -75 -50.5 -113t-137.5 -38h-203v474zM272 75q54 0 79.5 18.5t25.5 56.5t-24 58t-81 20h-97v-153h97z" />
    <glyph glyph-name="uni044D" unicode="&#x44d;" horiz-adv-x="500" 
d="M195 -13q-60 0 -106.5 20t-76.5 55l59 57q19 -22 50.5 -38t71.5 -16q68 0 110 39t49 104h-207v77h204q-4 26 -17 48.5t-33 39.5t-45.5 27t-53.5 10q-44 0 -75.5 -16.5t-49.5 -37.5q-14 15 -30 29.5t-30 28.5q29 35 78 54t103 19q57 0 104 -18.5t80.5 -51.5t51.5 -79
t18 -102t-18.5 -102t-52 -78.5t-80.5 -50.5t-104 -18z" />
    <glyph glyph-name="uni044E" unicode="&#x44e;" horiz-adv-x="814" 
d="M516 -14q-50 0 -92.5 16.5t-74.5 45.5t-52.5 70t-25.5 91h-96v-209h-94v474h94v-188h98q7 45 28.5 82t53.5 63.5t73 41t88 14.5q53 0 98.5 -18.5t78.5 -51.5t52 -79t19 -101t-19 -101t-52 -79.5t-78.5 -52t-98.5 -18.5zM516 66q35 0 63 13t47.5 36.5t30 54.5t10.5 67
t-10.5 67t-30 54.5t-47.5 36.5t-63 13t-63 -13t-47.5 -36.5t-30 -54.5t-10.5 -67t10.5 -67t30 -54.5t47.5 -36.5t63 -13z" />
    <glyph glyph-name="uni044F" unicode="&#x44f;" horiz-adv-x="547" 
d="M171 186q-51 13 -81 47.5t-30 91.5q0 37 13.5 65t38.5 47t58.5 28t74.5 9h221v-474h-94v177h-101l-108 -177h-115zM372 250v150h-111q-55 0 -82 -18t-27 -57q0 -75 109 -75h111z" />
    <glyph glyph-name="uni0450" unicode="&#x450;" horiz-adv-x="573" 
d="M124 708h113l100 -144h-77zM300 -13q-54 0 -100 18t-79 50.5t-52 78.5t-19 102q0 55 18.5 101.5t51.5 79.5t78 51.5t97 18.5t94.5 -17t72 -49t45.5 -77.5t16 -102.5v-16t-1 -16h-376q1 -30 13.5 -56.5t33.5 -46t48.5 -30.5t58.5 -11q48 0 83 21t55 51l66 -53
q-38 -50 -89.5 -73.5t-114.5 -23.5zM428 279q-1 28 -9.5 52.5t-25 42.5t-41 28.5t-57.5 10.5q-30 0 -56.5 -10.5t-46 -28.5t-32 -42.5t-14.5 -52.5h282z" />
    <glyph glyph-name="uni0451" unicode="&#x451;" horiz-adv-x="573" 
d="M140 645q0 24 17.5 42.5t44.5 18.5q26 0 44 -17.5t18 -43.5q0 -25 -18 -42.5t-44 -17.5q-27 0 -44.5 18.5t-17.5 41.5zM334 645q0 24 17.5 42.5t44.5 18.5q26 0 44 -17.5t18 -43.5q0 -25 -18 -42.5t-44 -17.5q-27 0 -44.5 18.5t-17.5 41.5zM300 -13q-54 0 -100 18
t-79 50.5t-52 78.5t-19 102q0 55 18.5 101.5t51.5 79.5t78 51.5t97 18.5t94.5 -17t72 -49t45.5 -77.5t16 -102.5v-16t-1 -16h-376q1 -30 13.5 -56.5t33.5 -46t48.5 -30.5t58.5 -11q48 0 83 21t55 51l66 -53q-38 -50 -89.5 -73.5t-114.5 -23.5zM428 279q-1 28 -9.5 52.5
t-25 42.5t-41 28.5t-57.5 10.5q-30 0 -56.5 -10.5t-46 -28.5t-32 -42.5t-14.5 -52.5h282z" />
    <glyph glyph-name="uni0452" unicode="&#x452;" horiz-adv-x="584" 
d="M337 -240q-17 0 -34 2t-31 6l12 78q10 -2 20.5 -4t23.5 -2q26 0 42.5 8.5t25.5 23.5t12.5 35.5t3.5 44.5v306q0 29 -4.5 55t-16.5 46t-32.5 32t-53.5 12q-56 0 -92 -42.5t-36 -113.5v-247h-94v564h-79v72h79v120h94v-120h151v-72h-151v-166h2q17 35 58 60t92 25
q46 0 79 -15.5t55 -41.5t32.5 -61t10.5 -75v-345q0 -84 -41.5 -134.5t-127.5 -50.5z" />
    <glyph glyph-name="uni0453" unicode="&#x453;" horiz-adv-x="424" 
d="M252 564h-77l100 144h113zM81 474h323v-77h-229v-397h-94v474z" />
    <glyph glyph-name="uni0454" unicode="&#x454;" horiz-adv-x="500" 
d="M305 -13q-57 0 -104 18t-80.5 50.5t-52 78.5t-18.5 102t18 102t51.5 79t80.5 51.5t104 18.5q54 0 103 -19t78 -54q-14 -14 -30 -28.5t-30 -29.5q-18 21 -49.5 37.5t-75.5 16.5q-29 0 -54 -10t-45 -27t-33 -39.5t-17 -48.5h204v-77h-207q7 -65 49 -104t110 -39
q40 0 71.5 16t50.5 38l59 -57q-30 -35 -76.5 -55t-106.5 -20z" />
    <glyph glyph-name="uni0455" unicode="&#x455;" horiz-adv-x="444" 
d="M217 -13q-54 0 -105.5 21t-85.5 64l67 57q19 -28 52.5 -47t73.5 -19q18 0 34.5 3.5t30 11.5t21.5 21t8 33q0 33 -31.5 49t-92.5 30q-24 6 -48.5 14.5t-44.5 23.5t-32.5 37.5t-12.5 55.5q0 38 15.5 65.5t40.5 45t57 26t66 8.5q51 0 98.5 -20t73.5 -58l-65 -55
q-16 26 -45 42.5t-65 16.5q-16 0 -32 -3.5t-28.5 -11t-20 -19t-7.5 -28.5q0 -30 27 -44.5t81 -26.5q34 -8 63 -19t50.5 -27.5t33.5 -39.5t12 -54q0 -42 -16 -71t-42.5 -47.5t-60.5 -26.5t-70 -8z" />
    <glyph glyph-name="uni0456" unicode="&#x456;" horiz-adv-x="259" 
d="M82 474h94v-474h-94v474zM129 585q-26 0 -44 17.5t-18 42.5q0 26 18 43.5t44 17.5t44.5 -17.5t18.5 -43.5t-18.5 -43t-44.5 -17z" />
    <glyph glyph-name="uni0457" unicode="&#x457;" horiz-adv-x="259" 
d="M-30 645q0 24 17.5 42.5t44.5 18.5q26 0 44 -17.5t18 -43.5q0 -25 -18 -42.5t-44 -17.5q-27 0 -44.5 18.5t-17.5 41.5zM164 645q0 24 17.5 42.5t44.5 18.5q26 0 44 -17.5t18 -43.5q0 -25 -18 -42.5t-44 -17.5q-27 0 -44.5 18.5t-17.5 41.5zM176 0h-94v474h94v-474z" />
    <glyph glyph-name="uni0458" unicode="&#x458;" horiz-adv-x="260" 
d="M23 -240q-13 0 -28 2t-26 4l10 80q20 -5 38 -5q21 0 34 8t20 21.5t9.5 32t2.5 39.5v532h94v-535q0 -36 -6.5 -68t-23.5 -57t-47 -39.5t-77 -14.5zM130 585q-26 0 -44.5 17.5t-18.5 42.5q0 26 18.5 43.5t44.5 17.5t44.5 -17.5t18.5 -43.5t-18.5 -43t-44.5 -17z" />
    <glyph glyph-name="uni0459" unicode="&#x459;" horiz-adv-x="850" 
d="M73 -6q-6 0 -14.5 0.5t-17.5 1.5t-17 2.5t-12 2.5l8 79q15 -5 32 -5q24 0 43 11t31.5 38t19.5 72t7 113v165h364v-172h109q86 0 137.5 -37.5t51.5 -113.5q0 -75 -50.5 -113t-138.5 -38h-203v397h-179v-113q0 -140 -39.5 -215t-131.5 -75zM614 75q55 0 80.5 18.5
t25.5 56.5t-24.5 58t-81.5 20h-97v-153h97z" />
    <glyph glyph-name="uni045A" unicode="&#x45a;" horiz-adv-x="839" 
d="M81 474h94v-182h235v182h94v-182h110q43 0 78 -8.5t60 -26.5t38.5 -46t13.5 -66q0 -74 -51 -109.5t-138 -35.5h-205v219h-235v-219h-94v474zM610 74q98 0 98 71q0 36 -23 55t-75 19h-106v-145h106z" />
    <glyph glyph-name="uni045B" unicode="&#x45b;" horiz-adv-x="584" 
d="M83 564h-79v72h79v120h94v-120h151v-72h-151v-166h2q17 35 58 60t92 25q46 0 79 -15.5t55 -41.5t32.5 -61t10.5 -75v-290h-94v258q0 29 -4.5 55t-16.5 46t-32.5 32t-53.5 12q-56 0 -92 -42.5t-36 -113.5v-247h-94v564z" />
    <glyph glyph-name="uni045C" unicode="&#x45c;" horiz-adv-x="526" 
d="M316 564h-77l100 144h113zM82 474h94v-217h3l200 217h125l-220 -225l240 -249h-127l-218 232h-3v-232h-94v474z" />
    <glyph glyph-name="uni045D" unicode="&#x45d;" horiz-adv-x="603" 
d="M135 708h113l100 -144h-77zM81 474h94v-342h1l243 342h103v-474h-94v343h-2l-242 -343h-103v474z" />
    <glyph glyph-name="uni045E" unicode="&#x45e;" horiz-adv-x="504" 
d="M260 570q-66 0 -104.5 36.5t-46.5 97.5l55 8q6 -37 32.5 -56.5t63.5 -19.5t63.5 19.5t32.5 56.5l55 -11q-8 -61 -47 -96t-104 -35zM100 -240q-15 0 -30.5 1.5t-31.5 5.5l9 83q24 -8 47 -8q37 0 55 20.5t33 58.5l30 79l-203 474h105l147 -372h2l131 372h100l-230 -586
q-12 -30 -26 -53.5t-33 -40t-44.5 -25.5t-60.5 -9z" />
    <glyph glyph-name="uni045F" unicode="&#x45f;" horiz-adv-x="582" 
d="M249 0h-168v474h94v-395h232v395h94v-474h-170v-145h-82v145z" />
    <glyph glyph-name="uni0490" unicode="&#x490;" horiz-adv-x="507" 
d="M86 708h326v140h87v-227h-314v-621h-99v708z" />
    <glyph glyph-name="uni0491" unicode="&#x491;" horiz-adv-x="424" 
d="M81 474h244v121h79v-198h-229v-397h-94v474z" />
    <glyph glyph-name="Wgrave" unicode="&#x1e80;" horiz-adv-x="988" 
d="M273 144h2l166 564h109l165 -564h2l156 564h105l-208 -708h-103l-172 569h-2l-172 -569h-103l-208 708h107zM328 908h114l100 -144h-77z" />
    <glyph glyph-name="wgrave" unicode="&#x1e81;" horiz-adv-x="773" 
d="M116 474l107 -362h2l113 362h99l115 -362h2l107 362h99l-157 -474h-98l-117 356h-2l-116 -356h-98l-158 474h102zM216 708h113l100 -144h-77z" />
    <glyph glyph-name="Wacute" unicode="&#x1e82;" horiz-adv-x="988" 
d="M273 144h2l166 564h109l165 -564h2l156 564h105l-208 -708h-103l-172 569h-2l-172 -569h-103l-208 708h107zM525 764h-76l99 144h114z" />
    <glyph glyph-name="wacute" unicode="&#x1e83;" horiz-adv-x="773" 
d="M116 474l107 -362h2l113 362h99l115 -362h2l107 362h99l-157 -474h-98l-117 356h-2l-116 -356h-98l-158 474h102zM423 564h-77l100 144h113z" />
    <glyph glyph-name="Wdieresis" unicode="&#x1e84;" horiz-adv-x="988" 
d="M273 144h2l166 564h109l165 -564h2l156 564h105l-208 -708h-103l-172 569h-2l-172 -569h-103l-208 708h107zM335 845q0 24 17.5 42.5t44.5 18.5q26 0 44 -17.5t18 -43.5q0 -25 -18 -42.5t-44 -17.5q-27 0 -44.5 18.5t-17.5 41.5zM529 845q0 24 17.5 42.5t44.5 18.5
q26 0 44 -17.5t18 -43.5q0 -25 -18 -42.5t-44 -17.5q-27 0 -44.5 18.5t-17.5 41.5z" />
    <glyph glyph-name="wdieresis" unicode="&#x1e85;" horiz-adv-x="773" 
d="M116 474l107 -362h2l113 362h99l115 -362h2l107 362h99l-157 -474h-98l-117 356h-2l-116 -356h-98l-158 474h102zM228 645q0 24 17.5 42.5t44.5 18.5q26 0 44 -17.5t18 -43.5q0 -25 -18 -42.5t-44 -17.5q-27 0 -44.5 18.5t-17.5 41.5zM422 645q0 24 17.5 42.5t44.5 18.5
q26 0 44 -17.5t18 -43.5q0 -25 -18 -42.5t-44 -17.5q-27 0 -44.5 18.5t-17.5 41.5z" />
    <glyph glyph-name="Ygrave" unicode="&#x1ef2;" horiz-adv-x="624" 
d="M362 0h-100v306l-265 402h122l196 -320l197 320h115l-265 -402v-306zM151 908h114l100 -144h-77z" />
    <glyph glyph-name="ygrave" unicode="&#x1ef3;" horiz-adv-x="504" 
d="M261 102h2l131 372h100l-230 -586q-12 -30 -26 -53.5t-33 -40t-44.5 -25.5t-60.5 -9q-15 0 -30.5 1.5t-31.5 5.5l9 83q24 -8 47 -8q37 0 55 20.5t33 58.5l30 79l-203 474h105zM92 708h113l100 -144h-77z" />
    <glyph glyph-name="uni2010" unicode="&#x2010;" horiz-adv-x="320" 
d="M276 204h-232v80h232v-80z" />
    <glyph glyph-name="endash" unicode="&#x2013;" horiz-adv-x="400" 
d="M370 207h-340v75h340v-75z" />
    <glyph glyph-name="emdash" unicode="&#x2014;" horiz-adv-x="600" 
d="M570 207h-540v75h540v-75z" />
    <glyph glyph-name="quoteleft" unicode="&#x2018;" horiz-adv-x="246" 
d="M125 708h79l-68 -250h-94z" />
    <glyph glyph-name="quoteright" unicode="&#x2019;" horiz-adv-x="246" 
d="M121 458h-79l69 250h93z" />
    <glyph glyph-name="quotesinglbase" unicode="&#x201a;" horiz-adv-x="246" 
d="M121 -133h-79l69 250h93z" />
    <glyph glyph-name="quotedblleft" unicode="&#x201c;" horiz-adv-x="426" 
d="M125 708h79l-68 -250h-94zM305 708h79l-68 -250h-94z" />
    <glyph glyph-name="quotedblright" unicode="&#x201d;" horiz-adv-x="426" 
d="M301 458h-79l69 250h93zM121 458h-79l69 250h93z" />
    <glyph glyph-name="quotedblbase" unicode="&#x201e;" horiz-adv-x="426" 
d="M301 -133h-79l69 250h93zM121 -133h-79l69 250h93z" />
    <glyph glyph-name="dagger" unicode="&#x2020;" horiz-adv-x="575" 
d="M332 505h202v-79h-202v-552h-90v552h-201v79h201v203h90v-203z" />
    <glyph glyph-name="daggerdbl" unicode="&#x2021;" horiz-adv-x="575" 
d="M332 520h194v-79h-194v-300h194v-78h-194v-189h-90v189h-194v78h194v300h-194v79h194v188h90v-188z" />
    <glyph glyph-name="bullet" unicode="&#x2022;" horiz-adv-x="500" 
d="M73 354q0 37 14 69t38 56t56 38t69 14t69 -14t56 -38t38 -56t14 -69t-14 -69t-38 -56t-56 -38t-69 -14t-69 14t-56 38t-38 56t-14 69z" />
    <glyph glyph-name="ellipsis" unicode="&#x2026;" horiz-adv-x="1000" 
d="M87 70q0 32 23.5 55t56.5 23q32 0 56 -22t24 -54t-23.5 -55t-56.5 -23q-16 0 -30.5 6t-25.5 16t-17.5 24t-6.5 30zM420 70q0 32 23.5 55t56.5 23q32 0 56 -22t24 -54t-23.5 -55t-56.5 -23q-16 0 -30.5 6t-25.5 16t-17.5 24t-6.5 30zM753 70q0 32 23.5 55t56.5 23
q32 0 56 -22t24 -54t-23.5 -55t-56.5 -23q-16 0 -30.5 6t-25.5 16t-17.5 24t-6.5 30z" />
    <glyph glyph-name="perthousand" unicode="&#x2030;" horiz-adv-x="1048" 
d="M39 563q0 33 12.5 62t34 50.5t50.5 34t62 12.5t62.5 -12.5t51 -34t34 -50.5t12.5 -62t-12.5 -62t-34 -50.5t-51 -34t-62.5 -12.5t-62 12.5t-50.5 34t-34 50.5t-12.5 62zM283 563q0 35 -25 59.5t-60 24.5q-17 0 -32.5 -6.5t-27 -18t-18 -26.5t-6.5 -33t6.5 -33.5t18 -27
t27 -18t32.5 -6.5q35 0 60 25t25 60zM344 148q0 33 12.5 62t34 50.5t50.5 34t62 12.5t62.5 -12.5t51 -34t34 -50.5t12.5 -62t-12.5 -62t-34 -50.5t-51 -34t-62.5 -12.5t-62 12.5t-50.5 34t-34 50.5t-12.5 62zM588 148q0 35 -25 59.5t-60 24.5q-17 0 -32.5 -6.5t-27 -18
t-18 -26.5t-6.5 -33t6.5 -33.5t18 -27t27 -18t32.5 -6.5q35 0 60 25t25 60zM696 148q0 33 12.5 62t34 50.5t50.5 34t62 12.5t62.5 -12.5t51 -34t34 -50.5t12.5 -62t-12.5 -62t-34 -50.5t-51 -34t-62.5 -12.5t-62 12.5t-50.5 34t-34 50.5t-12.5 62zM940 148q0 35 -25 59.5
t-60 24.5q-17 0 -32.5 -6.5t-27 -18t-18 -26.5t-6.5 -33t6.5 -33.5t18 -27t27 -18t32.5 -6.5q35 0 60 25t25 60zM143 -32l-56 32l470 739l55 -32z" />
    <glyph glyph-name="guilsinglleft" unicode="&#x2039;" horiz-adv-x="298" 
d="M248 69l-62 -43l-146 218l146 217l62 -42l-115 -175z" />
    <glyph glyph-name="guilsinglright" unicode="&#x203a;" horiz-adv-x="298" 
d="M50 419l62 42l146 -218l-146 -217l-61 43l115 174z" />
    <glyph glyph-name="uni203D" unicode="&#x203d;" horiz-adv-x="500" 
d="M210 200l-1 323h88l-4 -142h1q9 11 20 23.5t22 25.5q23 26 32 49.5t9 51.5q0 50 -31.5 80t-85.5 30t-85.5 -32.5t-36.5 -81.5l-90 11q6 43 25 77.5t47 58.5t65 36.5t79 12.5t79 -12t64.5 -35.5t44 -58t16.5 -79.5q0 -30 -7 -54.5t-19 -45.5t-29.5 -39.5t-38.5 -37.5
q-20 -18 -34 -32t-23 -28t-13 -30.5t-4 -38.5v-32h-90zM325 60q0 -27 -19 -46.5t-48 -19.5q-28 0 -47.5 19t-19.5 46q0 26 19 46t48 20t48 -19.5t19 -45.5z" />
    <glyph glyph-name="fraction" unicode="&#x2044;" horiz-adv-x="100" 
d="M-144 -32l-66 33l434 739l64 -33z" />
    <glyph glyph-name="uni2070" unicode="&#x2070;" horiz-adv-x="385" 
d="M342 664q0 -46 -8.5 -86.5t-26.5 -70.5t-46 -47t-68 -17q-41 0 -69.5 17t-46.5 47t-26.5 70.5t-8.5 86.5t8.5 86t27 69.5t47 46.5t68.5 17q39 0 67.5 -17t46.5 -46.5t26.5 -69.5t8.5 -86zM265 664q0 26 -3.5 53t-11.5 49t-22 36t-35 14q-22 0 -36 -14t-22.5 -36t-12 -49
t-3.5 -53q0 -27 3.5 -54.5t12 -49.5t22.5 -36t36 -14q21 0 35 14t22 36t11.5 49.5t3.5 54.5z" />
    <glyph glyph-name="uni2074" unicode="&#x2074;" horiz-adv-x="385" 
d="M291 608h59v-67h-59v-91h-71v91h-189v64l177 271h83v-268zM217 782l-109 -174h112v174h-3z" />
    <glyph glyph-name="uni2075" unicode="&#x2075;" horiz-adv-x="385" 
d="M335 592q0 -34 -11.5 -61.5t-31.5 -47t-47.5 -30t-59.5 -10.5q-53 0 -89.5 25.5t-53.5 70.5l68 25q11 -26 30 -40t45 -14q33 0 54 21t21 56q0 38 -24 58t-61 20q-23 0 -49.5 -8t-50.5 -22l5 241h239v-68h-166l-3 -85q10 3 21 4.5t21 1.5q63 0 103 -37t40 -100z" />
    <glyph glyph-name="uni2076" unicode="&#x2076;" horiz-adv-x="385" 
d="M342 588q0 -32 -11.5 -59t-31.5 -46t-47.5 -29.5t-58.5 -10.5q-32 0 -59.5 11t-47.5 30.5t-31.5 45.5t-11.5 57q0 34 11 62t29 57l108 170h91l-104 -155l1 -1q7 2 15 3t14 1q28 0 52.5 -10t42.5 -28t28.5 -43t10.5 -55zM267 586q0 32 -20.5 53.5t-53.5 21.5
q-34 0 -54.5 -21.5t-20.5 -53.5q0 -31 20.5 -53.5t53.5 -22.5t54 22t21 54z" />
    <glyph glyph-name="uni2077" unicode="&#x2077;" horiz-adv-x="385" 
d="M81 450l169 358h-193v68h277v-60l-167 -366h-86z" />
    <glyph glyph-name="uni2078" unicode="&#x2078;" horiz-adv-x="385" 
d="M337 572q0 -30 -11.5 -54t-31.5 -40.5t-46 -25.5t-56 -9t-56 9t-46 25.5t-31.5 40.5t-11.5 54q0 37 18 62.5t46 39.5v1q-25 14 -38.5 37.5t-13.5 52.5q0 27 10.5 49t29 37t42.5 23.5t51 8.5t51 -8t42.5 -23.5t29 -37t10.5 -48.5q0 -29 -14 -53t-37 -38v-1q29 -13 46 -40
t17 -62zM192 818q-24 0 -40.5 -15.5t-16.5 -40.5q0 -24 16.5 -40.5t40.5 -16.5q23 0 40 16.5t17 40.5q0 25 -17 40.5t-40 15.5zM192 642q-30 0 -50 -19t-20 -48t20 -47.5t50 -18.5t50 18.5t20 47.5t-20 48t-50 19z" />
    <glyph glyph-name="uni2079" unicode="&#x2079;" horiz-adv-x="385" 
d="M43 738q0 32 11.5 59t31.5 46t47 29.5t59 10.5t59.5 -11t47.5 -30.5t31.5 -45.5t11.5 -57q0 -34 -11 -62t-29 -57l-108 -170h-91l104 155l-1 1q-7 -2 -15 -3t-14 -1q-28 0 -52.5 10t-42.5 28t-28.5 43t-10.5 55zM118 740q0 -32 20.5 -53t53.5 -21q34 0 54.5 21t20.5 53
q0 31 -20.5 53.5t-53.5 22.5t-54 -22t-21 -54z" />
    <glyph glyph-name="uni2080" unicode="&#x2080;" horiz-adv-x="385" 
d="M342 74q0 -46 -8.5 -86.5t-26.5 -70.5t-46 -47t-68 -17q-41 0 -69.5 17t-46.5 47t-26.5 70.5t-8.5 86.5t8.5 86t27 69.5t47 46.5t68.5 17q39 0 67.5 -17t46.5 -46.5t26.5 -69.5t8.5 -86zM265 74q0 26 -3.5 53t-11.5 49t-22 36t-35 14q-22 0 -36 -14t-22.5 -36t-12 -49
t-3.5 -53q0 -27 3.5 -54.5t12 -49.5t22.5 -36t36 -14q21 0 35 14t22 36t11.5 49.5t3.5 54.5z" />
    <glyph glyph-name="uni2081" unicode="&#x2081;" horiz-adv-x="385" 
d="M247 -140h-78v332l-68 -59l-46 51l125 102h67v-426z" />
    <glyph glyph-name="uni2082" unicode="&#x2082;" horiz-adv-x="385" 
d="M333 -140h-283v67l164 165q16 17 28 35.5t12 42.5q0 26 -17 40.5t-43 14.5q-27 0 -45 -18.5t-23 -49.5l-74 10q8 55 47 90.5t95 35.5q27 0 52 -7.5t44 -23t30.5 -38.5t11.5 -54q0 -43 -21.5 -73t-48.5 -56l-114 -112h185v-69z" />
    <glyph glyph-name="uni2083" unicode="&#x2083;" horiz-adv-x="385" 
d="M143 111h27q32 0 56 14t24 49q0 24 -18 38.5t-43 14.5q-22 0 -39.5 -14t-26.5 -37l-68 23q18 45 54.5 69.5t81.5 24.5q28 0 52.5 -7t43 -21.5t29 -36.5t10.5 -51q0 -34 -18 -58t-44 -35q32 -10 52.5 -37t20.5 -64q0 -33 -12.5 -57t-33 -40.5t-46.5 -24.5t-54 -8
q-51 0 -91 24.5t-60 80.5l71 22q9 -27 29 -43.5t49 -16.5q27 0 50 15.5t23 49.5q0 19 -8.5 31t-21.5 19.5t-29.5 10.5t-32.5 3h-27v62z" />
    <glyph glyph-name="uni2084" unicode="&#x2084;" horiz-adv-x="385" 
d="M291 18h59v-67h-59v-91h-71v91h-189v64l177 271h83v-268zM217 192l-109 -174h112v174h-3z" />
    <glyph glyph-name="uni2085" unicode="&#x2085;" horiz-adv-x="385" 
d="M335 2q0 -34 -11.5 -61.5t-31.5 -47t-47.5 -30t-59.5 -10.5q-53 0 -89.5 25.5t-53.5 70.5l68 25q11 -26 30 -40t45 -14q33 0 54 21t21 56q0 38 -24 58t-61 20q-23 0 -49.5 -8t-50.5 -22l5 241h239v-68h-166l-3 -85q10 3 21 4.5t21 1.5q63 0 103 -37t40 -100z" />
    <glyph glyph-name="uni2086" unicode="&#x2086;" horiz-adv-x="385" 
d="M342 -2q0 -32 -11.5 -59t-31.5 -46t-47.5 -29.5t-58.5 -10.5q-32 0 -59.5 11t-47.5 30.5t-31.5 45.5t-11.5 57q0 34 11 62t29 57l108 170h91l-104 -155l1 -1q7 2 15 3t14 1q28 0 52.5 -10t42.5 -28t28.5 -43t10.5 -55zM267 -4q0 32 -20.5 53.5t-53.5 21.5
q-34 0 -54.5 -21.5t-20.5 -53.5q0 -31 20.5 -53.5t53.5 -22.5t54 22t21 54z" />
    <glyph glyph-name="uni2087" unicode="&#x2087;" horiz-adv-x="385" 
d="M81 -140l169 358h-193v68h277v-60l-167 -366h-86z" />
    <glyph glyph-name="uni2088" unicode="&#x2088;" horiz-adv-x="385" 
d="M337 -18q0 -30 -11.5 -54t-31.5 -40.5t-46 -25.5t-56 -9t-56 9t-46 25.5t-31.5 40.5t-11.5 54q0 37 18 62.5t46 39.5v1q-25 14 -38.5 37.5t-13.5 52.5q0 27 10.5 49t29 37t42.5 23.5t51 8.5t51 -8t42.5 -23.5t29 -37t10.5 -48.5q0 -29 -14 -53t-37 -38v-1q29 -13 46 -40
t17 -62zM192 228q-24 0 -40.5 -15.5t-16.5 -40.5q0 -24 16.5 -40.5t40.5 -16.5q23 0 40 16.5t17 40.5q0 25 -17 40.5t-40 15.5zM192 52q-30 0 -50 -19t-20 -48t20 -47.5t50 -18.5t50 18.5t20 47.5t-20 48t-50 19z" />
    <glyph glyph-name="uni2089" unicode="&#x2089;" horiz-adv-x="385" 
d="M43 148q0 32 11.5 59t31.5 46t47 29.5t59 10.5t59.5 -11t47.5 -30.5t31.5 -45.5t11.5 -57q0 -34 -11 -62t-29 -57l-108 -170h-91l104 155l-1 1q-7 -2 -15 -3t-14 -1q-28 0 -52.5 10t-42.5 28t-28.5 43t-10.5 55zM118 150q0 -32 20.5 -53t53.5 -21q34 0 54.5 21t20.5 53
q0 31 -20.5 53.5t-53.5 22.5t-54 -22t-21 -54z" />
    <glyph glyph-name="Euro" unicode="&#x20ac;" horiz-adv-x="595" 
d="M527 613q-25 14 -57.5 21.5t-70.5 7.5q-37 0 -69.5 -11.5t-59.5 -32.5t-46.5 -51.5t-29.5 -68.5h294l-23 -71h-285q-2 -13 -3 -27.5t-1 -29.5q0 -11 0.5 -25t2.5 -25h256l-23 -71h-222q7 -36 25.5 -65.5t46 -51t62 -33.5t74.5 -12q39 0 72 8.5t62 27.5l35 -76
q-32 -21 -76.5 -33t-98.5 -12q-65 0 -115.5 20.5t-88 54.5t-61 78.5t-33.5 93.5h-80l24 71h47q-1 11 -1.5 24.5t-0.5 25.5q0 14 0.5 30t2.5 27h-70l25 71h56q14 58 42.5 104t68 78t89.5 49t107 17q45 0 85.5 -9t68.5 -24l-31 -80v0z" />
    <glyph glyph-name="uni2105" unicode="&#x2105;" horiz-adv-x="890" 
d="M257 -32l-68 33l434 739l67 -33zM842 166q0 -39 -14 -71.5t-38.5 -56.5t-58 -37t-72.5 -13t-72 13t-57.5 37t-38.5 56.5t-14 71.5t14 71t38.5 55.5t57.5 36.5t72 13t72.5 -13t58 -36.5t38.5 -55.5t14 -71zM752 166q0 20 -6 38t-18 32t-29.5 22.5t-39.5 8.5
q-44 0 -68 -30.5t-24 -70.5q0 -20 6 -39t18 -33t29 -22.5t39 -8.5t39.5 8.5t29.5 22.5t18 33t6 39zM294 609q-13 17 -30 27t-40 10q-22 0 -39 -8.5t-28.5 -22.5t-17.5 -32.5t-6 -38.5t6 -38.5t18 -32.5t29 -22.5t38 -8.5q26 0 43 11t33 29l60 -53q-26 -29 -60 -45.5
t-76 -16.5q-39 0 -72.5 12.5t-58 36t-38.5 56t-14 72.5q0 39 14 72t38 56t57.5 36t72.5 13q41 0 76 -13.5t60 -45.5z" />
    <glyph glyph-name="uni2113" unicode="&#x2113;" horiz-adv-x="500" 
d="M428 44q-65 -58 -143 -58q-63 0 -100.5 34.5t-37.5 99.5v91l-58 -57h-2l-33 48l92 85v253q0 42 11 75.5t30.5 57t46 36t57.5 12.5q55 0 88.5 -36t33.5 -99q0 -75 -44.5 -152t-132.5 -162v-138q0 -24 6.5 -39.5t16.5 -25t22.5 -13t24.5 -3.5q43 0 88 38h2zM339 580
q0 35 -14 57.5t-35 22.5q-22 0 -38 -26t-16 -79v-205q51 59 77 118t26 112z" />
    <glyph glyph-name="uni2116" unicode="&#x2116;" horiz-adv-x="1045" 
d="M86 708h119l311 -556h3v556h97v-708h-119l-311 557h-2v-557h-98v708zM720 362h285v-65h-285v65zM862 420q-33 0 -61 11t-48 30.5t-31.5 47t-11.5 59.5q0 33 11.5 60t31.5 46.5t48 30.5t61 11t61 -11t48 -30.5t31.5 -46.5t11.5 -60q0 -32 -11.5 -59.5t-31.5 -47t-48 -30.5
t-61 -11zM862 486q38 0 57.5 25t19.5 57q0 33 -19.5 57.5t-57.5 24.5t-57 -24.5t-19 -57.5q0 -32 19 -57t57 -25z" />
    <glyph glyph-name="uni2117" unicode="&#x2117;" horiz-adv-x="800" 
d="M20 353q0 79 30 147.5t81.5 119.5t121 80.5t148.5 29.5q78 0 147 -29.5t120.5 -80.5t81.5 -119.5t30 -147.5q0 -78 -30 -146.5t-81.5 -119.5t-120.5 -80t-147 -29q-79 0 -148.5 29t-121 80t-81.5 119.5t-30 146.5zM80 353q0 -66 25.5 -124t69 -101.5t102 -68.5t124.5 -25
t124 25t101.5 68.5t68.5 101.5t25 124t-25 124.5t-68.5 102t-101.5 69t-124 25.5t-124.5 -25.5t-102 -69t-69 -102t-25.5 -124.5zM272 567h163q78 0 122.5 -36.5t44.5 -103.5q0 -33 -12.5 -59.5t-34.5 -44.5t-53 -27.5t-68 -9.5h-81v-157h-81v438zM434 354q87 0 87 73
q0 72 -86 72h-82v-145h81z" />
    <glyph glyph-name="trademark" unicode="&#x2122;" horiz-adv-x="1000" 
d="M393 636h-127v-340h-81v340h-129v72h337v-72zM937 296h-82v307h-2l-119 -307h-55l-120 307h-2v-307h-81v412h118l113 -292l113 292h117v-412z" />
    <glyph glyph-name="Omega" unicode="&#x2126;" horiz-adv-x="774" 
d="M438 0v172q84 20 130.5 78.5t46.5 155.5q0 39 -11.5 80t-38.5 74.5t-70.5 55.5t-107.5 22q-61 0 -104 -20.5t-70.5 -53.5t-40.5 -74.5t-13 -83.5q0 -100 48 -157t129 -77v-172h-275v82h198v25q-53 18 -91.5 48.5t-63.5 69.5t-37 85t-12 94q0 75 26.5 135t72 101t105.5 63
t128 22q72 0 133 -23.5t105 -65.5t69 -101t25 -130q0 -106 -51.5 -185t-152.5 -113v-25h198v-82h-275z" />
    <glyph glyph-name="estimated" unicode="&#x212e;" horiz-adv-x="500" 
d="M157 259v-181q59 -59 145 -59q63 0 109 28.5t84 91.5l35 -21q-23 -36 -46.5 -61.5t-51 -42t-59.5 -24t-71 -7.5q-59 0 -106.5 21.5t-81.5 59t-52 87.5t-18 108t18 108.5t52 87.5t81.5 58.5t106.5 21.5q58 0 105.5 -20.5t81.5 -57t53 -87t19 -111.5h-404zM448 295v145
q-63 60 -147 60t-144 -60v-145h291z" />
    <glyph glyph-name="partialdiff" unicode="&#x2202;" horiz-adv-x="523" 
d="M481 360q0 -59 -9 -124.5t-35 -120.5t-72.5 -91t-121.5 -36q-48 0 -86.5 18t-65.5 48.5t-41.5 71.5t-14.5 87q0 45 14 84.5t40.5 69t64 46t84.5 16.5q46 0 85.5 -19t70.5 -51q0 10 0.5 20t0.5 21q0 39 -8 83t-27 81.5t-51 62t-81 24.5q-35 0 -62.5 -13t-53.5 -34l-47 55
q37 29 74 45.5t85 16.5q75 0 124.5 -33t79 -85.5t41.5 -116.5t12 -126zM391 271q-23 42 -60 66t-82 24q-33 0 -57.5 -12.5t-41 -33.5t-24.5 -48.5t-8 -57.5q0 -29 7.5 -56.5t23.5 -49.5t40 -35.5t56 -13.5q40 0 67.5 22t44.5 54.5t25 70.5t9 70z" />
    <glyph glyph-name="Delta" unicode="&#x2206;" horiz-adv-x="706" 
d="M25 0v65l284 643h90l282 -643v-65h-656zM351 593l-208 -505h417z" />
    <glyph glyph-name="product" unicode="&#x220f;" horiz-adv-x="726" 
d="M570 -214v917h-413v-917h-91v1000h594v-1000h-90z" />
    <glyph glyph-name="summation" unicode="&#x2211;" horiz-adv-x="626" 
d="M25 -214v72l316 433l-303 422v73h551v-83h-432l292 -412l-311 -423h463v-82h-576z" />
    <glyph glyph-name="minus" unicode="&#x2212;" horiz-adv-x="666" 
d="M596 262h-526v82h526v-82z" />
    <glyph glyph-name="uni2215" unicode="&#x2215;" horiz-adv-x="100" 
d="M-144 -32l-66 33l434 739l64 -33z" />
    <glyph glyph-name="uni2219" unicode="&#x2219;" horiz-adv-x="260" 
d="M198 303q0 -26 -19 -46t-48 -20t-48.5 19.5t-19.5 45.5q0 27 19.5 47t48.5 20q28 0 47.5 -19.5t19.5 -46.5z" />
    <glyph glyph-name="radical" unicode="&#x221a;" horiz-adv-x="515" 
d="M315 -214h-86l-158 328l-48 -23l-33 70l124 58l144 -302l178 869h90z" />
    <glyph glyph-name="infinity" unicode="&#x221e;" horiz-adv-x="778" 
d="M681 260q0 37 -21 63t-61 26q-20 0 -40 -9t-38.5 -22.5t-35 -29.5t-29.5 -29q15 -14 31.5 -29t34.5 -27t38 -20t42 -8q38 0 58.5 24.5t20.5 60.5zM361 259q-14 13 -31 28.5t-36 29t-39.5 22.5t-40.5 9q-37 0 -57.5 -26.5t-20.5 -61.5q0 -38 22 -61.5t60 -23.5q19 0 39 8
t39 20.5t35.5 27.5t29.5 28zM754 263q0 -36 -11 -68t-31.5 -55.5t-50.5 -37t-68 -13.5q-30 0 -55.5 9t-48 23.5t-42.5 34t-39 40.5q-20 -21 -39.5 -40t-41 -34t-46.5 -23.5t-56 -8.5q-38 0 -68.5 13t-51.5 36t-32.5 54.5t-11.5 68.5q0 36 11 67t31.5 54t50 36.5t67.5 13.5
q31 0 57 -9.5t48.5 -25.5t42.5 -36.5t39 -42.5q18 22 38 42.5t42.5 36.5t48.5 26t57 10q37 0 66.5 -13.5t50.5 -36.5t32 -54t11 -67z" />
    <glyph glyph-name="integral" unicode="&#x222b;" horiz-adv-x="574" 
d="M442 723q0 -19 -12.5 -30.5t-31.5 -11.5q-18 0 -27 8.5t-14 19t-9 19t-13 8.5t-14.5 -8.5t-8 -21t-3 -28t-0.5 -28.5q0 -26 1 -49t1 -37v-568q0 -35 -4.5 -72t-18.5 -67.5t-40 -50t-69 -19.5q-13 0 -27.5 3t-27 10t-20.5 18.5t-8 28.5t12.5 29t29.5 12q18 0 26.5 -8.5
t13.5 -18.5t9 -18.5t12 -8.5q9 0 14.5 10.5t7.5 25t2.5 29.5t0.5 24q0 20 -1 37t-1 28q0 3 0.5 6t0.5 6v499q0 17 -0.5 36t-0.5 39q0 37 4 74.5t17.5 68t39.5 50t71 19.5q12 0 27 -3.5t28.5 -11t23 -19.5t9.5 -29z" />
    <glyph glyph-name="approxequal" unicode="&#x2248;" horiz-adv-x="666" 
d="M599 440q-3 -30 -12 -57.5t-25.5 -49.5t-41 -35t-58.5 -13q-31 0 -67.5 11t-72.5 25q-36 13 -68.5 24t-56.5 11q-31 0 -48.5 -23.5t-22.5 -50.5h-59q3 29 12.5 57t25.5 50t40.5 35.5t57.5 13.5q32 0 66.5 -10.5t69.5 -24.5q35 -13 69 -24t63 -11q32 0 48.5 21.5
t21.5 50.5h58zM599 240q-3 -30 -12 -57.5t-25.5 -49.5t-41 -35t-58.5 -13q-31 0 -67.5 11t-72.5 25q-36 13 -68.5 24t-56.5 11q-31 0 -48.5 -23.5t-22.5 -50.5h-59q3 29 12.5 57t25.5 50t40.5 35.5t57.5 13.5q32 0 66.5 -10.5t69.5 -24.5q35 -13 69 -24t63 -11
q32 0 48.5 21.5t21.5 50.5h58z" />
    <glyph glyph-name="notequal" unicode="&#x2260;" horiz-adv-x="666" 
d="M266 108l-77 -149l-73 38l58 111h-134v84h177l63 123h-240v84h284l77 149l74 -37l-59 -112h136v-84h-179l-64 -123h243v-84h-286z" />
    <glyph glyph-name="lessequal" unicode="&#x2264;" horiz-adv-x="666" 
d="M77 309v86l512 183v-89l-397 -137l397 -134v-88zM77 8v84h512v-84h-512z" />
    <glyph glyph-name="greaterequal" unicode="&#x2265;" horiz-adv-x="666" 
d="M77 130v88l397 134l-397 137v89l512 -183v-86zM77 8v84h512v-84h-512z" />
    <glyph glyph-name="lozenge" unicode="&#x25ca;" horiz-adv-x="593" 
d="M337 -35h-82l-173 391l173 391h82l174 -391zM296 661l-127 -305l127 -305l128 305z" />
    <glyph glyph-name="uniF001" unicode="&#xf001;" horiz-adv-x="574" 
d="M304 397h-110v-397h-94v397h-94v77h94v99q0 42 9.5 77.5t31 61.5t55 41t81.5 15q34 0 59 -7l-11 -81q-11 3 -22 5t-25 2q-27 0 -43.5 -9.5t-25.5 -25.5t-12 -36.5t-3 -42.5v-99h110v-77zM491 0h-94v474h94v-474zM507 645q0 -26 -18.5 -43t-44.5 -17t-44 17.5t-18 42.5
q0 26 18 43.5t44 17.5t44.5 -17.5t18.5 -43.5z" />
    <glyph glyph-name="uniF002" unicode="&#xf002;" horiz-adv-x="574" 
d="M304 397h-110v-397h-94v397h-94v77h94v99q0 42 9.5 77.5t31 61.5t55 41t81.5 15q34 0 59 -7l-11 -81q-11 3 -22 5t-25 2q-27 0 -43.5 -9.5t-25.5 -25.5t-12 -36.5t-3 -42.5v-99h110v-77zM491 0h-94v756h94v-756z" />
    <glyph glyph-name="uniF8FF" unicode="&#xf8ff;" horiz-adv-x="512" 
d="M222 117v67h56v-67h-56zM225 234l-2 17q0 56 13 81q7 13 18 27.5t28 31.5q16 15 26 26.5t15 21t7 18t2 17.5q0 36 -22.5 60.5t-53.5 24.5t-53.5 -22t-28.5 -73l-50 8q7 72 44 104.5t91 32.5t89 -35.5t35 -95.5q0 -32 -12.5 -58.5t-50.5 -61.5q-37 -33 -43 -52
q-6 -20 -6 -72h-46zM462 50v617h-412v-617h412zM512 718v-718h-512v718h512z" />
    <glyph glyph-name="glyph308" 
d="M-23 908h114l100 -144h-77z" />
    <glyph glyph-name="glyph310" 
d="M136 764h-76l99 144h114z" />
    <glyph glyph-name="glyph312" 
d="M291 764h-91l-75 99l-76 -99h-90l112 144h108z" />
    <glyph glyph-name="glyph314" 
d="M178 764h-107l-111 144h90l76 -99l76 99h88z" />
    <glyph glyph-name="glyph315" 
d="M150 518h-79l64 190h93z" />
    <glyph glyph-name="glyph317" 
d="M-48 772q4 22 10.5 42.5t18.5 37t29.5 26.5t43.5 10q19 0 38.5 -6t36.5 -14q20 -9 36.5 -15.5t30.5 -6.5q22 0 32.5 14.5t15.5 31.5h54q-4 -22 -10.5 -42.5t-18.5 -37t-30 -26.5t-43 -10q-19 0 -39 6.5t-38 14.5q-18 9 -34.5 15t-30.5 6q-21 0 -31.5 -14.5t-15.5 -31.5
h-55z" />
    <glyph glyph-name="glyph319" 
d="M-34 845q0 24 17.5 42.5t44.5 18.5q26 0 44 -17.5t18 -43.5q0 -25 -18 -42.5t-44 -17.5q-27 0 -44.5 18.5t-17.5 41.5zM160 845q0 24 17.5 42.5t44.5 18.5q26 0 44 -17.5t18 -43.5q0 -25 -18 -42.5t-44 -17.5q-27 0 -44.5 18.5t-17.5 41.5z" />
    <glyph glyph-name="glyph321" 
d="M273 797h-296v67h296v-67z" />
    <glyph glyph-name="glyph324" 
d="M284 908q-6 -69 -49.5 -103.5t-109.5 -34.5q-67 0 -110.5 34.5t-48.5 103.5h56q7 -38 36 -55t67 -17q41 0 68 15.5t36 56.5h55z" />
    <glyph glyph-name="glyph326" 
d="M226 853q0 -43 -29.5 -71t-71.5 -28q-21 0 -39 7.5t-31.5 20.5t-21.5 31t-8 39q0 43 29 71t71 28t71.5 -28t29.5 -70zM185 853q0 25 -17.5 41.5t-42.5 16.5t-42 -17t-17 -42q0 -24 17 -40.5t42 -16.5t42.5 16.5t17.5 41.5z" />
    <glyph glyph-name="glyph328" 
d="M39 764h-77l100 144h114zM222 764h-77l100 144h113z" />
    <glyph glyph-name="glyph330" 
d="M188 845q0 -26 -18.5 -43t-44.5 -17t-44 17.5t-18 42.5q0 26 18 43.5t44 17.5t44.5 -17.5t18.5 -43.5z" />
    <glyph glyph-name="glyph333" 
d="M124 -235h-79l64 190h93z" />
    <glyph glyph-name="glyph334" 
d="M148 754h79l-64 -190h-93z" />
    <glyph glyph-name="zero.dnom" horiz-adv-x="385" 
d="M342 214q0 -46 -8.5 -86.5t-26.5 -70.5t-46 -47t-68 -17q-41 0 -69.5 17t-46.5 47t-26.5 70.5t-8.5 86.5t8.5 86t27 69.5t47 46.5t68.5 17q39 0 67.5 -17t46.5 -46.5t26.5 -69.5t8.5 -86zM265 214q0 26 -3.5 53t-11.5 49t-22 36t-35 14q-22 0 -36 -14t-22.5 -36t-12 -49
t-3.5 -53q0 -27 3.5 -54.5t12 -49.5t22.5 -36t36 -14q21 0 35 14t22 36t11.5 49.5t3.5 54.5z" />
    <glyph glyph-name="one.dnom" horiz-adv-x="385" 
d="M247 0h-78v332l-68 -59l-46 51l125 102h67v-426z" />
    <glyph glyph-name="two.dnom" horiz-adv-x="385" 
d="M333 0h-283v67l164 165q16 17 28 35.5t12 42.5q0 26 -17 40.5t-43 14.5q-27 0 -45 -18.5t-23 -49.5l-74 10q8 55 47 90.5t95 35.5q27 0 52 -7.5t44 -23t30.5 -38.5t11.5 -54q0 -43 -21.5 -73t-48.5 -56l-114 -112h185v-69z" />
    <glyph glyph-name="three.dnom" horiz-adv-x="385" 
d="M143 251h27q32 0 56 14t24 49q0 24 -18 38.5t-43 14.5q-22 0 -39.5 -14t-26.5 -37l-68 23q18 45 54.5 69.5t81.5 24.5q28 0 52.5 -7t43 -21.5t29 -36.5t10.5 -51q0 -34 -18 -58t-44 -35q32 -10 52.5 -37t20.5 -64q0 -33 -12.5 -57t-33 -40.5t-46.5 -24.5t-54 -8
q-51 0 -91 24.5t-60 80.5l71 22q9 -27 29 -43.5t49 -16.5q27 0 50 15.5t23 49.5q0 19 -8.5 31t-21.5 19.5t-29.5 10.5t-32.5 3h-27v62z" />
    <glyph glyph-name="four.dnom" horiz-adv-x="385" 
d="M291 158h59v-67h-59v-91h-71v91h-189v64l177 271h83v-268zM217 332l-109 -174h112v174h-3z" />
    <glyph glyph-name="five.dnom" horiz-adv-x="385" 
d="M335 142q0 -34 -11.5 -61.5t-31.5 -47t-47.5 -30t-59.5 -10.5q-53 0 -89.5 25.5t-53.5 70.5l68 25q11 -26 30 -40t45 -14q33 0 54 21t21 56q0 38 -24 58t-61 20q-23 0 -49.5 -8t-50.5 -22l5 241h239v-68h-166l-3 -85q10 3 21 4.5t21 1.5q63 0 103 -37t40 -100z" />
    <glyph glyph-name="six.dnom" horiz-adv-x="385" 
d="M342 138q0 -32 -11.5 -59t-31.5 -46t-47.5 -29.5t-58.5 -10.5q-32 0 -59.5 11t-47.5 30.5t-31.5 45.5t-11.5 57q0 34 11 62t29 57l108 170h91l-104 -155l1 -1q7 2 15 3t14 1q28 0 52.5 -10t42.5 -28t28.5 -43t10.5 -55zM267 136q0 32 -20.5 53.5t-53.5 21.5
q-34 0 -54.5 -21.5t-20.5 -53.5q0 -31 20.5 -53.5t53.5 -22.5t54 22t21 54z" />
    <glyph glyph-name="seven.dnom" horiz-adv-x="385" 
d="M81 0l169 358h-193v68h277v-60l-167 -366h-86z" />
    <glyph glyph-name="eight.dnom" horiz-adv-x="385" 
d="M337 122q0 -30 -11.5 -54t-31.5 -40.5t-46 -25.5t-56 -9t-56 9t-46 25.5t-31.5 40.5t-11.5 54q0 37 18 62.5t46 39.5v1q-25 14 -38.5 37.5t-13.5 52.5q0 27 10.5 49t29 37t42.5 23.5t51 8.5t51 -8t42.5 -23.5t29 -37t10.5 -48.5q0 -29 -14 -53t-37 -38v-1q29 -13 46 -40
t17 -62zM192 368q-24 0 -40.5 -15.5t-16.5 -40.5q0 -24 16.5 -40.5t40.5 -16.5q23 0 40 16.5t17 40.5q0 25 -17 40.5t-40 15.5zM192 192q-30 0 -50 -19t-20 -48t20 -47.5t50 -18.5t50 18.5t20 47.5t-20 48t-50 19z" />
    <glyph glyph-name="nine.dnom" horiz-adv-x="385" 
d="M43 288q0 32 11.5 59t31.5 46t47 29.5t59 10.5t59.5 -11t47.5 -30.5t31.5 -45.5t11.5 -57q0 -34 -11 -62t-29 -57l-108 -170h-91l104 155l-1 1q-7 -2 -15 -3t-14 -1q-28 0 -52.5 10t-42.5 28t-28.5 43t-10.5 55zM118 290q0 -32 20.5 -53t53.5 -21q34 0 54.5 21t20.5 53
q0 31 -20.5 53.5t-53.5 22.5t-54 -22t-21 -54z" />
    <glyph glyph-name="zero.frac" horiz-adv-x="385" 
d="M342 496q0 -46 -8.5 -86.5t-26.5 -70.5t-46 -47t-68 -17q-41 0 -69.5 17t-46.5 47t-26.5 70.5t-8.5 86.5t8.5 86t27 69.5t47 46.5t68.5 17q39 0 67.5 -17t46.5 -46.5t26.5 -69.5t8.5 -86zM265 496q0 26 -3.5 53t-11.5 49t-22 36t-35 14q-22 0 -36 -14t-22.5 -36t-12 -49
t-3.5 -53q0 -27 3.5 -54.5t12 -49.5t22.5 -36t36 -14q21 0 35 14t22 36t11.5 49.5t3.5 54.5z" />
    <glyph glyph-name="one.frac" horiz-adv-x="385" 
d="M247 282h-78v332l-68 -59l-46 51l125 102h67v-426z" />
    <glyph glyph-name="two.frac" horiz-adv-x="385" 
d="M333 282h-283v67l164 165q16 17 28 35.5t12 42.5q0 26 -17 40.5t-43 14.5q-27 0 -45 -18.5t-23 -49.5l-74 10q8 55 47 90.5t95 35.5q27 0 52 -7.5t44 -23t30.5 -38.5t11.5 -54q0 -43 -21.5 -73t-48.5 -56l-114 -112h185v-69z" />
    <glyph glyph-name="three.frac" horiz-adv-x="385" 
d="M143 533h27q32 0 56 14t24 49q0 24 -18 38.5t-43 14.5q-22 0 -39.5 -14t-26.5 -37l-68 23q18 45 54.5 69.5t81.5 24.5q28 0 52.5 -7t43 -21.5t29 -36.5t10.5 -51q0 -34 -18 -58t-44 -35q32 -10 52.5 -37t20.5 -64q0 -33 -12.5 -57t-33 -40.5t-46.5 -24.5t-54 -8
q-51 0 -91 24.5t-60 80.5l71 22q9 -27 29 -43.5t49 -16.5q27 0 50 15.5t23 49.5q0 19 -8.5 31t-21.5 19.5t-29.5 10.5t-32.5 3h-27v62z" />
    <glyph glyph-name="four.frac" horiz-adv-x="385" 
d="M291 440h59v-67h-59v-91h-71v91h-189v64l177 271h83v-268zM217 614l-109 -174h112v174h-3z" />
    <glyph glyph-name="five.frac" horiz-adv-x="385" 
d="M335 424q0 -34 -11.5 -61.5t-31.5 -47t-47.5 -30t-59.5 -10.5q-53 0 -89.5 25.5t-53.5 70.5l68 25q11 -26 30 -40t45 -14q33 0 54 21t21 56q0 38 -24 58t-61 20q-23 0 -49.5 -8t-50.5 -22l5 241h239v-68h-166l-3 -85q10 3 21 4.5t21 1.5q63 0 103 -37t40 -100z" />
    <glyph glyph-name="six.frac" horiz-adv-x="385" 
d="M342 420q0 -32 -11.5 -59t-31.5 -46t-47.5 -29.5t-58.5 -10.5q-32 0 -59.5 11t-47.5 30.5t-31.5 45.5t-11.5 57q0 34 11 62t29 57l108 170h91l-104 -155l1 -1q7 2 15 3t14 1q28 0 52.5 -10t42.5 -28t28.5 -43t10.5 -55zM267 418q0 32 -20.5 53.5t-53.5 21.5
q-34 0 -54.5 -21.5t-20.5 -53.5q0 -31 20.5 -53.5t53.5 -22.5t54 22t21 54z" />
    <glyph glyph-name="seven.frac" horiz-adv-x="385" 
d="M81 282l169 358h-193v68h277v-60l-167 -366h-86z" />
    <glyph glyph-name="eight.frac" horiz-adv-x="385" 
d="M337 404q0 -30 -11.5 -54t-31.5 -40.5t-46 -25.5t-56 -9t-56 9t-46 25.5t-31.5 40.5t-11.5 54q0 37 18 62.5t46 39.5v1q-25 14 -38.5 37.5t-13.5 52.5q0 27 10.5 49t29 37t42.5 23.5t51 8.5t51 -8t42.5 -23.5t29 -37t10.5 -48.5q0 -29 -14 -53t-37 -38v-1q29 -13 46 -40
t17 -62zM192 650q-24 0 -40.5 -15.5t-16.5 -40.5q0 -24 16.5 -40.5t40.5 -16.5q23 0 40 16.5t17 40.5q0 25 -17 40.5t-40 15.5zM192 474q-30 0 -50 -19t-20 -48t20 -47.5t50 -18.5t50 18.5t20 47.5t-20 48t-50 19z" />
    <glyph glyph-name="nine.frac" horiz-adv-x="385" 
d="M43 570q0 32 11.5 59t31.5 46t47 29.5t59 10.5t59.5 -11t47.5 -30.5t31.5 -45.5t11.5 -57q0 -34 -11 -62t-29 -57l-108 -170h-91l104 155l-1 1q-7 -2 -15 -3t-14 -1q-28 0 -52.5 10t-42.5 28t-28.5 43t-10.5 55zM118 572q0 -32 20.5 -53t53.5 -21q34 0 54.5 21t20.5 53
q0 31 -20.5 53.5t-53.5 22.5t-54 -22t-21 -54z" />
    <glyph glyph-name="glyph546" 
d="M125 570q-66 0 -104.5 36.5t-46.5 97.5l55 8q6 -37 32.5 -56.5t63.5 -19.5t63.5 19.5t32.5 56.5l55 -11q-8 -61 -47 -96t-104 -35z" />
    <glyph glyph-name="glyph547" 
d="M125 770q-63 0 -104.5 35t-49.5 98l57 11q6 -37 32.5 -57.5t64.5 -20.5t64.5 20.5t32.5 57.5l57 -11q-8 -63 -49.5 -98t-104.5 -35z" />
    <glyph glyph-name="exclam.aalt" horiz-adv-x="320" 
d="M208 173h-96v363h96v-363zM226 59q0 -26 -19 -45.5t-47 -19.5q-27 0 -46.5 19t-19.5 45t19 45.5t47 19.5t47 -19t19 -45z" />
    <glyph glyph-name="dollar.aalt" horiz-adv-x="504" 
d="M229 242q-37 11 -65.5 24t-48 30.5t-29.5 41t-10 54.5q0 63 41.5 101t111.5 43v61h48v-61q42 -2 76.5 -16.5t66.5 -41.5l-60 -62q-20 22 -40 32t-43 12v-149q84 -24 120.5 -63.5t36.5 -96.5q0 -32 -11 -58.5t-31 -47t-49.5 -32.5t-65.5 -13v-63h-48v63q-50 2 -93.5 21
t-75.5 56l68 60q22 -30 49.5 -45t51.5 -16v166zM277 76q31 3 49 21.5t18 49.5q0 57 -67 82v-153zM229 460q-29 -2 -46.5 -19t-17.5 -45q0 -29 16 -45t48 -26v135z" />
    <glyph glyph-name="percent.aalt" horiz-adv-x="706" 
d="M45 412q0 30 11 54.5t29.5 42t44 26.5t55.5 9q61 0 101 -35.5t40 -96.5q0 -30 -10.5 -54.5t-29.5 -42t-45 -27.5t-56 -10t-55.5 10t-44 27.5t-29.5 42t-11 54.5zM126 412q0 -29 16.5 -46t42.5 -17q27 0 43.5 17t16.5 46q0 28 -16 45t-44 17q-26 0 -42.5 -17t-16.5 -45z
M384 122q0 30 11 54.5t29.5 42t44 26.5t55.5 9q61 0 101 -35.5t40 -96.5q0 -30 -10.5 -54.5t-29.5 -42t-45 -27.5t-56 -10t-55.5 10t-44 27.5t-29.5 42t-11 54.5zM465 122q0 -29 16.5 -46t42.5 -17q27 0 43.5 17t16.5 46q0 28 -16 45t-44 17q-26 0 -42.5 -17t-16.5 -45z
M223 -30l-64 36l328 559l63 -37z" />
    <glyph glyph-name="ampersand.aalt" horiz-adv-x="619" 
d="M465 127l125 -127h-127l-52 55q-28 -33 -67 -51t-93 -18q-35 0 -68 9.5t-58 29t-40 49t-15 68.5q0 56 32 94.5t79 61.5q-26 30 -39.5 57.5t-13.5 59.5q0 31 12 56.5t32.5 42.5t47.5 26.5t57 9.5t56.5 -9t46.5 -25.5t31.5 -40.5t11.5 -55q0 -25 -8.5 -46t-23.5 -38
t-35 -31t-43 -26l91 -93l56 98h105zM334 419q0 25 -16 39t-40 14q-26 0 -42 -16.5t-16 -41.5q0 -36 42 -81q40 18 56 40.5t16 45.5zM233 239q-67 -28 -67 -96q0 -35 23.5 -57t60.5 -22q35 0 60 14t42 37z" />
    <glyph glyph-name="parenleft.aalt" horiz-adv-x="258" 
d="M107 268q0 -79 27.5 -156t72.5 -140l-65 -43q-52 71 -84 158.5t-32 180.5q0 94 32 181.5t84 157.5l65 -42q-45 -63 -72.5 -140.5t-27.5 -156.5z" />
    <glyph glyph-name="parenright.aalt" horiz-adv-x="258" 
d="M232 268q0 -94 -32 -181t-84 -158l-65 43q45 63 72.5 140t27.5 156t-27.5 156t-72.5 140l65 43q52 -71 84 -158t32 -181z" />
    <glyph glyph-name="bracketleft.aalt" horiz-adv-x="258" 
d="M45 -66v668h153v-65h-72v-538h72v-65h-153z" />
    <glyph glyph-name="backslash.aalt" horiz-adv-x="306" 
d="M234 -27l-233 565l70 26l234 -566z" />
    <glyph glyph-name="bracketright.aalt" horiz-adv-x="258" 
d="M213 602v-668h-153v65h72v538h-72v65h153z" />
    <glyph glyph-name="braceleft.aalt" horiz-adv-x="258" 
d="M157 -66q-19 0 -36.5 6t-31 18.5t-21.5 32t-8 47.5v127q0 37 -14.5 52t-40.5 15v73q26 0 40.5 15t14.5 51v128q0 27 8 46.5t21.5 32t31 18.5t36.5 6h62v-66h-47q-17 0 -24 -11.5t-7 -30.5v-114q0 -27 -6.5 -46t-17 -32.5t-24 -21t-27.5 -11.5v-2q14 -3 27.5 -11t24 -21
t17 -32.5t6.5 -45.5v-115q0 -19 7 -30.5t24 -11.5h47v-66h-62z" />
    <glyph glyph-name="slash.sc" horiz-adv-x="306" 
d="M2 -2l233 566l70 -26l-233 -565z" />
    <glyph glyph-name="braceright.aalt" horiz-adv-x="258" 
d="M39 -66v66h47q17 0 24 11.5t7 30.5v115q0 52 23 77.5t52 32.5v2q-29 7 -52 32.5t-23 78.5v114q0 19 -7 30.5t-24 11.5h-47v66h62q19 0 36.5 -6t31 -18.5t21.5 -32t8 -46.5v-128q0 -36 14.5 -51t40.5 -15v-73q-26 0 -40.5 -15t-14.5 -52v-127q0 -28 -8 -47.5t-21.5 -32
t-31 -18.5t-36.5 -6h-62z" />
    <glyph glyph-name="zero.sc" horiz-adv-x="504" 
d="M252 548q49 0 85.5 -21.5t60.5 -59t36 -89t12 -111.5t-12 -111.5t-36 -89t-60.5 -59t-85.5 -21.5q-50 0 -86.5 21.5t-60.5 59t-35.5 89t-11.5 111.5t11.5 111.5t35.5 89t60.5 59t86.5 21.5zM252 462q-26 0 -44 -16.5t-29.5 -43.5t-17 -62t-5.5 -73t5.5 -73.5t17 -62.5
t29.5 -43t44 -16t44 16t29.5 43t17 62.5t5.5 73.5t-5.5 73t-17 62t-30 43.5t-43.5 16.5z" />
    <glyph glyph-name="one.sc" horiz-adv-x="504" 
d="M333 0h-95v417l-92 -79l-56 65l161 133h82v-536z" />
    <glyph glyph-name="two.sc" horiz-adv-x="504" 
d="M429 0h-356v83l196 195q58 58 58 115q0 30 -20 52.5t-56 22.5q-34 0 -56.5 -21.5t-30.5 -62.5l-91 16q11 68 59 109t119 41q36 0 67.5 -9.5t55 -29t37 -48.5t13.5 -67q0 -46 -23 -88.5t-66 -84.5l-147 -142h241v-81z" />
    <glyph glyph-name="three.sc" horiz-adv-x="504" 
d="M188 318h36q20 0 38.5 4t32.5 13t22 24t8 37q0 32 -23.5 52.5t-55.5 20.5q-26 0 -48.5 -15.5t-34.5 -48.5l-85 31q22 55 66.5 84.5t104.5 29.5q35 0 66 -9.5t54 -28.5t36.5 -47t13.5 -64q0 -42 -22.5 -73t-64.5 -46v-1q47 -12 73.5 -46t26.5 -81q0 -41 -15.5 -72.5
t-41 -52.5t-58.5 -32t-69 -11q-65 0 -113.5 30t-74.5 98l88 30q28 -76 99 -76q17 0 33.5 5.5t29 16t20.5 26.5t8 38q0 46 -33.5 66.5t-81.5 20.5h-35v77z" />
    <glyph glyph-name="four.sc" horiz-adv-x="504" 
d="M384 194h73v-80h-73v-114h-92v114h-239v77l215 345h116v-342zM292 428h-3l-136 -234h139v234z" />
    <glyph glyph-name="five.sc" horiz-adv-x="504" 
d="M410 456h-212l-4 -116q27 8 55 8q41 0 75 -12t58.5 -34.5t38 -55t13.5 -72.5q0 -41 -14.5 -75.5t-40 -59.5t-62 -39t-79.5 -14q-63 0 -110.5 29.5t-70.5 88.5l83 37q14 -41 41 -57.5t58 -16.5q45 0 72.5 28t27.5 74q0 27 -8.5 46.5t-23.5 32t-34.5 18.5t-41.5 6
q-29 0 -63.5 -10.5t-66.5 -27.5l8 302h301v-80z" />
    <glyph glyph-name="six.sc" horiz-adv-x="504" 
d="M158 165q0 -45 27.5 -72t68.5 -27q42 0 68.5 28t26.5 72q0 42 -25.5 70t-69.5 28q-42 0 -69 -28t-27 -71zM222 327q12 5 26.5 8t25.5 3q36 0 67.5 -12t54 -33.5t35.5 -53t13 -70.5q0 -41 -14.5 -74.5t-40 -57.5t-60.5 -37.5t-75 -13.5q-41 0 -76 13t-60.5 36.5t-40 56.5
t-14.5 72q0 43 17 85t43 84l127 203h112l-141 -208z" />
    <glyph glyph-name="seven.sc" horiz-adv-x="504" 
d="M426 460l-211 -460h-109l219 451h-253v85h354v-76z" />
    <glyph glyph-name="eight.sc" horiz-adv-x="504" 
d="M419 401q0 -38 -21 -70t-59 -47v-2q47 -16 73.5 -50t26.5 -82q0 -39 -14.5 -69.5t-40 -51.5t-59.5 -32t-73 -11t-73.5 11t-60 32t-40 51.5t-14.5 69.5q0 48 26 82t71 50v2q-35 14 -56 45t-21 70q0 34 13 62t36 48t53.5 30.5t65.5 10.5q34 0 64.5 -10t53.5 -29.5t36 -47
t13 -62.5zM160 153q0 -40 25.5 -64t66.5 -24q40 0 65.5 24t25.5 64q0 39 -26 65t-65 26q-40 0 -66 -26t-26 -65zM176 394q0 -34 22 -54t54 -20q30 0 52.5 20t22.5 54q0 35 -22 56t-53 21q-32 0 -54 -21t-22 -56z" />
    <glyph glyph-name="nine.sc" horiz-adv-x="504" 
d="M348 374q0 45 -28 70.5t-69 25.5q-42 0 -68 -26.5t-26 -70.5q0 -42 25.5 -70t69.5 -28q42 0 69 28t27 71zM284 212q-12 -5 -26.5 -8t-25.5 -3q-36 0 -67.5 12t-54 33.5t-35.5 53t-13 70.5q0 41 14.5 74t39.5 56.5t59.5 36.5t75.5 13t76 -13t60.5 -36.5t40 -56.5t14.5 -72
q0 -43 -17 -85t-43 -84l-127 -203h-112l142 211z" />
    <glyph glyph-name="question.aalt" horiz-adv-x="440" 
d="M263 173h-92v26q0 27 9 50.5t29 41.5l24 21q30 26 42.5 45.5t12.5 44.5q0 23 -15.5 43.5t-51.5 20.5q-29 0 -48 -17.5t-25 -53.5l-93 12q11 70 56.5 106.5t115.5 36.5q42 0 72 -12.5t49.5 -33t28.5 -47t9 -54.5q0 -35 -16.5 -66.5t-53.5 -60.5q-32 -26 -42.5 -42.5
t-10.5 -39.5v-21zM285 58q0 -27 -18 -45.5t-47 -18.5q-28 0 -47 18t-19 45q0 26 18.5 45t47.5 19q28 0 46.5 -18.5t18.5 -44.5z" />
    <glyph glyph-name="a.sc" horiz-adv-x="550" 
d="M104 0h-101l228 536h89l227 -536h-104l-50 124h-238zM184 201h179l-89 225z" />
    <glyph glyph-name="b.aalt" horiz-adv-x="539" 
d="M84 536h199q33 0 63.5 -7.5t54.5 -24t38 -42.5t14 -64q0 -42 -21 -71t-56 -44v-2q46 -11 73.5 -43t27.5 -83q0 -41 -17 -70.5t-45.5 -48.5t-65.5 -27.5t-78 -8.5h-187v536zM178 315h89q39 0 64.5 18.5t25.5 55.5q0 67 -97 67h-82v-141zM178 81h90q46 0 79 18t33 62
q0 77 -104 77h-98v-157z" />
    <glyph glyph-name="c.aalt" horiz-adv-x="566" 
d="M548 87q-38 -47 -88 -74t-125 -27q-63 0 -115 20.5t-89.5 57.5t-58 89t-20.5 116q0 63 22 115t60.5 88.5t91.5 57t115 20.5q60 0 112.5 -22.5t84.5 -64.5l-75 -59q-21 30 -54 45.5t-70 15.5q-42 0 -76 -15t-58 -41.5t-37 -62t-13 -77.5q0 -41 14 -77t38 -63t57 -42.5
t71 -15.5q42 0 76.5 16.5t60.5 52.5z" />
    <glyph glyph-name="d.aalt" horiz-adv-x="619" 
d="M84 536h193q54 0 106 -14.5t93 -46.5t66 -82.5t25 -123.5q0 -69 -25.5 -120t-66.5 -84t-93.5 -49t-106.5 -16h-191v536zM180 81h80q44 0 81.5 12t65 36t43 59t15.5 81q0 50 -16 85.5t-43.5 58t-65 33t-80.5 10.5h-80v-375z" />
    <glyph glyph-name="e.aalt" horiz-adv-x="507" 
d="M179 81h273v-81h-368v536h356v-80h-261v-141h247v-77h-247v-157z" />
    <glyph glyph-name="f.aalt" horiz-adv-x="476" 
d="M180 0h-96v536h347v-80h-251v-150h236v-78h-236v-228z" />
    <glyph glyph-name="g.aalt" horiz-adv-x="625" 
d="M477 409q-23 26 -58.5 41t-78.5 15t-77 -15t-58 -41.5t-37 -62.5t-13 -77t13.5 -77t38 -63t59.5 -42.5t78 -15.5q63 0 108 21v132h-113v78h209v-268q-43 -23 -94.5 -35.5t-111.5 -12.5q-64 0 -117.5 21t-91.5 58.5t-59.5 89.5t-21.5 114q0 63 22 115t60 88.5t90.5 57
t114.5 20.5q65 0 117.5 -20t87.5 -52z" />
    <glyph glyph-name="h.aalt" horiz-adv-x="607" 
d="M84 536h96v-220h247v220h96v-536h-96v237h-247v-237h-96v536z" />
    <glyph glyph-name="dotlessi.aalt" horiz-adv-x="264" 
d="M180 0h-96v536h96v-536z" />
    <glyph glyph-name="j.aalt" horiz-adv-x="407" 
d="M105 138q10 -36 28 -51t38 -15q31 0 46.5 23.5t15.5 75.5v365h96v-367q0 -34 -8 -67t-26.5 -58.5t-48.5 -41.5t-75 -16q-31 0 -56.5 9.5t-45.5 26.5t-34 40t-20 50z" />
    <glyph glyph-name="k.aalt" horiz-adv-x="543" 
d="M180 307h2l219 229h128l-251 -247l265 -289h-131l-230 265h-2v-265h-96v536h96v-229z" />
    <glyph glyph-name="l.aalt" horiz-adv-x="420" 
d="M180 81h230v-81h-326v536h96v-455z" />
    <glyph glyph-name="m.aalt" horiz-adv-x="737" 
d="M371 153h2l142 383h138v-536h-94v409h-2l-157 -409h-64l-156 409h-2v-409h-94v536h142z" />
    <glyph glyph-name="n.aalt" horiz-adv-x="618" 
d="M439 130h2v406h93v-536h-114l-241 404h-2v-404h-93v536h116z" />
    <glyph glyph-name="o.sc" horiz-adv-x="681" 
d="M629 269q0 -62 -22 -114t-61 -89.5t-92 -58.5t-115 -21q-61 0 -113.5 21t-91 58.5t-60.5 89.5t-22 114q0 63 22 115t60.5 88.5t91 57t113.5 20.5q62 0 115 -20.5t92 -57t61 -88.5t22 -115zM526 269q0 42 -13 77.5t-37.5 62t-59 41.5t-77.5 15q-42 0 -76 -15t-58 -41.5
t-37 -62t-13 -77.5t13 -78.5t37 -63t58 -41.5t76 -15q43 0 77.5 15t59 41.5t37.5 63t13 78.5z" />
    <glyph glyph-name="p.aalt" horiz-adv-x="505" 
d="M84 536h186q93 0 146 -42.5t53 -121.5q0 -82 -55 -125.5t-147 -43.5h-87v-203h-96v536zM180 281h81q51 0 81.5 22t30.5 67q0 42 -28 64t-80 22h-85v-175z" />
    <glyph glyph-name="q.aalt" horiz-adv-x="687" 
d="M653 0h-318q-63 0 -115 19t-89.5 54.5t-58 86.5t-20.5 115q0 60 21.5 110.5t59.5 87t89.5 57t112.5 20.5t112.5 -19.5t89 -55t59 -85.5t21.5 -111q0 -66 -25.5 -114.5t-68.5 -80.5v-3h130v-81zM155 275q0 -42 13 -77.5t37 -61.5t57 -40.5t73 -14.5t73.5 14.5t57.5 40.5
t37 61.5t13 77.5q0 40 -13 75t-37 60.5t-57.5 40.5t-73.5 15q-39 0 -72 -15t-57 -40.5t-37.5 -60.5t-13.5 -75z" />
    <glyph glyph-name="r.aalt" horiz-adv-x="525" 
d="M180 0h-96v536h191q40 0 75.5 -7.5t62.5 -24.5t42.5 -46t15.5 -71q0 -59 -32.5 -96t-84.5 -51l139 -240h-111l-125 226h-77v-226zM180 304h83q22 0 42 4t35.5 13.5t24.5 24.5t9 38q0 21 -8.5 35t-23 22.5t-33.5 11.5t-40 3h-89v-152z" />
    <glyph glyph-name="s.aalt" horiz-adv-x="465" 
d="M347 419q-17 22 -45 35.5t-60 13.5q-36 0 -61.5 -18.5t-25.5 -53.5q0 -18 6.5 -30.5t19 -21.5t30.5 -16.5t41 -14.5q28 -9 56.5 -21t51 -30t36.5 -44.5t14 -64.5q0 -43 -15 -74.5t-41 -52t-60 -30.5t-73 -10q-57 0 -106.5 22t-80.5 61l66 61q24 -32 58 -46t65 -14
q38 0 65.5 17.5t27.5 53.5q0 40 -30.5 60t-86.5 37q-26 8 -51 19t-44.5 28t-31.5 42t-12 62q0 41 16 71.5t42.5 50.5t60.5 29.5t69 9.5q50 0 91 -18t69 -49z" />
    <glyph glyph-name="t.aalt" horiz-adv-x="442" 
d="M268 0h-96v456h-164v80h426v-80h-166v-456z" />
    <glyph glyph-name="u.aalt" horiz-adv-x="595" 
d="M297 -14q-52 0 -93 16.5t-69 45t-42.5 67.5t-14.5 85v336h96v-329q0 -27 6.5 -51t21 -43t38 -30t57.5 -11t57.5 11t38.5 30t21.5 43t6.5 51v329h96v-336q0 -46 -15 -85t-43 -67.5t-69 -45t-93 -16.5z" />
    <glyph glyph-name="v.aalt" horiz-adv-x="504" 
d="M252 126h3l150 410h101l-212 -536h-86l-210 536h104z" />
    <glyph glyph-name="w.aalt" horiz-adv-x="796" 
d="M111 536l115 -409h2l118 409h104l121 -409h2l115 409h102l-165 -536h-103l-123 402h-2l-122 -402h-103l-166 536h105z" />
    <glyph glyph-name="x.aalt" horiz-adv-x="508" 
d="M255 351l116 185h111l-171 -253l195 -283h-119l-135 210l-135 -210h-115l192 283l-172 253h115z" />
    <glyph glyph-name="y.aalt" horiz-adv-x="473" 
d="M284 0h-96v216l-194 320h108l137 -243l137 243h103l-195 -320v-216z" />
    <glyph glyph-name="z.aalt" horiz-adv-x="496" 
d="M446 456l-281 -375h285v-81h-404v79l282 377h-278v80h396v-80z" />
    <glyph glyph-name="agrave.aalt" horiz-adv-x="550" 
d="M104 0h-101l228 536h89l227 -536h-104l-50 124h-238zM184 201h179l-89 225zM106 738h113l100 -144h-77z" />
    <glyph glyph-name="aacute.aalt" horiz-adv-x="550" 
d="M104 0h-101l228 536h89l227 -536h-104l-50 124h-238zM184 201h179l-89 225zM311 594h-77l100 144h113z" />
    <glyph glyph-name="acircumflex.aalt" horiz-adv-x="550" 
d="M104 0h-101l228 536h89l227 -536h-104l-50 124h-238zM184 201h179l-89 225zM440 594h-91l-75 99l-76 -99h-90l112 144h108z" />
    <glyph glyph-name="atilde.aalt" horiz-adv-x="550" 
d="M104 0h-101l228 536h89l227 -536h-104l-50 124h-238zM184 201h179l-89 225zM102 602q4 22 10.5 42.5t18.5 37t29.5 26.5t43.5 10q19 0 38.5 -6t36.5 -14q20 -9 36.5 -15.5t30.5 -6.5q22 0 32.5 14.5t15.5 31.5h54q-4 -22 -10.5 -42.5t-18.5 -37t-30 -26.5t-43 -10
q-19 0 -39 6.5t-38 14.5q-18 9 -34.5 15t-30.5 6q-21 0 -31.5 -14.5t-15.5 -31.5h-55z" />
    <glyph glyph-name="adieresis.aalt" horiz-adv-x="550" 
d="M104 0h-101l228 536h89l227 -536h-104l-50 124h-238zM184 201h179l-89 225zM116 675q0 24 17.5 42.5t44.5 18.5q26 0 44 -17.5t18 -43.5q0 -25 -18 -42.5t-44 -17.5q-27 0 -44.5 18.5t-17.5 41.5zM310 675q0 24 17.5 42.5t44.5 18.5q26 0 44 -17.5t18 -43.5
q0 -25 -18 -42.5t-44 -17.5q-27 0 -44.5 18.5t-17.5 41.5z" />
    <glyph glyph-name="amacron.aalt" horiz-adv-x="550" 
d="M104 0h-101l228 536h89l227 -536h-104l-50 124h-238zM184 201h179l-89 225zM422 627h-296v67h296v-67z" />
    <glyph glyph-name="abreve.aalt" horiz-adv-x="550" 
d="M104 0h-101l228 536h89l227 -536h-104l-50 124h-238zM184 201h179l-89 225zM433 738q-6 -69 -49.5 -103.5t-109.5 -34.5q-67 0 -110.5 34.5t-48.5 103.5h56q7 -38 36 -55t67 -17q41 0 68 15.5t36 56.5h55z" />
    <glyph glyph-name="aring.aalt" horiz-adv-x="550" 
d="M104 0h-101l228 536h89l227 -536h-104l-50 124h-238zM184 201h179l-89 225zM376 683q0 -43 -29.5 -71t-71.5 -28q-21 0 -39 7.5t-31.5 20.5t-21.5 31t-8 39q0 43 29 71t71 28t71.5 -28t29.5 -70zM334 683q0 24 -17.5 40t-41.5 16q-23 0 -40.5 -16t-17.5 -40t17.5 -40.5
t40.5 -16.5q24 0 41.5 16t17.5 41z" />
    <glyph glyph-name="aogonek.aalt" horiz-adv-x="550" 
d="M540 -195q-20 -17 -44.5 -27t-50.5 -10q-19 0 -36.5 6t-31 17t-21.5 27.5t-8 36.5q0 21 9 42t23 39.5t30.5 35t32.5 28.5l-50 124h-238l-51 -124h-101l228 536h89l227 -536h-50q-15 -14 -29 -29.5t-25.5 -31.5t-18.5 -32t-7 -32q0 -20 14 -33.5t34 -13.5q14 0 28 6t25 16
zM184 201h179l-89 225z" />
    <glyph glyph-name="ae.aalt" horiz-adv-x="840" 
d="M513 81h272v-81h-368v134h-215l-83 -134h-115l345 536h424v-80h-260v-141h246v-77h-246v-157zM250 211h167v251h-10z" />
    <glyph glyph-name="cacute.aalt" horiz-adv-x="566" 
d="M548 87q-38 -47 -88 -74t-125 -27q-63 0 -115 20.5t-89.5 57.5t-58 89t-20.5 116q0 63 22 115t60.5 88.5t91.5 57t115 20.5q60 0 112.5 -22.5t84.5 -64.5l-75 -59q-21 30 -54 45.5t-70 15.5q-42 0 -76 -15t-58 -41.5t-37 -62t-13 -77.5q0 -41 14 -77t38 -63t57 -42.5
t71 -15.5q42 0 76.5 16.5t60.5 52.5zM339 594h-77l100 144h113z" />
    <glyph glyph-name="ccircumflex.aalt" horiz-adv-x="566" 
d="M548 87q-38 -47 -88 -74t-125 -27q-63 0 -115 20.5t-89.5 57.5t-58 89t-20.5 116q0 63 22 115t60.5 88.5t91.5 57t115 20.5q60 0 112.5 -22.5t84.5 -64.5l-75 -59q-21 30 -54 45.5t-70 15.5q-42 0 -76 -15t-58 -41.5t-37 -62t-13 -77.5q0 -41 14 -77t38 -63t57 -42.5
t71 -15.5q42 0 76.5 16.5t60.5 52.5zM506 594h-91l-75 99l-76 -99h-90l112 144h108z" />
    <glyph glyph-name="ccaron.aalt" horiz-adv-x="566" 
d="M548 87q-38 -47 -88 -74t-125 -27q-63 0 -115 20.5t-89.5 57.5t-58 89t-20.5 116q0 63 22 115t60.5 88.5t91.5 57t115 20.5q60 0 112.5 -22.5t84.5 -64.5l-75 -59q-21 30 -54 45.5t-70 15.5q-42 0 -76 -15t-58 -41.5t-37 -62t-13 -77.5q0 -41 14 -77t38 -63t57 -42.5
t71 -15.5q42 0 76.5 16.5t60.5 52.5zM393 594h-107l-111 144h90l76 -99l76 99h88z" />
    <glyph glyph-name="cdotaccent.aalt" horiz-adv-x="566" 
d="M548 87q-38 -47 -88 -74t-125 -27q-63 0 -115 20.5t-89.5 57.5t-58 89t-20.5 116q0 63 22 115t60.5 88.5t91.5 57t115 20.5q60 0 112.5 -22.5t84.5 -64.5l-75 -59q-21 30 -54 45.5t-70 15.5q-42 0 -76 -15t-58 -41.5t-37 -62t-13 -77.5q0 -41 14 -77t38 -63t57 -42.5
t71 -15.5q42 0 76.5 16.5t60.5 52.5zM402 675q0 -26 -18.5 -43t-44.5 -17t-44 17.5t-18 42.5q0 26 18 43.5t44 17.5t44.5 -17.5t18.5 -43.5z" />
    <glyph glyph-name="ccedilla.aalt" horiz-adv-x="566" 
d="M548 87q-36 -44 -81 -70t-111 -30l-37 -56q7 2 13 2h14q17 0 33.5 -4t30 -13t22 -24t8.5 -37q0 -26 -12 -43.5t-30.5 -28t-41 -14.5t-43.5 -4q-26 0 -54 6t-49 17l20 42q37 -17 77 -17q8 0 18.5 2t20 6.5t16 12.5t6.5 21q0 22 -17 30t-37 8q-9 0 -20 -2t-21 -5l-20 20
l53 82q-57 4 -104 26t-80 58.5t-51.5 86.5t-18.5 110q0 63 22 115t60.5 88.5t91.5 57t115 20.5q60 0 112.5 -22.5t84.5 -64.5l-75 -59q-21 30 -54 45.5t-70 15.5q-42 0 -76 -15t-58 -41.5t-37 -62t-13 -77.5q0 -41 14 -77t38 -63t57 -42.5t71 -15.5q42 0 76.5 16.5
t60.5 52.5z" />
    <glyph glyph-name="dcaron.aalt" horiz-adv-x="619" 
d="M84 536h193q54 0 106 -14.5t93 -46.5t66 -82.5t25 -123.5q0 -69 -25.5 -120t-66.5 -84t-93.5 -49t-106.5 -16h-191v536zM180 81h80q44 0 81.5 12t65 36t43 59t15.5 81q0 50 -16 85.5t-43.5 58t-65 33t-80.5 10.5h-80v-375zM353 594h-107l-111 144h90l76 -99l76 99h88z
" />
    <glyph glyph-name="dcroat.aalt" horiz-adv-x="619" 
d="M84 244h-69v70h69v222h193q54 0 106 -14.5t93 -46.5t66 -82.5t25 -123.5q0 -69 -25.5 -120t-66.5 -84t-93.5 -49t-106.5 -16h-191v244zM180 314h131v-70h-131v-163h80q44 0 81.5 12t65 36t43 59t15.5 81q0 50 -16 85.5t-43.5 58t-65 33t-80.5 10.5h-80v-142z" />
    <glyph glyph-name="eth.aalt" horiz-adv-x="619" 
d="M84 244h-69v70h69v222h193q54 0 106 -14.5t93 -46.5t66 -82.5t25 -123.5q0 -69 -25.5 -120t-66.5 -84t-93.5 -49t-106.5 -16h-191v244zM180 314h131v-70h-131v-163h80q44 0 81.5 12t65 36t43 59t15.5 81q0 50 -16 85.5t-43.5 58t-65 33t-80.5 10.5h-80v-142z" />
    <glyph glyph-name="egrave.aalt" horiz-adv-x="507" 
d="M179 81h273v-81h-368v536h356v-80h-261v-141h247v-77h-247v-157zM106 738h113l100 -144h-77z" />
    <glyph glyph-name="eacute.aalt" horiz-adv-x="507" 
d="M179 81h273v-81h-368v536h356v-80h-261v-141h247v-77h-247v-157zM292 594h-77l100 144h113z" />
    <glyph glyph-name="ecircumflex.aalt" horiz-adv-x="507" 
d="M179 81h273v-81h-368v536h356v-80h-261v-141h247v-77h-247v-157zM428 594h-91l-75 99l-76 -99h-90l112 144h108z" />
    <glyph glyph-name="ecaron.aalt" horiz-adv-x="507" 
d="M179 81h273v-81h-368v536h356v-80h-261v-141h247v-77h-247v-157zM316 594h-107l-111 144h90l76 -99l76 99h88z" />
    <glyph glyph-name="edieresis.aalt" horiz-adv-x="507" 
d="M179 81h273v-81h-368v536h356v-80h-261v-141h247v-77h-247v-157zM103 675q0 24 17.5 42.5t44.5 18.5q26 0 44 -17.5t18 -43.5q0 -25 -18 -42.5t-44 -17.5q-27 0 -44.5 18.5t-17.5 41.5zM297 675q0 24 17.5 42.5t44.5 18.5q26 0 44 -17.5t18 -43.5q0 -25 -18 -42.5
t-44 -17.5q-27 0 -44.5 18.5t-17.5 41.5z" />
    <glyph glyph-name="emacron.aalt" horiz-adv-x="507" 
d="M179 81h273v-81h-368v536h356v-80h-261v-141h247v-77h-247v-157zM408 627h-296v67h296v-67z" />
    <glyph glyph-name="ebreve.aalt" horiz-adv-x="507" 
d="M179 81h273v-81h-368v536h356v-80h-261v-141h247v-77h-247v-157zM419 738q-6 -69 -49.5 -103.5t-109.5 -34.5q-67 0 -110.5 34.5t-48.5 103.5h56q7 -38 36 -55t67 -17q41 0 68 15.5t36 56.5h55z" />
    <glyph glyph-name="edotaccent.aalt" horiz-adv-x="507" 
d="M179 81h273v-81h-368v536h356v-80h-261v-141h247v-77h-247v-157zM328 675q0 -26 -18.5 -43t-44.5 -17t-44 17.5t-18 42.5q0 26 18 43.5t44 17.5t44.5 -17.5t18.5 -43.5z" />
    <glyph glyph-name="eogonek.aalt" horiz-adv-x="507" 
d="M462 -195q-20 -17 -44.5 -27t-50.5 -10q-19 0 -36.5 6t-31 17t-21.5 27.5t-8 36.5q0 21 9 42t23 39.5t30.5 35t32.5 28.5h-281v536h356v-80h-261v-141h247v-77h-247v-157h273v-81h-33q-15 -14 -29 -29.5t-25.5 -31.5t-18.5 -32t-7 -32q0 -20 14 -33.5t34 -13.5q14 0 28 6
t25 16z" />
    <glyph glyph-name="gcircumflex.aalt" horiz-adv-x="625" 
d="M477 409q-23 26 -58.5 41t-78.5 15t-77 -15t-58 -41.5t-37 -62.5t-13 -77t13.5 -77t38 -63t59.5 -42.5t78 -15.5q63 0 108 21v132h-113v78h209v-268q-43 -23 -94.5 -35.5t-111.5 -12.5q-64 0 -117.5 21t-91.5 58.5t-59.5 89.5t-21.5 114q0 63 22 115t60 88.5t90.5 57
t114.5 20.5q65 0 117.5 -20t87.5 -52zM509 594h-91l-75 99l-76 -99h-90l112 144h108z" />
    <glyph glyph-name="gbreve.aalt" horiz-adv-x="625" 
d="M477 409q-23 26 -58.5 41t-78.5 15t-77 -15t-58 -41.5t-37 -62.5t-13 -77t13.5 -77t38 -63t59.5 -42.5t78 -15.5q63 0 108 21v132h-113v78h209v-268q-43 -23 -94.5 -35.5t-111.5 -12.5q-64 0 -117.5 21t-91.5 58.5t-59.5 89.5t-21.5 114q0 63 22 115t60 88.5t90.5 57
t114.5 20.5q65 0 117.5 -20t87.5 -52zM501 738q-6 -69 -49.5 -103.5t-109.5 -34.5q-67 0 -110.5 34.5t-48.5 103.5h56q7 -38 36 -55t67 -17q41 0 68 15.5t36 56.5h55z" />
    <glyph glyph-name="gdotaccent.aalt" horiz-adv-x="625" 
d="M477 409q-23 26 -58.5 41t-78.5 15t-77 -15t-58 -41.5t-37 -62.5t-13 -77t13.5 -77t38 -63t59.5 -42.5t78 -15.5q63 0 108 21v132h-113v78h209v-268q-43 -23 -94.5 -35.5t-111.5 -12.5q-64 0 -117.5 21t-91.5 58.5t-59.5 89.5t-21.5 114q0 63 22 115t60 88.5t90.5 57
t114.5 20.5q65 0 117.5 -20t87.5 -52zM403 675q0 -26 -18.5 -43t-44.5 -17t-44 17.5t-18 42.5q0 26 18 43.5t44 17.5t44.5 -17.5t18.5 -43.5z" />
    <glyph glyph-name="uni0123.aalt" horiz-adv-x="625" 
d="M477 409q-23 26 -58.5 41t-78.5 15t-77 -15t-58 -41.5t-37 -62.5t-13 -77t13.5 -77t38 -63t59.5 -42.5t78 -15.5q63 0 108 21v132h-113v78h209v-268q-43 -23 -94.5 -35.5t-111.5 -12.5q-64 0 -117.5 21t-91.5 58.5t-59.5 89.5t-21.5 114q0 63 22 115t60 88.5t90.5 57
t114.5 20.5q65 0 117.5 -20t87.5 -52zM317 -235h-79l64 190h93z" />
    <glyph glyph-name="kgreenlandic.aalt" horiz-adv-x="543" 
d="M180 307h2l219 229h128l-251 -247l265 -289h-131l-230 265h-2v-265h-96v536h96v-229z" />
    <glyph glyph-name="hcircumflex.aalt" horiz-adv-x="607" 
d="M84 536h96v-220h247v220h96v-536h-96v237h-247v-237h-96v536zM471 594h-91l-75 99l-76 -99h-90l112 144h108z" />
    <glyph glyph-name="hbar.aalt" horiz-adv-x="607" 
d="M84 536h96v-93h247v93h96v-536h-96v237h-247v-237h-96v536zM427 310v80h-247v-80h247z" />
    <glyph glyph-name="igrave.aalt" horiz-adv-x="264" 
d="M180 0h-96v536h96v-536zM-33 738h113l100 -144h-77z" />
    <glyph glyph-name="iacute.aalt" horiz-adv-x="264" 
d="M180 0h-96v536h96v-536zM164 594h-77l100 144h113z" />
    <glyph glyph-name="ibreve.aalt" horiz-adv-x="264" 
d="M180 0h-96v536h96v-536zM291 738q-6 -69 -49.5 -103.5t-109.5 -34.5q-67 0 -110.5 34.5t-48.5 103.5h56q7 -38 36 -55t67 -17q41 0 68 15.5t36 56.5h55z" />
    <glyph glyph-name="icircumflex.aalt" horiz-adv-x="264" 
d="M180 0h-96v536h96v-536zM298 594h-91l-75 99l-76 -99h-90l112 144h108z" />
    <glyph glyph-name="itilde.aalt" horiz-adv-x="264" 
d="M180 0h-96v536h96v-536zM-41 602q4 22 10.5 42.5t18.5 37t29.5 26.5t43.5 10q19 0 38.5 -6t36.5 -14q20 -9 36.5 -15.5t30.5 -6.5q22 0 32.5 14.5t15.5 31.5h54q-4 -22 -10.5 -42.5t-18.5 -37t-30 -26.5t-43 -10q-19 0 -39 6.5t-38 14.5q-18 9 -34.5 15t-30.5 6
q-21 0 -31.5 -14.5t-15.5 -31.5h-55z" />
    <glyph glyph-name="idieresis.aalt" horiz-adv-x="264" 
d="M180 0h-96v536h96v-536zM-26 675q0 24 17.5 42.5t44.5 18.5q26 0 44 -17.5t18 -43.5q0 -25 -18 -42.5t-44 -17.5q-27 0 -44.5 18.5t-17.5 41.5zM168 675q0 24 17.5 42.5t44.5 18.5q26 0 44 -17.5t18 -43.5q0 -25 -18 -42.5t-44 -17.5q-27 0 -44.5 18.5t-17.5 41.5z" />
    <glyph glyph-name="imacron.aalt" horiz-adv-x="264" 
d="M180 0h-96v536h96v-536zM280 627h-296v67h296v-67z" />
    <glyph glyph-name="i.sc" horiz-adv-x="264" 
d="M180 0h-96v536h96v-536zM194 675q0 -26 -18.5 -43t-44.5 -17t-44 17.5t-18 42.5q0 26 18 43.5t44 17.5t44.5 -17.5t18.5 -43.5z" />
    <glyph glyph-name="iogonek.aalt" horiz-adv-x="264" 
d="M223 -195q-20 -17 -44.5 -27t-50.5 -10q-19 0 -36.5 6t-31 17t-21.5 27.5t-8 36.5q0 21 9 42t23 39.5t30.5 35t32.5 28.5h-42v536h96v-536q-15 -14 -29 -29.5t-25.5 -31.5t-18.5 -32t-7 -32q0 -20 14 -33.5t34 -13.5q14 0 28 6t25 16z" />
    <glyph glyph-name="jcircumflex.aalt" horiz-adv-x="407" 
d="M105 138q10 -36 28 -51t38 -15q31 0 46.5 23.5t15.5 75.5v365h96v-367q0 -34 -8 -67t-26.5 -58.5t-48.5 -41.5t-75 -16q-31 0 -56.5 9.5t-45.5 26.5t-34 40t-20 50zM448 594h-91l-75 99l-76 -99h-90l112 144h108z" />
    <glyph glyph-name="uni0137.aalt" horiz-adv-x="543" 
d="M180 307h2l219 229h128l-251 -247l265 -289h-131l-230 265h-2v-265h-96v536h96v-229zM270 -235h-79l64 190h93z" />
    <glyph glyph-name="lacute.aalt" horiz-adv-x="420" 
d="M180 81h230v-81h-326v536h96v-455zM169 594h-77l100 144h113z" />
    <glyph glyph-name="lcaron.aalt" horiz-adv-x="420" 
d="M180 81h230v-81h-326v536h96v-455zM313 346h-79l64 190h93z" />
    <glyph glyph-name="uni013C.aalt" horiz-adv-x="420" 
d="M180 81h230v-81h-326v536h96v-455zM232 -235h-79l64 190h93z" />
    <glyph glyph-name="lslash.aalt" horiz-adv-x="420" 
d="M180 390l110 92v-90l-110 -93v-218h230v-81h-326v219l-76 -64v91l76 63v227h96v-146z" />
    <glyph glyph-name="ldot.aalt" horiz-adv-x="420" 
d="M180 81h230v-81h-326v536h96v-455zM375 315q0 -26 -18.5 -43t-44.5 -17t-44 17.5t-18 42.5q0 26 18 43.5t44 17.5t44.5 -17.5t18.5 -43.5z" />
    <glyph glyph-name="nacute.aalt" horiz-adv-x="618" 
d="M439 130h2v406h93v-536h-114l-241 404h-2v-404h-93v536h116zM315 594h-77l100 144h113z" />
    <glyph glyph-name="ncaron.aalt" horiz-adv-x="618" 
d="M439 130h2v406h93v-536h-114l-241 404h-2v-404h-93v536h116zM360 594h-107l-111 144h90l76 -99l76 99h88z" />
    <glyph glyph-name="ntilde.aalt" horiz-adv-x="618" 
d="M439 130h2v406h93v-536h-114l-241 404h-2v-404h-93v536h116zM133 602q4 22 10.5 42.5t18.5 37t29.5 26.5t43.5 10q19 0 38.5 -6t36.5 -14q20 -9 36.5 -15.5t30.5 -6.5q22 0 32.5 14.5t15.5 31.5h54q-4 -22 -10.5 -42.5t-18.5 -37t-30 -26.5t-43 -10q-19 0 -39 6.5
t-38 14.5q-18 9 -34.5 15t-30.5 6q-21 0 -31.5 -14.5t-15.5 -31.5h-55z" />
    <glyph glyph-name="uni0146.aalt" horiz-adv-x="618" 
d="M439 130h2v406h93v-536h-114l-241 404h-2v-404h-93v536h116zM292 -235h-79l64 190h93z" />
    <glyph glyph-name="ograve.aalt" horiz-adv-x="681" 
d="M629 269q0 -62 -22 -114t-61 -89.5t-92 -58.5t-115 -21q-61 0 -113.5 21t-91 58.5t-60.5 89.5t-22 114q0 63 22 115t60.5 88.5t91 57t113.5 20.5q62 0 115 -20.5t92 -57t61 -88.5t22 -115zM526 269q0 42 -13 77.5t-37.5 62t-59 41.5t-77.5 15q-42 0 -76 -15t-58 -41.5
t-37 -62t-13 -77.5t13 -78.5t37 -63t58 -41.5t76 -15q43 0 77.5 15t59 41.5t37.5 63t13 78.5zM178 738h113l100 -144h-77z" />
    <glyph glyph-name="oacute.aalt" horiz-adv-x="681" 
d="M629 269q0 -62 -22 -114t-61 -89.5t-92 -58.5t-115 -21q-61 0 -113.5 21t-91 58.5t-60.5 89.5t-22 114q0 63 22 115t60.5 88.5t91 57t113.5 20.5q62 0 115 -20.5t92 -57t61 -88.5t22 -115zM526 269q0 42 -13 77.5t-37.5 62t-59 41.5t-77.5 15q-42 0 -76 -15t-58 -41.5
t-37 -62t-13 -77.5t13 -78.5t37 -63t58 -41.5t76 -15q43 0 77.5 15t59 41.5t37.5 63t13 78.5zM365 594h-77l100 144h113z" />
    <glyph glyph-name="ocircumflex.aalt" horiz-adv-x="681" 
d="M629 269q0 -62 -22 -114t-61 -89.5t-92 -58.5t-115 -21q-61 0 -113.5 21t-91 58.5t-60.5 89.5t-22 114q0 63 22 115t60.5 88.5t91 57t113.5 20.5q62 0 115 -20.5t92 -57t61 -88.5t22 -115zM526 269q0 42 -13 77.5t-37.5 62t-59 41.5t-77.5 15q-42 0 -76 -15t-58 -41.5
t-37 -62t-13 -77.5t13 -78.5t37 -63t58 -41.5t76 -15q43 0 77.5 15t59 41.5t37.5 63t13 78.5zM506 594h-91l-75 99l-76 -99h-90l112 144h108z" />
    <glyph glyph-name="otilde.aalt" horiz-adv-x="681" 
d="M629 269q0 -62 -22 -114t-61 -89.5t-92 -58.5t-115 -21q-61 0 -113.5 21t-91 58.5t-60.5 89.5t-22 114q0 63 22 115t60.5 88.5t91 57t113.5 20.5q62 0 115 -20.5t92 -57t61 -88.5t22 -115zM526 269q0 42 -13 77.5t-37.5 62t-59 41.5t-77.5 15q-42 0 -76 -15t-58 -41.5
t-37 -62t-13 -77.5t13 -78.5t37 -63t58 -41.5t76 -15q43 0 77.5 15t59 41.5t37.5 63t13 78.5zM167 602q4 22 10.5 42.5t18.5 37t29.5 26.5t43.5 10q19 0 38.5 -6t36.5 -14q20 -9 36.5 -15.5t30.5 -6.5q22 0 32.5 14.5t15.5 31.5h54q-4 -22 -10.5 -42.5t-18.5 -37t-30 -26.5
t-43 -10q-19 0 -39 6.5t-38 14.5q-18 9 -34.5 15t-30.5 6q-21 0 -31.5 -14.5t-15.5 -31.5h-55z" />
    <glyph glyph-name="odieresis.aalt" horiz-adv-x="681" 
d="M629 269q0 -62 -22 -114t-61 -89.5t-92 -58.5t-115 -21q-61 0 -113.5 21t-91 58.5t-60.5 89.5t-22 114q0 63 22 115t60.5 88.5t91 57t113.5 20.5q62 0 115 -20.5t92 -57t61 -88.5t22 -115zM526 269q0 42 -13 77.5t-37.5 62t-59 41.5t-77.5 15q-42 0 -76 -15t-58 -41.5
t-37 -62t-13 -77.5t13 -78.5t37 -63t58 -41.5t76 -15q43 0 77.5 15t59 41.5t37.5 63t13 78.5zM180 675q0 24 17.5 42.5t44.5 18.5q26 0 44 -17.5t18 -43.5q0 -25 -18 -42.5t-44 -17.5q-27 0 -44.5 18.5t-17.5 41.5zM374 675q0 24 17.5 42.5t44.5 18.5q26 0 44 -17.5
t18 -43.5q0 -25 -18 -42.5t-44 -17.5q-27 0 -44.5 18.5t-17.5 41.5z" />
    <glyph glyph-name="omacron.aalt" horiz-adv-x="681" 
d="M629 269q0 -62 -22 -114t-61 -89.5t-92 -58.5t-115 -21q-61 0 -113.5 21t-91 58.5t-60.5 89.5t-22 114q0 63 22 115t60.5 88.5t91 57t113.5 20.5q62 0 115 -20.5t92 -57t61 -88.5t22 -115zM526 269q0 42 -13 77.5t-37.5 62t-59 41.5t-77.5 15q-42 0 -76 -15t-58 -41.5
t-37 -62t-13 -77.5t13 -78.5t37 -63t58 -41.5t76 -15q43 0 77.5 15t59 41.5t37.5 63t13 78.5zM487 627h-296v67h296v-67z" />
    <glyph glyph-name="obreve.aalt" horiz-adv-x="681" 
d="M629 269q0 -62 -22 -114t-61 -89.5t-92 -58.5t-115 -21q-61 0 -113.5 21t-91 58.5t-60.5 89.5t-22 114q0 63 22 115t60.5 88.5t91 57t113.5 20.5q62 0 115 -20.5t92 -57t61 -88.5t22 -115zM526 269q0 42 -13 77.5t-37.5 62t-59 41.5t-77.5 15q-42 0 -76 -15t-58 -41.5
t-37 -62t-13 -77.5t13 -78.5t37 -63t58 -41.5t76 -15q43 0 77.5 15t59 41.5t37.5 63t13 78.5zM499 738q-6 -69 -49.5 -103.5t-109.5 -34.5q-67 0 -110.5 34.5t-48.5 103.5h56q7 -38 36 -55t67 -17q41 0 68 15.5t36 56.5h55z" />
    <glyph glyph-name="ohungarumlaut.aalt" horiz-adv-x="681" 
d="M629 269q0 -62 -22 -114t-61 -89.5t-92 -58.5t-115 -21q-61 0 -113.5 21t-91 58.5t-60.5 89.5t-22 114q0 63 22 115t60.5 88.5t91 57t113.5 20.5q62 0 115 -20.5t92 -57t61 -88.5t22 -115zM526 269q0 42 -13 77.5t-37.5 62t-59 41.5t-77.5 15q-42 0 -76 -15t-58 -41.5
t-37 -62t-13 -77.5t13 -78.5t37 -63t58 -41.5t76 -15q43 0 77.5 15t59 41.5t37.5 63t13 78.5zM281 594h-77l100 144h114zM464 594h-77l100 144h113z" />
    <glyph glyph-name="oslash.aalt" horiz-adv-x="681" 
d="M560 458q32 -36 50.5 -84t18.5 -105q0 -62 -22 -114t-61 -89.5t-92 -58.5t-115 -21q-53 0 -98.5 15t-82.5 43l-73 -75l-36 36l72 74q-33 36 -51 84.5t-18 105.5q0 63 22 115t60.5 89t91 57t113.5 20q54 0 100 -15t83 -43l70 72l37 -35zM525 269q0 67 -34 118l-268 -276
q47 -39 116 -39q42 0 76.5 15t59 41.5t37.5 62.5t13 78zM156 269q0 -69 33 -119l267 275q-23 18 -52.5 28.5t-64.5 10.5q-42 0 -76 -15t-57.5 -41.5t-36.5 -62t-13 -76.5z" />
    <glyph glyph-name="oe.aalt" horiz-adv-x="808" 
d="M481 81h272v-81h-399q-61 0 -114.5 18.5t-93 53.5t-62.5 84.5t-23 111.5q0 63 23 112.5t62.5 84t93 53t114.5 18.5h387v-80h-260v-141h246v-77h-246v-157zM165 268q0 -42 14 -75.5t39 -57.5t59.5 -36.5t76.5 -12.5h31v364h-31q-42 0 -77 -13t-59.5 -37t-38.5 -57.5
t-14 -74.5z" />
    <glyph glyph-name="racute.aalt" horiz-adv-x="525" 
d="M180 0h-96v536h191q40 0 75.5 -7.5t62.5 -24.5t42.5 -46t15.5 -71q0 -59 -32.5 -96t-84.5 -51l139 -240h-111l-125 226h-77v-226zM180 304h83q22 0 42 4t35.5 13.5t24.5 24.5t9 38q0 21 -8.5 35t-23 22.5t-33.5 11.5t-40 3h-89v-152zM269 594h-77l100 144h113z" />
    <glyph glyph-name="rcaron.aalt" horiz-adv-x="525" 
d="M180 0h-96v536h191q40 0 75.5 -7.5t62.5 -24.5t42.5 -46t15.5 -71q0 -59 -32.5 -96t-84.5 -51l139 -240h-111l-125 226h-77v-226zM180 304h83q22 0 42 4t35.5 13.5t24.5 24.5t9 38q0 21 -8.5 35t-23 22.5t-33.5 11.5t-40 3h-89v-152zM314 594h-107l-111 144h90l76 -99
l76 99h88z" />
    <glyph glyph-name="uni0157.aalt" horiz-adv-x="525" 
d="M180 0h-96v536h191q40 0 75.5 -7.5t62.5 -24.5t42.5 -46t15.5 -71q0 -59 -32.5 -96t-84.5 -51l139 -240h-111l-125 226h-77v-226zM180 304h83q22 0 42 4t35.5 13.5t24.5 24.5t9 38q0 21 -8.5 35t-23 22.5t-33.5 11.5t-40 3h-89v-152zM254 -235h-79l64 190h93z" />
    <glyph glyph-name="sacute.aalt" horiz-adv-x="465" 
d="M347 419q-17 22 -45 35.5t-60 13.5q-36 0 -61.5 -18.5t-25.5 -53.5q0 -18 6.5 -30.5t19 -21.5t30.5 -16.5t41 -14.5q28 -9 56.5 -21t51 -30t36.5 -44.5t14 -64.5q0 -43 -15 -74.5t-41 -52t-60 -30.5t-73 -10q-57 0 -106.5 22t-80.5 61l66 61q24 -32 58 -46t65 -14
q38 0 65.5 17.5t27.5 53.5q0 40 -30.5 60t-86.5 37q-26 8 -51 19t-44.5 28t-31.5 42t-12 62q0 41 16 71.5t42.5 50.5t60.5 29.5t69 9.5q50 0 91 -18t69 -49zM254 594h-77l100 144h113z" />
    <glyph glyph-name="scircumflex.aalt" horiz-adv-x="465" 
d="M347 419q-17 22 -45 35.5t-60 13.5q-36 0 -61.5 -18.5t-25.5 -53.5q0 -18 6.5 -30.5t19 -21.5t30.5 -16.5t41 -14.5q28 -9 56.5 -21t51 -30t36.5 -44.5t14 -64.5q0 -43 -15 -74.5t-41 -52t-60 -30.5t-73 -10q-57 0 -106.5 22t-80.5 61l66 61q24 -32 58 -46t65 -14
q38 0 65.5 17.5t27.5 53.5q0 40 -30.5 60t-86.5 37q-26 8 -51 19t-44.5 28t-31.5 42t-12 62q0 41 16 71.5t42.5 50.5t60.5 29.5t69 9.5q50 0 91 -18t69 -49zM414 594h-91l-75 99l-76 -99h-90l112 144h108z" />
    <glyph glyph-name="scaron.aalt" horiz-adv-x="465" 
d="M347 419q-17 22 -45 35.5t-60 13.5q-36 0 -61.5 -18.5t-25.5 -53.5q0 -18 6.5 -30.5t19 -21.5t30.5 -16.5t41 -14.5q28 -9 56.5 -21t51 -30t36.5 -44.5t14 -64.5q0 -43 -15 -74.5t-41 -52t-60 -30.5t-73 -10q-57 0 -106.5 22t-80.5 61l66 61q24 -32 58 -46t65 -14
q38 0 65.5 17.5t27.5 53.5q0 40 -30.5 60t-86.5 37q-26 8 -51 19t-44.5 28t-31.5 42t-12 62q0 41 16 71.5t42.5 50.5t60.5 29.5t69 9.5q50 0 91 -18t69 -49zM301 594h-107l-111 144h90l76 -99l76 99h88z" />
    <glyph glyph-name="scedilla.sc" horiz-adv-x="465" 
d="M347 419q-17 22 -45 35.5t-60 13.5q-36 0 -61.5 -18.5t-25.5 -53.5q0 -18 6.5 -30.5t19 -21.5t30.5 -16.5t41 -14.5q28 -9 56.5 -21t51 -30t36.5 -44.5t14 -64.5t-11.5 -66.5t-32 -49t-48.5 -32.5t-60 -16l-38 -58q7 2 13 2h14q17 0 33.5 -4t30 -13t22 -24t8.5 -37
q0 -26 -12 -43.5t-30.5 -28t-41 -14.5t-43.5 -4q-26 0 -54 6t-49 17l20 42q37 -17 77 -17q8 0 18.5 2t20 6.5t16 12.5t6.5 21q0 22 -17 30t-37 8q-9 0 -20 -2t-21 -5l-20 20l53 81q-53 2 -98.5 23.5t-74.5 58.5l66 61q24 -32 58 -46t65 -14q38 0 65.5 17.5t27.5 53.5
q0 40 -30.5 60t-86.5 37q-26 8 -51 19t-44.5 28t-31.5 42t-12 62q0 41 16 71.5t42.5 50.5t60.5 29.5t69 9.5q50 0 91 -18t69 -49z" />
    </font>
</defs>
</svg>
